<?xml version="1.0" encoding="utf-8"?>
<!-- Generator: Adobe Illustrator 25.0.0, SVG Export Plug-In . SVG Version: 6.00 Build 0)  -->
<svg version="1.1" id="Layer_1" xmlns="http://www.w3.org/2000/svg" xmlns:xlink="http://www.w3.org/1999/xlink" x="0px" y="0px"
	 viewBox="0 0 40 40" style="enable-background:new 0 0 40 40;" xml:space="preserve">
<g>
	<path fill="#fff" d="M39.54,28.33c0,2.35,0,4.7,0,7.05c0,0.33,0.02,0.67-0.35,0.83c-0.36,0.15-0.62-0.07-0.88-0.3
		c-5.68-5.08-11.36-10.17-17.03-15.25c-0.5-0.45-1.68-0.45-2.2,0c-2.5,2.18-4.99,4.37-7.48,6.56c-3.33,2.92-6.67,5.85-10,8.78
		C1.35,36.21,1.1,36.34,0.8,36.2c-0.31-0.13-0.34-0.42-0.34-0.71c0-4.68,0-9.36,0-14.04c0-0.09,0-0.18,0-0.27
		c0-0.58,0.25-1.05,0.68-1.42c0.65-0.56,1.31-1.1,1.95-1.66c5.28-4.63,10.56-9.27,15.85-13.9c0.69-0.6,1.78-0.61,2.45,0
		c5.13,4.59,10.26,9.19,15.39,13.78c0.54,0.48,1.11,0.94,1.66,1.41c0.2,0.17,0.39,0.35,0.57,0.54c0.36,0.38,0.53,0.83,0.53,1.37
		C39.53,23.63,39.54,25.98,39.54,28.33z"/>
</g>
</svg>
