<?xml version="1.0" encoding="utf-8"?>
<!-- Generator: Adobe Illustrator 25.0.0, SVG Export Plug-In . SVG Version: 6.00 Build 0)  -->
<svg version="1.1" id="Layer_1" xmlns="http://www.w3.org/2000/svg" xmlns:xlink="http://www.w3.org/1999/xlink" x="0px" y="0px"
	 viewBox="0 0 40 40" style="enable-background:new 0 0 40 40;" xml:space="preserve">
<g>
	<path fill="#fff" d="M28.33,0.46c2.35,0,4.7,0,7.05,0c0.33,0,0.67-0.02,0.83,0.35c0.15,0.36-0.07,0.62-0.3,0.88
		c-5.08,5.68-10.17,11.36-15.25,17.03c-0.45,0.5-0.45,1.68,0,2.2c2.18,2.5,4.37,4.99,6.56,7.48c2.92,3.33,5.85,6.67,8.78,10
		c0.21,0.24,0.34,0.49,0.21,0.79c-0.13,0.31-0.42,0.34-0.71,0.34c-4.68,0-9.36,0-14.04,0c-0.09,0-0.18,0-0.27,0
		c-0.58,0-1.05-0.25-1.42-0.68c-0.56-0.65-1.1-1.31-1.66-1.95c-4.63-5.28-9.27-10.56-13.9-15.85c-0.6-0.69-0.61-1.78,0-2.45
		c4.59-5.13,9.19-10.26,13.78-15.39c0.48-0.54,0.94-1.11,1.41-1.66c0.17-0.2,0.35-0.39,0.54-0.57c0.38-0.36,0.83-0.53,1.37-0.53
		C23.63,0.47,25.98,0.46,28.33,0.46z"/>
</g>
</svg>
