<?xml version="1.0" encoding="utf-8"?>
<!-- Generator: Adobe Illustrator 25.0.0, SVG Export Plug-In . SVG Version: 6.00 Build 0)  -->
<svg version="1.1" id="Layer_1" xmlns="http://www.w3.org/2000/svg" xmlns:xlink="http://www.w3.org/1999/xlink" x="0px" y="0px"
	 viewBox="0 0 250 250" style="enable-background:new 0 0 250 250;" xml:space="preserve">
<style type="text/css">
	.st0{display:none;}
	.st1{display:inline;}
	.st2{fill:#231F20;}
	.st3{fill:#9C8657;}
</style>
<g id="Layer_1_1_" class="st0">
	<g class="st1">
		<g>
			<path class="st2" d="M26.09,165.97c0.59,2.66,2.12,5.1,4.55,6.66l25.92,16.59c2.32,1.48,5.18,1.85,7.76,1.38l0.07-0.12
				c2.58-0.47,4.92-2.07,6.59-4.43l0.07-0.12c1.36-2.39,1.84-5.18,1.26-7.84c-0.12-0.57-0.29-1.33-0.64-2.05
				c0.91,0.1,1.72,0.12,2.66-0.09c2.16-0.57,4.16-1.91,5.53-3.8l0.07-0.12l2.92-4.82c1.6-2.24,2.99-4.94,3.88-8.61
				c0.62-3.51,0.8-8.13-0.15-14.29l2.37-3.7l0.07-0.12l2.96-4.63l1.26-1.97c0.67-1.04,0.8-2.26,0.54-3.4
				c-0.25-1.14-0.88-2.2-1.92-2.86l-20.14-12.89c-1.04-0.67-2.26-0.79-3.4-0.54s-2.2,0.88-2.86,1.92l-1.26,1.97l-2.96,4.63
				l-0.07,0.12l-2.37,3.7c-5.99,1.72-10.11,3.81-13.04,5.85c-3.08,2.27-4.83,4.74-6.24,6.94L27.47,158.2
				C25.99,160.52,25.62,163.38,26.09,165.97z M67.8,117.62c0.22-0.35,0.63-0.74,1.13-0.74c0.38-0.08,0.99-0.02,1.34,0.2l20.14,12.89
				c0.35,0.22,0.66,0.75,0.74,1.13c0.08,0.38,0.02,0.99-0.2,1.34l-0.52,0.81l-23.14-14.81L67.8,117.62z M65.8,120.74l23.14,14.81
				l-1.48,2.32l-23.14-14.81L65.8,120.74z M62.84,125.37l23.14,14.81l-1.19,1.85l-23.22-14.7L62.84,125.37z M41.93,140.71
				c1.26-1.97,2.78-4.09,5.45-5.97c2.74-1.99,6.48-4.01,12.09-5.64l24.42,15.63c0.87,5.78,0.72,10.09,0.06,13.42
				s-1.96,5.6-3.21,7.57l-3.11,4.86l-0.07,0.12c-1.01,1.32-2.28,2.29-3.8,2.63l-0.12-0.07c-1.52,0.33-3.16,0.09-4.55-0.79
				l-1.28-0.82l-10.76-6.89l-0.12-0.07c-1.39-0.89-2.29-2.28-2.63-3.8c-0.33-1.52-0.1-3.16,0.79-4.55c0.96-1.5,2.36-2.41,3.87-2.74
				c1.52-0.33,3.16-0.09,4.67,0.87l6.71,4.3c0.69,0.44,1.45,0.28,1.9-0.42c0.37-0.57,0.28-1.45-0.42-1.9l-6.71-4.3
				c-2.08-1.33-4.46-1.71-6.73-1.21c-2.28,0.5-4.27,1.83-5.61,3.91c-1.26,1.97-1.56,4.22-1.17,6.43l-3.7-2.37
				c-2.43-1.56-5.22-2.04-7.88-1.45c-2.66,0.58-4.99,2.19-6.54,4.62c-0.37,0.58-0.28,1.45,0.42,1.9c0.58,0.37,1.52,0.17,1.9-0.42
				c1.18-1.85,2.92-3.02,4.82-3.44c1.9-0.42,3.96-0.07,5.81,1.11l9.14,5.85l10.76,6.89c1.85,1.19,2.91,2.84,3.33,4.74
				c0.41,1.9,0.07,3.96-0.92,5.77l-0.07,0.12c-1.23,1.66-2.96,2.84-4.85,3.26l-0.08,0.12c-1.82,0.29-3.96,0.07-5.7-1.04
				l-25.92-16.59c-1.73-1.11-2.83-2.96-3.25-4.86l-0.11-0.07c-0.42-1.9-0.08-3.96,1.03-5.7L41.93,140.71z"/>
			<path class="st2" d="M43.48,143.65c0,0,5.91-9.76,15.88-11.04c0.38-0.08,0.6-0.43,0.52-0.81c0.03-0.31-0.31-0.53-0.73-0.64
				c-10.72,1.46-16.82,11.75-16.89,11.86c-0.15,0.23,0.05,0.69,0.28,0.84C42.87,144.08,43.25,144,43.48,143.65z"/>
			<path class="st2" d="M37.3,172.16l20.37,13.03c0.35,0.22,0.73,0.14,0.95-0.2c0.22-0.35,0.14-0.73-0.21-0.95L38.04,171
				c-0.35-0.22-0.73-0.14-0.95,0.21C36.87,171.56,36.95,171.94,37.3,172.16z"/>
		</g>
		<g>
			<path class="st2" d="M143.94,77.55l-0.14-0.14c-2.61-2.61-6.32-4.26-10.44-4.26h-0.69l-5.22-16.08c0.14-0.14,0.27-0.27,0.41-0.41
				c0.96-0.96,1.52-2.2,1.52-3.57s-0.55-2.75-1.52-3.57v-0.14c-0.96-0.97-2.2-1.51-3.71-1.51c-1.37,0-2.75,0.55-3.57,1.51
				c-0.96,0.96-1.65,2.2-1.65,3.71c0,1.38,0.69,2.61,1.65,3.57c0.14,0.14,0.27,0.27,0.41,0.41l-5.22,16.08h-0.82
				c-3.99,0-7.7,1.65-10.44,4.26c-2.61,2.61-4.26,6.32-4.26,10.31v0.14v7.42v0.14v47.27v5.77c0,4.12,1.65,7.69,4.26,10.3
				c2.75,2.75,6.32,4.4,10.44,4.4h18.41c4.12,0,7.83-1.65,10.44-4.4c2.61-2.61,4.26-6.18,4.26-10.3v-5.77V95.42v-0.14v-7.42v-0.14
				C148.06,83.74,146.42,80.17,143.94,77.55z M133.22,87.72c0.14-0.69,0.27-1.24,0.82-1.65c0.27-0.27,0.69-0.55,1.1-0.69
				c0.14,0,0.27,0,0.55,0c0.55,0,1.24,0.27,1.65,0.69c0.41,0.41,0.69,0.96,0.69,1.65v0.14c0,0.55-0.27,1.1-0.69,1.65
				c-0.41,0.41-1.1,0.69-1.65,0.69c-0.69,0-1.24-0.27-1.65-0.82c-0.55-0.41-0.69-0.96-0.82-1.51L133.22,87.72L133.22,87.72z
				 M122.51,51.31c0.41-0.41,0.96-0.69,1.65-0.69s1.24,0.27,1.79,0.69v0.14c0.41,0.41,0.69,0.96,0.69,1.65
				c0,0.55-0.27,1.24-0.69,1.65c-0.55,0.41-1.1,0.69-1.79,0.69s-1.24-0.27-1.65-0.69c-0.55-0.41-0.82-1.1-0.82-1.65
				C121.68,52.41,121.96,51.72,122.51,51.31z M123.6,58.18c0.14,0,0.41,0,0.55,0c0.27,0,0.42,0,0.69,0l4.94,14.98h-11.13
				L123.6,58.18z M117.7,75.91h13.06l2.33,7.42c-0.41,0.27-0.69,0.55-1.1,0.82c-0.55,0.69-0.96,1.38-1.24,2.2H117.7
				c-0.27-0.82-0.69-1.65-1.37-2.2c-0.27-0.27-0.69-0.55-1.1-0.82L117.7,75.91z M115.09,87.72v0.14c0,0.55-0.27,1.1-0.69,1.65
				c-0.42,0.41-0.97,0.69-1.65,0.69s-1.24-0.27-1.65-0.82c-0.41-0.41-0.69-0.96-0.69-1.51v-0.14c0-0.69,0.27-1.24,0.69-1.65
				c0.41-0.41,0.96-0.69,1.65-0.69s1.24,0.27,1.65,0.69C114.81,86.49,115.09,87.03,115.09,87.72z M106.43,79.34
				c2.2-2.06,5.08-3.43,8.38-3.43l-2.2,6.73c-1.37,0-2.61,0.55-3.44,1.51c-0.69,0.55-1.1,1.38-1.37,2.2h-4.67
				C103.41,83.74,104.65,81.26,106.43,79.34z M141.88,156.83c-2.2,2.2-5.22,3.57-8.52,3.57h-18.41c-3.3,0-6.32-1.37-8.52-3.57
				c-1.78-1.78-3.02-4.26-3.44-7.01h42.32C144.91,152.58,143.67,155.05,141.88,156.83z M145.32,147.08H103v-3.02h5.91
				c0.69,0,1.38-0.55,1.38-1.37v-2.75h4.81v2.75c0,0.82,0.55,1.37,1.37,1.37h15.39c0.82,0,1.37-0.55,1.37-1.37v-2.75h4.81v2.75
				c0,0.82,0.69,1.37,1.37,1.37h0.14h5.77L145.32,147.08L145.32,147.08z M145.32,141.31h-4.54v-2.75c0-0.82-0.55-1.37-1.38-1.37
				h-7.55c-0.69,0-1.37,0.55-1.37,1.37v2.75h-12.64v-2.75c0-0.82-0.69-1.37-1.37-1.37h-7.56c-0.82,0-1.37,0.55-1.37,1.37v2.75H103
				V96.65h4.54v2.88c0,0.82,0.55,1.38,1.37,1.38h7.56c0.69,0,1.37-0.55,1.37-1.38v-2.88h12.64v2.88c0,0.82,0.69,1.38,1.37,1.38h7.55
				c0.83,0,1.38-0.55,1.38-1.38v-2.88h4.54V141.31z M145.32,93.9h-5.77h-0.14c-0.69,0-1.37,0.69-1.37,1.37v0.14v2.75h-4.81v-2.75
				v-0.14c0-0.69-0.55-1.37-1.37-1.37h-15.39c-0.82,0-1.37,0.69-1.37,1.37v0.14v2.75h-4.81v-2.75v-0.14c0-0.69-0.69-1.37-1.38-1.37
				H103v-4.81h4.81c0.27,0.97,0.69,1.65,1.37,2.34c0.83,0.82,2.2,1.51,3.57,1.51c1.38,0,2.61-0.69,3.57-1.51
				c0.69-0.69,1.1-1.37,1.37-2.34h13.06c0.27,0.97,0.69,1.65,1.24,2.34c0.96,0.82,2.2,1.51,3.71,1.51c1.37,0,2.61-0.69,3.57-1.51
				v-0.14c0.69-0.55,1.1-1.38,1.38-2.2h4.67L145.32,93.9L145.32,93.9z M140.65,86.35c-0.27-0.82-0.69-1.65-1.38-2.2
				c-0.82-0.96-2.06-1.51-3.43-1.51l-2.2-6.73c3.16,0,6.04,1.37,8.25,3.43v0.14c1.78,1.79,3.02,4.26,3.44,6.87H140.65z"/>
			<path class="st2" d="M113.3,153.13h26.8c0.41,0,0.69-0.27,0.69-0.69c0-0.27-0.27-0.69-0.69-0.69h-26.8
				c-0.41,0-0.69,0.42-0.69,0.69C112.61,152.85,112.89,153.13,113.3,153.13z"/>
			<path class="st2" d="M142.02,132.79c0.41,0,0.69-0.27,0.69-0.69v-26.79c0-0.42-0.27-0.69-0.69-0.69c-0.27,0-0.69,0.27-0.69,0.69
				v26.79C141.33,132.52,141.74,132.79,142.02,132.79z"/>
		</g>
		<g>
			<path class="st2" d="M199.31,182.34c0.23-0.31,0.15-0.85-0.16-1.09c-0.31-0.23-0.72-0.17-0.96,0.14l-10.11,13.66
				c-0.23,0.31-0.17,0.72,0.14,0.95s0.72,0.17,0.95-0.14L199.31,182.34z"/>
			<path class="st2" d="M188.91,109.84c0.23-0.31,0.17-0.72-0.14-0.95c-0.31-0.23-0.72-0.17-0.96,0.14l-10.27,13.55
				c-0.23,0.31-0.17,0.72,0.14,0.95c0.31,0.23,0.72,0.17,0.95-0.14L188.91,109.84z"/>
			<path class="st2" d="M192.17,200.29l12.36-16.35c0.7-0.93,0.95-2.08,0.8-3.17l-0.02-0.14c-0.16-1.09-0.72-2.12-1.66-2.82
				l-0.13,0.02l18.99-25.35c1.26-1.85,1.8-3.87,1.51-5.91c-0.27-1.9-1.38-3.83-3.09-5.11c-1.71-1.28-3.73-1.83-5.77-1.53
				c-2.04,0.29-3.83,1.38-5.11,3.1l-0.14,0.02l-24.47,32.66c-0.81,1.09-1.96,1.81-3.32,2c-1.23,0.18-2.66-0.17-3.75-0.99
				s-1.83-2.1-2-3.32c-0.19-1.36,0.17-2.66,0.99-3.75l4.66-6.22L182,163.3l2.11-2.66l-0.02-0.14l17.71-23.64
				c1.28-1.71,1.83-3.73,1.53-5.77c-0.29-2.04-1.38-3.83-3.09-5.11c-1.73-1.42-3.86-1.8-5.77-1.53c-2.04,0.29-3.85,1.25-5.27,2.98
				l0.02,0.14l-24.46,32.66c-0.82,1.09-2.1,1.83-3.32,2c-1.36,0.19-2.66-0.17-3.75-0.99c-1.22-0.8-1.83-2.1-2.02-3.46
				c-0.18-1.22,0.04-2.64,0.99-3.75l18.99-25.35l0.02,0.14c0.93,0.7,2.21,0.93,3.3,0.77c1.09-0.16,2.12-0.72,2.82-1.65L194,111.47
				c0.7-0.93,1.09-2.1,0.93-3.19c-0.29-1.07-0.86-2.1-1.79-2.8l-2.36-1.88c-0.93-0.7-2.08-0.95-3.17-0.79l-0.14,0.02
				c-1.09,0.16-2.12,0.72-2.81,1.65l-12.21,16.47c-0.7,0.93-0.95,2.08-0.79,3.17s0.72,2.12,1.65,2.82l0.02,0.14l-18.99,25.35
				c-1.28,1.71-1.67,3.85-1.4,5.75c0.29,2.04,1.27,3.98,2.98,5.26c1.71,1.28,3.87,1.81,5.91,1.51c1.9-0.27,3.83-1.38,5.11-3.09
				l24.47-32.66l0.11-0.15c0.82-1.09,1.98-1.67,3.35-1.87c1.22-0.17,2.64,0.04,3.75,0.99c1.09,0.82,1.81,1.96,2.01,3.32
				c0.18,1.23-0.18,2.67-0.99,3.75l-17.71,23.64l-2.09,2.8l0.02,0.14l-4.68,6.09c-1.28,1.71-1.8,3.87-1.51,5.91
				c0.27,1.91,1.38,3.83,3.09,5.11c1.71,1.28,3.73,1.82,5.78,1.53c2.04-0.29,3.82-1.38,5.1-3.09l24.47-32.66l0.14-0.02
				c0.82-1.09,2.1-1.83,3.32-2c1.22-0.18,2.66,0.17,3.75,0.99s1.83,2.1,2.01,3.32c0.19,1.36-0.17,2.66-0.99,3.75l-18.97,25.49
				l-0.16-0.12c-0.93-0.7-2.08-0.95-3.17-0.8c-1.09,0.16-2.12,0.72-2.82,1.65l-12.37,16.35c-0.7,0.93-0.93,2.21-0.77,3.3
				c0.16,1.09,0.72,2.12,1.65,2.82l2.47,1.73c0.95,0.84,2.1,1.09,3.18,0.93l0.14-0.02C190.46,201.93,191.47,201.23,192.17,200.29z
				 M177.43,126.62l-1.24-0.93l-1.24-0.93c-0.32-0.23-0.5-0.62-0.7-1.01c0.08-0.43,0.15-0.85,0.39-1.17l12.21-16.47
				c0.37-0.33,0.76-0.52,1.03-0.56l0.14-0.02c0.27-0.04,0.7,0.04,1.15,0.25l2.35,1.88c0.31,0.23,0.65,0.6,0.7,1.01
				c0.06,0.41-0.16,0.86-0.39,1.17l-12.21,16.46c-0.37,0.33-0.62,0.51-1.03,0.57C178.17,126.93,177.75,126.85,177.43,126.62z
				 M187.82,198.98l-2.47-1.73c-0.33-0.37-0.5-0.62-0.56-1.03s0.01-0.83,0.23-1.28l12.37-16.35c0.23-0.31,0.62-0.5,1.03-0.56
				s0.84,0.02,1.15,0.25l1.24,0.93l1.24,0.93c0.31,0.23,0.51,0.62,0.57,1.03c0.06,0.41-0.02,0.84-0.26,1.15l-12.37,16.35
				c-0.21,0.45-0.6,0.64-1.01,0.7C188.57,199.42,188.15,199.35,187.82,198.98z"/>
		</g>
	</g>
</g>
<g id="Layer_4">
	<g>
		<path class="st3" d="M78.47,161.25c-3.23-0.45-6.99-0.79-11.07-1.03c1.68-4.63,1.44-9.32-0.66-12.37l9.91-18.97
			c0.35-0.66,0.53-1.4,0.53-2.15c0-1.78-1.05-3.42-2.68-4.18c-1.15-0.54-2.44-0.58-3.63-0.12c-1.19,0.46-2.11,1.36-2.6,2.55
			l-8.14,19.74c-4.12,0.39-8.35,3.91-10.74,9.04c-1.01,2.16-1.49,4.24-1.48,6.15c-7.1,0.16-13.65,0.62-18.85,1.34
			c-9.87,1.36-11.2,3.07-11.2,4.57c0,15.18,16.11,27.52,35.9,27.52s35.9-12.35,35.9-27.52C89.67,164.33,88.34,162.61,78.47,161.25z
			 M70.47,125.9c0.24-0.57,0.69-1.01,1.26-1.23s1.19-0.2,1.75,0.06c0.79,0.37,1.29,1.16,1.29,2.01c0,0.36-0.09,0.72-0.26,1.04
			L64.5,146.94l-2.27-1.06L70.47,125.9z M61.11,162.34c0.88,0.03,1.76,0.05,2.6,0.09c-1.54,2.49-3.51,3.92-5.68,4.18
			C59.06,165.6,60.1,164.16,61.11,162.34z M56.29,164.98c-0.83,0.8-1.59,1.16-2.01,0.96l0,0c-0.52-0.24-0.83-1.43-0.34-3.7
			c1.53,0,3,0.02,4.44,0.05C57.53,163.63,56.81,164.47,56.29,164.98z M62.32,159.99c0.03-0.06,0.06-0.11,0.08-0.17
			c1.62-3.47,2.68-6.88,2.99-9.48c1.1,2.57,0.93,6.23-0.52,9.75C64.03,160.05,63.18,160.02,62.32,159.99z M61.63,148.24l1.45,0.68
			c-0.01,2-0.85,5.61-2.85,9.89c-0.18,0.39-0.36,0.76-0.54,1.11c-1.66-0.04-3.35-0.06-5.07-0.07c0.32-0.91,0.74-1.92,1.26-3.05
			C57.88,152.52,60.1,149.55,61.63,148.24z M51.56,154.77c1.74-3.74,4.65-6.52,7.51-7.39c-1.8,1.92-3.73,4.93-5.35,8.4
			c-0.72,1.54-1.24,2.88-1.61,4.07c-0.6,0-1.21,0-1.81,0.01C50.29,158.31,50.71,156.59,51.56,154.77z M51.5,162.25
			c-0.08,0.44-0.14,0.85-0.16,1.23c-0.25-0.38-0.46-0.79-0.62-1.22C50.97,162.25,51.24,162.25,51.5,162.25z M53.76,190.95
			c-17.29,0-31.55-9.87-33.32-22.49c1.65,0.68,4.33,1.34,8.62,1.93c6.61,0.91,15.38,1.41,24.7,1.41s18.1-0.5,24.7-1.41
			c4.29-0.59,6.96-1.25,8.62-1.93C85.32,181.08,71.05,190.95,53.76,190.95z M53.76,169.41c-18.96,0-31.28-2.05-33.34-3.59
			c1.85-1.38,12-3.17,27.8-3.52c0.03,0.11,0.05,0.22,0.08,0.32c0.75,2.43,2.46,4.32,4.95,5.48l0,0l0,0l0,0
			c1.36,0.63,2.72,0.94,4.04,0.94c3.6,0,6.89-2.31,9.07-6.48c11.74,0.64,19.18,2.1,20.74,3.26
			C85.05,167.36,72.72,169.41,53.76,169.41z"/>
		<path class="st3" d="M231.98,142.57c-1.02-7.29-7.12-12.88-14.52-13.3c-1.28-0.07-2.56,0.02-3.81,0.26
			c-3.67-6.1-10.27-9.86-17.42-9.86s-13.75,3.76-17.44,9.85c-2.64-0.49-5.28-0.32-7.83,0.54c-5.91,1.99-10.17,7.47-10.6,13.63
			c-0.42,6.01,2.55,11.6,7.75,14.59c1.1,0.63,1.78,1.82,1.78,3.09v28.91c0,0.66,0.54,1.2,1.2,1.2h50.26c0.66,0,1.2-0.54,1.2-1.2
			v-28.91c0-1.28,0.69-2.45,1.85-3.12C229.9,155.05,232.87,148.9,231.98,142.57z M220.17,180.7h-5.98v2.39h5.98v5.98H172.3v-5.98
			h32.31v-2.39H172.3v-2.39h47.87V180.7z M223.21,156.17c-1.9,1.11-3.04,3.05-3.04,5.19v14.55h-4.79v-11.97h-2.39v11.97h-33.51
			v-7.18h-2.39v7.18h-4.79v-14.55c0-2.12-1.14-4.1-2.98-5.16c-4.4-2.54-6.92-7.26-6.56-12.35c0.36-5.22,3.97-9.85,8.98-11.52
			c2.39-0.81,4.87-0.91,7.37-0.3c3.09,0.78,5.8,2.66,7.63,5.31l1.96-1.36c-1.85-2.68-4.48-4.69-7.49-5.79
			c3.3-5.05,8.94-8.13,15.02-8.13c6.58,0,12.63,3.6,15.77,9.39c1.15,2.08,1.84,4.34,2.08,6.7c0.06,0.65,0.1,1.27,0.1,1.85h2.39
			c0-0.66-0.04-1.35-0.11-2.08c-0.22-2.15-0.78-4.21-1.65-6.16c0.83-0.12,1.66-0.16,2.51-0.11c6.15,0.35,11.43,5.17,12.28,11.24
			C230.35,148.26,227.85,153.47,223.21,156.17z"/>
		<rect x="177.09" y="163.95" class="st3" width="2.39" height="2.39"/>
		<rect x="212.99" y="159.16" class="st3" width="2.39" height="2.39"/>
		<rect x="207.01" y="180.7" class="st3" width="4.79" height="2.39"/>
		<path class="st3" d="M96.53,90.37L97,91.35c0.54,1.16,1.5,2.03,2.69,2.48c0.54,0.19,1.09,0.29,1.64,0.29
			c0.69,0,1.38-0.14,2.02-0.44c1.16-0.54,2.05-1.51,2.48-2.7c0.44-1.2,0.38-2.5-0.16-3.66l-0.47-0.98l-2.63-10.06
			c-0.28-1.04-0.98-1.89-1.95-2.35c-0.97-0.45-2.07-0.45-3.04,0l-5.65,2.63c-0.97,0.45-1.69,1.3-1.95,2.33
			c-0.28,1.03-0.08,2.12,0.54,2.99L96.53,90.37z M103.58,90.14c-0.22,0.61-0.66,1.09-1.23,1.35c-0.59,0.28-1.23,0.3-1.83,0.08
			s-1.08-0.66-1.35-1.23l4.33-2.02C103.77,88.89,103.8,89.54,103.58,90.14z M92.3,79.49c0.05-0.2,0.2-0.57,0.65-0.78l5.65-2.63
			c0.18-0.08,0.36-0.11,0.5-0.11c0.23,0,0.41,0.06,0.51,0.11c0.19,0.1,0.53,0.31,0.65,0.78l2.42,9.21l-4.69,2.18l-5.5-7.75
			C92.19,80.09,92.24,79.69,92.3,79.49z"/>
		<path class="st3" d="M160.81,105.78c0-1.32-1.08-2.39-2.39-2.39h-4.79v-1.2c0-0.66-0.54-1.2-1.2-1.2H97.39
			c-0.66,0-1.2,0.54-1.2,1.2v1.2H91.4c-1.32,0-2.39,1.08-2.39,2.39v5.98c0,3.3,2.68,5.98,5.98,5.98h1.2v4.79
			c0,3.3,2.68,5.98,5.98,5.98h45.47c3.3,0,5.98-2.68,5.98-5.98v-4.79h1.2c3.3,0,5.98-2.68,5.98-5.98L160.81,105.78L160.81,105.78z
			 M96.19,109.42v2.39v3.54h-1.2c-1.97,0-3.59-1.62-3.59-3.59v-5.98h4.79C96.19,105.78,96.19,109.42,96.19,109.42z M151.24,116.55
			v5.98c0,1.97-1.62,3.59-3.59,3.59h-45.47c-1.97,0-3.59-1.62-3.59-3.59v-5.98v-4.56c1.18,0.2,2.03,0.53,2.9,0.88
			c1.52,0.61,3.09,1.23,6.19,1.23c3.1,0,4.67-0.63,6.19-1.23c1.37-0.55,2.66-1.06,5.3-1.06s3.93,0.52,5.3,1.06
			c1.52,0.61,3.08,1.23,6.19,1.23c3.1,0,4.67-0.63,6.19-1.23c1.37-0.55,2.66-1.06,5.3-1.06s3.93,0.52,5.3,1.06
			c1.06,0.43,2.17,0.86,3.8,1.08v2.6H151.24z M151.24,104.59v6.95c-1.19-0.2-2.03-0.53-2.91-0.88c-1.52-0.61-3.09-1.23-6.19-1.23
			s-4.67,0.63-6.19,1.23c-1.37,0.55-2.66,1.06-5.3,1.06s-3.93-0.52-5.3-1.06c-1.52-0.61-3.09-1.23-6.19-1.23
			c-3.1,0-4.67,0.63-6.19,1.23c-1.37,0.55-2.66,1.06-5.3,1.06s-3.93-0.52-5.3-1.06c-1.06-0.43-2.17-0.86-3.79-1.08v-4.99v-1.2h52.65
			v1.2H151.24z M158.42,111.77c0,1.97-1.62,3.59-3.59,3.59h-1.2v-1.24v-2.39v-5.94h4.79V111.77z"/>
		<path class="st3" d="M151.24,144.08v-2.39c0-0.66-0.54-1.2-1.2-1.2h-1.87c0.42-0.71,0.67-1.52,0.67-2.39
			c0-2.32-3.24-6.06-3.9-6.79c-0.44-0.5-1.33-0.5-1.77,0c-0.66,0.73-3.9,4.46-3.9,6.79c0,0.87,0.25,1.69,0.67,2.39h-1.87
			c-0.66,0-1.2,0.54-1.2,1.2v2.39h-4.79v-2.39c0-0.66-0.54-1.2-1.2-1.2h-1.87c0.42-0.71,0.67-1.52,0.67-2.39
			c0-2.32-3.24-6.06-3.9-6.79c-0.44-0.5-1.33-0.5-1.77,0c-0.66,0.73-3.9,4.46-3.9,6.79c0,0.87,0.25,1.69,0.67,2.39h-1.87
			c-0.66,0-1.2,0.54-1.2,1.2v2.39h-4.79v-2.39c0-0.66-0.54-1.2-1.2-1.2h-1.87c0.42-0.71,0.67-1.52,0.67-2.39
			c0-2.32-3.24-6.06-3.9-6.79c-0.44-0.5-1.33-0.5-1.77,0c-0.66,0.73-3.9,4.46-3.9,6.79c0,0.87,0.25,1.69,0.67,2.39h-1.87
			c-0.66,0-1.2,0.54-1.2,1.2v2.39c-0.66,0-1.2,0.54-1.2,1.2v3.59c0,0.66,0.54,1.2,1.2,1.2h52.65c0.66,0,1.2-0.54,1.2-1.2v-3.59
			C152.43,144.62,151.9,144.08,151.24,144.08z M144.06,133.96c1.27,1.59,2.39,3.39,2.39,4.13c0,1.32-1.08,2.39-2.39,2.39
			c-1.32,0-2.39-1.08-2.39-2.39C141.66,137.33,142.79,135.54,144.06,133.96z M139.27,142.88h9.57v1.2h-9.57L139.27,142.88
			L139.27,142.88z M124.91,133.96c1.27,1.59,2.39,3.39,2.39,4.13c0,1.32-1.08,2.39-2.39,2.39s-2.39-1.08-2.39-2.39
			C122.52,137.33,123.64,135.54,124.91,133.96z M120.12,142.88h9.57v1.2h-9.57V142.88z M105.76,133.96
			c1.27,1.59,2.39,3.39,2.39,4.13c0,1.32-1.08,2.39-2.39,2.39s-2.39-1.08-2.39-2.39C103.37,137.33,104.49,135.54,105.76,133.96z
			 M100.98,142.88h9.57v1.2h-9.57V142.88z M150.04,147.67H99.78v-1.2h50.26V147.67z"/>
		<rect x="105.76" y="117.75" class="st3" width="2.39" height="2.39"/>
		<rect x="112.94" y="121.34" class="st3" width="2.39" height="2.39"/>
		<rect x="118.93" y="115.36" class="st3" width="2.39" height="2.39"/>
		<rect x="128.5" y="120.14" class="st3" width="2.39" height="2.39"/>
		<rect x="140.47" y="114.16" class="st3" width="2.39" height="2.39"/>
		<rect x="136.88" y="121.34" class="st3" width="2.39" height="2.39"/>
		<path class="st3" d="M129.05,91.42c-2.31,0-4.19,1.88-4.19,4.19v0.6h2.39v-0.6c0-0.99,0.81-1.8,1.79-1.8
			c2.31,0,4.19-1.88,4.19-4.19v-1.79h-2.39v1.79C130.84,90.62,130.04,91.42,129.05,91.42z"/>
		<path class="st3" d="M138.62,91.42c-2.31,0-4.19,1.88-4.19,4.19v0.6h2.39v-0.6c0-0.99,0.81-1.8,1.8-1.8
			c2.31,0,4.19-1.88,4.19-4.19v-1.79h-2.39v1.79C140.41,90.62,139.61,91.42,138.62,91.42z"/>
		<path class="st3" d="M144,95.61v0.6h2.39v-0.6c0-0.99,0.81-1.8,1.8-1.8c2.31,0,4.19-1.88,4.19-4.19v-1.79h-2.39v1.79
			c0,0.99-0.81,1.8-1.8,1.8C145.88,91.42,144,93.3,144,95.61z"/>
		<path class="st3" d="M108.46,84.92l8.27,8.63c0.22,0.24,0.53,0.37,0.84,0.37c0.11,0.01,0.23-0.01,0.34-0.04
			c0.2-0.05,0.37-0.15,0.53-0.3l8.63-8.27c1.87-1.79,2.6-4.43,2-6.89l16.24-15.58c0.69-0.67,1.08-1.56,1.1-2.52s-0.33-1.87-1-2.56
			c-1.38-1.43-3.65-1.47-5.08-0.11L124.1,73.24c-2.45-0.71-5.11-0.07-6.98,1.71l-8.63,8.29c-0.36,0.34-0.46,0.85-0.29,1.29
			C108.26,84.67,108.35,84.8,108.46,84.92z M118.78,76.67c1.37-1.32,3.39-1.69,5.15-0.97c0.44,0.19,0.94,0.1,1.29-0.24L142,59.38
			c0.15-0.15,0.33-0.25,0.52-0.3c0.4-0.11,0.87,0.01,1.18,0.33c0.22,0.23,0.34,0.53,0.33,0.85c0,0.32-0.13,0.62-0.36,0.84
			l-16.78,16.09c-0.34,0.34-0.46,0.84-0.29,1.28c0.66,1.79,0.2,3.8-1.17,5.11l-4.32,4.14l-6.63-6.91L118.78,76.67z M112.74,82.47
			l6.63,6.91l-1.73,1.66l-6.63-6.91L112.74,82.47z"/>
	</g>
</g>
<g id="Layer_3" class="st0">
	<g class="st1">
		<path d="M65.77,118.53c-5.34,0.85-9.32,3.48-10.93,7.23c-1.15,2.68-1.02,5.49-0.9,8.21c0.08,1.75,0.15,3.39-0.1,4.97
			c-1.47,9.3-8.2,13.02-14.71,15.59c-3.54-4.88-6.6-9.05-8.04-10.99c0.36-0.37,0.61-0.84,0.72-1.36c0.15-0.72,0.01-1.46-0.4-2.08
			l-0.29-0.44c-0.45-0.68-1.14-1.08-1.89-1.2c-0.03-1.83-0.81-3.89-2.31-5.65c-2.35-2.77-6.37-3.93-9.09-4.09l-2.87-0.17l1.51,2.45
			c0.52,0.85,0.55,2.23,0.58,3.69c0.06,2.79,0.16,6.82,4.71,8.54c-0.26,0.78-0.19,1.66,0.3,2.4l0.29,0.44
			c0.41,0.62,1.03,1.04,1.75,1.19c0.19,0.04,0.38,0.06,0.56,0.06c0.34,0,0.66-0.07,0.98-0.19l6.11,10.32
			c-0.5,0.25-0.94,0.49-1.32,0.74c-2.74,1.79-4.3,3.86-4.64,6.15c-0.19,1.29,0.01,2.68,0.6,4.25c1.57,4.15,5.12,7.74,9.98,10.09
			c3.36,1.62,6.93,2.53,10.48,3.28c0.22,0.33,0.45,0.68,0.66,0.99c3.32,4.9,6.42,7.54,8.77,7.54c0.52,0,1-0.13,1.44-0.38
			c1.72-1.01,1.86-3.52,0.5-7c9.38-0.26,21.69-2.97,30.42-9.77c6.92-5.4,10.65-12.5,11.07-21.1c0.47-9.66-2.5-18.16-8.6-24.59
			C84.42,120.6,74.71,117.12,65.77,118.53z M20.05,134.62c-0.02-0.85-0.04-1.71-0.15-2.55c1.77,0.46,3.62,1.35,4.74,2.67
			c1.79,2.11,1.89,4.31,1.27,5.03l-1.59,1.05C20.19,140.08,20.13,137.89,20.05,134.62z M28.66,145.29
			c1.58,2.14,5.18,7.04,9.21,12.61c1.62,2.23,3.31,4.58,4.97,6.92c1.15,1.61,2.27,3.19,3.36,4.74c-0.79,0.14-1.62,0.22-2.47,0.23
			c-0.35,0-0.7-0.03-1.05-0.06c-0.98-1.59-1.97-3.21-2.96-4.85c-1.42-2.35-2.84-4.7-4.17-6.92l-7.33-12.38L28.66,145.29z
			 M49.17,168.58c-0.86-1.23-1.75-2.49-2.66-3.77c2.42,0.51,3.91,1.59,3.91,2.37C50.42,167.6,49.94,168.13,49.17,168.58z
			 M37.26,166.61c0.41,0.68,0.83,1.36,1.24,2.03c-0.88-0.48-1.44-1.06-1.44-1.52C37.05,166.97,37.13,166.79,37.26,166.61z
			 M56.14,187.45c-0.62-0.14-2.4-1.12-5.07-4.69c1.18,0.17,2.48,0.27,3.89,0.33C56.12,185.58,56.23,186.96,56.14,187.45z
			 M96.71,152.09c-0.38,7.69-3.71,14.04-9.92,18.88c-11.1,8.66-28.42,10.26-36.62,8.61c-4.23-0.85-8.61-1.72-12.48-3.6
			c-4.17-2.02-7.19-5.02-8.48-8.45c-0.41-1.08-0.55-1.98-0.44-2.75c0.21-1.41,1.32-2.78,3.31-4.07c0.33-0.22,0.73-0.43,1.22-0.66
			c0.77,1.28,1.56,2.59,2.36,3.93c-1.03,0.9-1.6,1.98-1.6,3.16c-0.01,1.7,1.13,3.21,3.2,4.27c1.75,0.89,4.04,1.39,6.46,1.4
			c0.02,0,0.05,0,0.07,0c2.39,0,4.66-0.48,6.39-1.34c2.08-1.04,3.23-2.55,3.24-4.25c0.01-3.13-3.93-5.51-9.24-5.65
			c-1.09-1.53-2.18-3.04-3.25-4.52c7.48-3.08,14.28-7.58,15.87-17.62c0.3-1.87,0.21-3.75,0.13-5.57c-0.11-2.49-0.22-4.85,0.66-6.89
			c1.17-2.74,4.4-4.77,8.64-5.44c7.99-1.26,16.68,1.88,22.69,8.21C94.45,135.53,97.14,143.27,96.71,152.09z"/>
		<path d="M75.42,138.36c0.46,0,0.93-0.05,1.4-0.16c3.43-0.77,5.59-4.19,4.82-7.62c-0.37-1.66-1.37-3.08-2.81-3.99
			c-1.44-0.91-3.15-1.21-4.81-0.83c-1.66,0.37-3.08,1.37-3.99,2.81c-0.91,1.44-1.21,3.15-0.83,4.81
			C69.87,136.34,72.5,138.36,75.42,138.36z M72.57,130.18c0.48-0.76,1.23-1.29,2.11-1.49c0.25-0.06,0.5-0.08,0.75-0.08
			c0.63,0,1.25,0.18,1.8,0.52c0.76,0.48,1.29,1.23,1.49,2.11c0.41,1.81-0.74,3.62-2.55,4.03c-1.81,0.41-3.62-0.74-4.03-2.55
			C71.93,131.85,72.09,130.94,72.57,130.18z"/>
		<path d="M85.66,138.53c-3.43,0.77-5.59,4.19-4.82,7.62c0.37,1.66,1.37,3.08,2.81,3.99c1.03,0.65,2.2,0.99,3.4,0.99
			c0.47,0,0.94-0.05,1.41-0.16c1.66-0.37,3.08-1.37,3.99-2.81c0.91-1.44,1.21-3.15,0.83-4.81C92.5,139.92,89.09,137.76,85.66,138.53
			z M90.35,144c0.2,0.88,0.04,1.78-0.44,2.54s-1.23,1.29-2.11,1.49c-0.88,0.2-1.78,0.04-2.54-0.44s-1.29-1.23-1.49-2.11
			c-0.41-1.81,0.74-3.62,2.55-4.03c0.25-0.06,0.5-0.08,0.74-0.08C88.6,141.37,89.99,142.44,90.35,144z"/>
		<path d="M88.09,156c-1.3-0.83-2.85-1.09-4.36-0.75s-2.79,1.24-3.61,2.55s-1.09,2.85-0.75,4.36c0.6,2.68,2.99,4.51,5.64,4.51
			c0.42,0,0.84-0.05,1.27-0.14c3.11-0.7,5.07-3.8,4.37-6.9C90.3,158.1,89.4,156.82,88.09,156z M85.61,163.58
			c-1.5,0.33-2.98-0.61-3.32-2.1c-0.16-0.72-0.03-1.47,0.36-2.09c0.4-0.63,1.01-1.06,1.74-1.22c0.2-0.05,0.41-0.07,0.61-0.07
			c0.52,0,1.03,0.15,1.48,0.43c0.63,0.4,1.06,1.01,1.22,1.74C88.05,161.76,87.11,163.25,85.61,163.58z"/>
		<path d="M71.81,166.69c-2.48,0.56-4.04,3.03-3.48,5.5c0.48,2.14,2.39,3.6,4.49,3.6c0.33,0,0.67-0.04,1.01-0.11
			c2.48-0.56,4.04-3.03,3.48-5.5C76.76,167.69,74.29,166.13,71.81,166.69z M73.17,172.75c-0.87,0.2-1.73-0.35-1.92-1.21
			s0.35-1.73,1.21-1.92c0.12-0.03,0.24-0.04,0.35-0.04c0.73,0,1.4,0.51,1.57,1.25C74.58,171.69,74.04,172.56,73.17,172.75z"/>
		<path d="M160.17,122.51h-0.86V70.05c0-2.21-1.8-4-4-4h-19.08v-5.61c0-0.41-0.18-1.75-2.45-1.75h-2.06c-2.27,0-2.45,1.34-2.45,1.75
			v5.61h-18.3c-2.21,0-4,1.8-4,4v52.47h-0.86c-1.91,0-3.47,1.56-3.47,3.47v0.81c0,1.91,1.55,3.47,3.47,3.47h5.71l-5.69,25.51
			c-0.15,0.69-0.03,1.39,0.35,1.99s0.96,1.01,1.65,1.16l2.41,0.54c0.19,0.04,0.39,0.06,0.58,0.06c0.5,0,0.98-0.14,1.41-0.41
			c0.6-0.38,1.01-0.96,1.16-1.65l6.07-27.2h9.01v22.18c0,1.37,1.18,2.48,2.64,2.48h2.47c1.45,0,2.64-1.11,2.64-2.48v-22.18h9.12
			l6.07,27.19c0.27,1.23,1.37,2.06,2.58,2.06c0.19,0,0.38-0.02,0.58-0.06l2.41-0.54c0.69-0.15,1.28-0.57,1.65-1.16
			s0.5-1.3,0.35-1.99l-5.69-25.51h6.62c1.91,0,3.47-1.55,3.47-3.47v-0.81C163.64,124.07,162.08,122.51,160.17,122.51z M132.26,61.69
			h0.96v4.36h-0.96V61.69z M109.96,70.05c0-0.55,0.45-1,1-1h44.35c0.55,0,1,0.45,1,1v52.47h-46.35V70.05z M110.82,156.45l-1.7-0.38
			l5.76-25.81h1.79L110.82,156.45z M133.49,151.92h-1.75v-21.66h1.75V151.92z M156.24,156.07l-1.7,0.38l-5.85-26.19h1.79
			L156.24,156.07z M160.64,126.79c0,0.26-0.21,0.47-0.47,0.47h-54.08c-0.26,0-0.47-0.21-0.47-0.47v-0.81c0-0.26,0.21-0.47,0.47-0.47
			h0.86h52.35h0.86c0.26,0,0.47,0.21,0.47,0.47v0.81H160.64z"/>
		<path d="M228.35,145.07l1.01-12.56h-0.01c0-0.04,0.01-0.08,0.01-0.12c0-2.79-3.76-4.93-11.16-6.37l1.47-11.7
			c0.52-0.02,1.03-0.19,1.46-0.49c0.61-0.43,1.01-1.06,1.14-1.79l0.09-0.52c0.15-0.87-0.13-1.71-0.68-2.32
			c3.48-3.39,1.97-7.12,0.91-9.71c-0.55-1.36-1.08-2.64-0.94-3.62l0.41-2.85l-2.57,1.3c-2.43,1.23-5.65,3.9-6.71,7.38
			c-0.67,2.22-0.58,4.42,0.12,6.11c-0.63,0.4-1.1,1.05-1.24,1.85l-0.09,0.52c-0.13,0.73,0.04,1.46,0.46,2.07
			c0.31,0.44,0.72,0.76,1.2,0.96c-0.49,2.15-1.49,6.54-2.65,11.76c-1.07-0.1-2.16-0.2-3.29-0.27l-3.45-0.17
			c-0.77-0.03-1.35-0.05-1.97-0.06l-1.3-7.36c0.49-0.18,0.93-0.48,1.25-0.91c0.45-0.58,0.65-1.31,0.56-2.04l-0.07-0.52
			c-0.03-0.24-0.1-0.47-0.19-0.69c0.62-1.02,1.24-1.93,1.9-2.88c0.73-1.06,1.49-2.15,2.24-3.42l0.5-0.85l-0.58-0.8
			c-2.19-2.99-6.39-4.48-10.96-3.9c-4.53,0.57-8.19,3.07-9.57,6.51l-0.37,0.92l0.7,0.7c1.04,1.04,2.04,1.91,3.02,2.75
			c0.88,0.76,1.71,1.48,2.56,2.32c-0.03,0.23-0.04,0.47-0.01,0.71l0.07,0.52c0.09,0.73,0.47,1.39,1.05,1.84
			c0.42,0.33,0.92,0.51,1.43,0.56c0.11,1.41,0.28,3.77,0.51,6.69c-3.25,0.15-5.74,0.3-7.52,0.46l-6.4-23
			c-0.17-0.63-0.58-1.15-1.15-1.48c-0.57-0.32-1.23-0.4-1.86-0.23l-8.43,2.35c-0.63,0.18-1.15,0.59-1.47,1.15
			c-0.32,0.57-0.4,1.23-0.23,1.86l6.19,22.13c-3.07,1.24-4.58,2.73-4.58,4.54c0,0.04,0.01,0.08,0.01,0.12h-0.01l4.18,51.86
			c0.14,5.48,16.33,6.95,25.92,6.95s25.78-1.46,25.92-6.94l2.01-24.9c1.32-0.42,2.49-0.93,3.45-1.56c1.67-1.09,2.68-2.44,3.01-4.01
			C234.07,151.86,233.45,148.69,228.35,145.07z M226.36,132.38v0.03c-0.1,0.87-3.33,2.4-9.45,3.53c0.32-2.35,0.63-4.68,0.92-6.93
			C224.62,130.35,226.3,132,226.36,132.38z M215.66,102.56c0.5-1.66,1.84-3.21,3.28-4.34c0.23,0.81,0.55,1.61,0.88,2.4
			c1.24,3.03,2.05,5.06-1.43,7.39l-1.88-0.33C215.64,107.26,214.85,105.21,215.66,102.56z M216.17,113.83l0.53,0.09l-1.79,14.28
			c-0.33,2.57-0.69,5.29-1.07,8.02l-0.03,0.21c-0.87,0.12-1.77,0.23-2.73,0.34c0.55-2.6,1.12-5.2,1.67-7.69
			C214.23,122.36,215.58,116.42,216.17,113.83z M203.74,127.51l3.39,0.17c0.95,0.06,1.89,0.14,2.82,0.23
			c-0.04,0.17-0.08,0.35-0.11,0.52c-0.59,2.7-1.21,5.53-1.8,8.34l-0.06,0.28c-1.23,0.09-2.52,0.16-3.87,0.21
			c-0.34-2.04-0.69-4.07-1.02-6.02l-0.67-3.77C202.81,127.47,203.23,127.49,203.74,127.51z M198.67,137.34
			c-0.12-1.39-0.24-2.78-0.35-4.13c-0.57-6.85-1.03-12.92-1.23-15.57l0.53-0.07l2.5,14.17c0.31,1.8,0.63,3.68,0.95,5.58
			c-0.6,0.01-1.18,0.02-1.8,0.02C199.06,137.35,198.87,137.34,198.67,137.34z M188.88,107.83c1.22-1.98,3.7-3.39,6.72-3.78
			c3.01-0.38,5.84,0.38,7.52,1.97c-0.5,0.8-1.02,1.54-1.55,2.31c-0.62,0.9-1.27,1.84-1.9,2.87c-0.15-0.01-0.29-0.01-0.44,0.01
			l-5.28,0.67c-0.15,0.02-0.29,0.06-0.43,0.1c-0.87-0.84-1.73-1.59-2.56-2.3C190.25,109.07,189.57,108.48,188.88,107.83z
			 M194.85,127.59c0.15,1.85,0.31,3.82,0.48,5.88c0.1,1.25,0.21,2.54,0.33,3.83c-1.85-0.05-3.59-0.14-5.23-0.26l-2.52-9.04
			C189.61,127.85,191.91,127.72,194.85,127.59z M177.95,103.39l9.28,33.35c-3.28-0.36-6.04-0.83-8.26-1.36l-0.21-0.75l2.65-0.74
			c0.8-0.22,1.26-1.05,1.04-1.85s-1.05-1.26-1.85-1.04l-2.66,0.74l-1.99-7.12l2.66-0.74c0.8-0.22,1.26-1.05,1.04-1.85
			c-0.22-0.8-1.05-1.27-1.85-1.04l-2.67,0.74l-2.01-7.18l2.67-0.74c0.8-0.22,1.26-1.05,1.04-1.85c-0.22-0.8-1.05-1.27-1.85-1.04
			l-2.68,0.75l-1.74-6.22L177.95,103.39z M174.56,130.76l1.02,3.66c-2.19-0.76-3.36-1.5-3.42-2.01v-0.02
			C172.19,132.21,172.69,131.56,174.56,130.76z M222.19,184.24c-0.52,1.42-8.86,4.07-22.93,4.07s-22.4-2.65-22.92-4.02l-3.86-47.97
			c6.06,3.09,19.01,4.02,26.78,4.02c7.78,0,20.72-0.93,26.78-4.02l-1.67,20.79c-4.33,0.91-10.64,0.95-18.18-0.69
			c-15.03-3.26-21.44-13.53-21.51-13.63c-0.43-0.71-1.35-0.94-2.06-0.51c-0.71,0.43-0.94,1.35-0.51,2.06
			c0.28,0.47,7.09,11.46,23.44,15.01c4.24,0.92,8.39,1.37,12.14,1.37c2.32,0,4.48-0.18,6.42-0.53L222.19,184.24z M230.71,153.3
			c-0.16,0.76-0.73,1.47-1.71,2.1c-0.44,0.28-0.96,0.55-1.55,0.8l0.61-7.55C230,150.34,230.97,152,230.71,153.3z"/>
	</g>
</g>
<g id="Layer_2_1_" class="st0">
	<g class="st1">
		<g>
			<path d="M133.38,130.93c0.03-0.3,0.06-0.6,0.06-0.89c0-5.85-5.03-10.61-11.22-10.61c-4.14,0-7.75,2.14-9.69,5.3
				c-1.14-0.49-2.38-0.75-3.64-0.75c-4.35,0-7.96,3.01-8.66,6.95c-3.52,0.62-6.19,3.55-6.19,7.07c0,3.97,3.4,7.2,7.58,7.2h30.31
				c4.18,0,7.58-3.23,7.58-7.2C139.5,134.49,136.86,131.57,133.38,130.93z M131.92,142.16h-30.31c-2.51,0-4.55-1.87-4.55-4.17
				c0-1.88,1.37-3.45,3.24-3.97c0.19,0.87,0.52,1.72,0.99,2.49l2.58-1.59c-0.49-0.79-0.75-1.7-0.75-2.61c0-2.92,2.58-5.3,5.76-5.3
				c0.86,0,1.69,0.17,2.46,0.51c-0.21,0.81-0.33,1.65-0.33,2.52h3.03c0-4.18,3.67-7.58,8.18-7.58s8.18,3.4,8.18,7.58
				c0,0.31-0.02,0.62-0.06,0.93c-1.05,0.21-2.05,0.62-2.93,1.24l1.74,2.48c0.8-0.56,1.76-0.86,2.77-0.86c2.51,0,4.55,1.87,4.55,4.17
				S134.43,142.16,131.92,142.16z"/>
			<path d="M177.29,66.5c0.07-0.54,0.1-1.09,0.1-1.64c0-7.52-6.12-13.64-13.64-13.64c-5.17,0-9.68,2.9-12,7.15
				c-1.45-0.71-3.04-1.09-4.68-1.09c-5.85,0-10.61,4.76-10.61,10.61c0,1.86,0.49,3.7,1.42,5.31l2.62-1.52
				c-0.66-1.15-1.01-2.46-1.01-3.79c0-4.18,3.4-7.58,7.58-7.58c1.25,0,2.45,0.32,3.54,0.9c-0.32,1.16-0.51,2.38-0.51,3.65h3.03
				c0-5.85,4.76-10.61,10.61-10.61s10.61,4.76,10.61,10.61c0,0.56-0.06,1.12-0.15,1.67c-1.37,0.25-2.66,0.81-3.79,1.66l1.82,2.42
				c1.06-0.79,2.31-1.21,3.64-1.21c3.34,0,6.06,2.72,6.06,6.06s-2.72,6.06-6.06,6.06h-33.34v3.03h33.34c5.01,0,9.09-4.08,9.09-9.09
				C184.97,70.94,181.63,67.18,177.29,66.5z"/>
			<path d="M153.14,90.63h-11.15l-9.09-19.7h-7.15l1.52,19.7h-20.2l-7.58-13.64H91v13.64v1.52v1.52h0.08
				c0.77,8.48,7.91,15.16,16.59,15.16h19.58l-0.69,8.98l3.02,0.23l0.71-9.21h8.35l-6,13l2.75,1.27l6.59-14.27h27.83v-1.52
				C169.81,98.11,162.33,90.63,153.14,90.63z M129.01,73.96h1.94l7.69,16.67h-8.35L129.01,73.96z M94.03,80.02h3.65l5.89,10.61
				h-9.55V80.02H94.03z M94.12,93.66h57.51v12.12h-43.95C100.67,105.78,94.88,100.47,94.12,93.66z M154.66,105.78V93.75
				c6.31,0.7,11.34,5.72,12.04,12.03H154.66z"/>
			<rect x="103.13" y="98.21" width="6.06" height="3.03"/>
			<rect x="115.25" y="98.21" width="6.06" height="3.03"/>
			<rect x="127.38" y="98.21" width="6.06" height="3.03"/>
			<rect x="139.5" y="98.21" width="6.06" height="3.03"/>
		</g>
		<g>
			<path d="M38.08,192.14c2.93,0,5.31-2.38,5.31-5.31s-2.38-5.31-5.31-5.31s-5.31,2.38-5.31,5.31S35.15,192.14,38.08,192.14z
				 M38.08,184.18c1.46,0,2.65,1.19,2.65,2.65s-1.19,2.65-2.65,2.65s-2.65-1.19-2.65-2.65S36.61,184.18,38.08,184.18z"/>
			<path d="M72.57,181.53c-2.93,0-5.31,2.38-5.31,5.31s2.38,5.31,5.31,5.31s5.31-2.38,5.31-5.31S75.5,181.53,72.57,181.53z
				 M72.57,189.49c-1.46,0-2.65-1.19-2.65-2.65s1.19-2.65,2.65-2.65s2.65,1.19,2.65,2.65S74.04,189.49,72.57,189.49z"/>
			<path d="M38.08,140.39h5.31v2.65h2.65v-2.65h13.27v2.65h2.65v-2.65h13.27v2.65h2.65v-2.65h5.31c3.66,0,6.63-2.98,6.63-6.63
				v-10.61c0-3.66-2.98-6.63-6.63-6.63H38.08c-3.66,0-6.63,2.98-6.63,6.63v10.61C31.44,137.42,34.42,140.39,38.08,140.39z
				 M67.27,137.74H54v-18.58h13.27C67.27,119.16,67.27,137.74,67.27,137.74z M69.92,119.17h2.65v18.58h-2.65V119.17z M51.34,137.74
				h-2.65v-18.58h2.65V137.74z M87.17,123.15v10.61c0,2.2-1.79,3.98-3.98,3.98h-7.96v-18.58h7.96
				C85.38,119.17,87.17,120.95,87.17,123.15z M34.1,123.15c0-2.2,1.79-3.98,3.98-3.98h7.96v18.58h-7.96c-2.2,0-3.98-1.79-3.98-3.98
				V123.15z"/>
			<path d="M95.13,156.32c-0.96,0-1.86,0.28-2.64,0.73c0-0.71,0-1.4,0-2.06c0-5.12-4.16-9.28-9.28-9.28H40.66
				c-2.93,0-5.47,1.88-6.34,4.68l-3.9,12.67l-6.35,0.71c-3.37,0.37-5.9,3.21-5.9,6.59v16.48c0,2.2,1.79,3.98,3.98,3.98h1.33v-2.65
				h-1.33c-0.73,0-1.33-0.59-1.33-1.33v-1.33h5.39c-0.05,0.44-0.08,0.88-0.08,1.33c0,6.59,5.36,11.94,11.94,11.94
				c5.19,0,9.6-3.33,11.25-7.96h8.66v-2.65h-8.04c0.05-0.44,0.08-0.88,0.08-1.33s-0.03-0.89-0.08-1.33h10.77
				c-0.05,0.44-0.08,0.88-0.08,1.33c0,6.59,5.36,11.94,11.94,11.94s11.94-5.36,11.94-11.94v-29.19c0-2.19-1.79-3.98-3.98-3.98H41.78
				c-1.24,0-2.3,0.84-2.58,2.04l-4.64,19.72c-3.6,1.11-6.47,3.89-7.73,7.43h-6v-12.5c0-2.03,1.52-3.73,3.54-3.96l8.09-0.9
				l4.41-14.34c0.52-1.68,2.04-2.81,3.8-2.81h42.55c3.65,0,6.63,2.97,6.63,6.63c0,1.95,0,4.16,0,6.48c0,0.05-0.02,0.1-0.02,0.16
				v15.92c0,0.03,0.01,0.06,0.01,0.09c0,1.89,0,3.65,0,5.22h-2.66v2.65h2.66c0,0.48,0,0.93,0,1.34c0,0.73-0.6,1.32-1.33,1.32h-1.33
				v2.65h1.33c2.19,0,3.98-1.78,3.98-3.97c0-1.24,0-2.86,0-4.73c0.78,0.45,1.68,0.73,2.65,0.73c2.93,0,5.31-2.38,5.31-5.31v-15.92
				C100.44,158.7,98.06,156.32,95.13,156.32z M72.57,196.12c-5.12,0-9.29-4.17-9.29-9.29s4.17-9.29,9.29-9.29s9.29,4.17,9.29,9.29
				S77.69,196.12,72.57,196.12z M81.86,157.64v6.63h-19.9v-7.96h18.58C81.27,156.32,81.86,156.91,81.86,157.64z M56.65,164.28v-7.96
				h2.65v7.96H56.65z M54,156.32v7.96H39.91l1.87-7.96H54z M39.28,166.93h17.37v13.27h2.65v-13.27h22.56v12.41
				c-2.19-2.71-5.54-4.45-9.29-4.45c-5.19,0-9.6,3.33-11.25,7.96h-12c-1.64-4.63-6.06-7.96-11.25-7.96c-0.23,0-0.45,0.02-0.67,0.03
				L39.28,166.93z M38.08,177.55c5.12,0,9.29,4.17,9.29,9.29s-4.17,9.29-9.29,9.29s-9.29-4.17-9.29-9.29S32.96,177.55,38.08,177.55z
				 M97.78,177.55c0,1.46-1.19,2.65-2.65,2.65c-1.43,0-2.59-1.14-2.64-2.56c0-5.02,0.01-10.9,0.01-16.17
				c0.08-1.39,1.23-2.49,2.64-2.49c1.46,0,2.65,1.19,2.65,2.65v15.92H97.78z"/>
		</g>
		<g>
			<path d="M225.19,133.07h-13.27v-6.63c0-3.66-2.98-6.63-6.63-6.63H176.1c-3.66,0-6.63,2.98-6.63,6.63v6.63H156.2
				c-3.66,0-6.63,2.98-6.63,6.63v47.77c0,3.66,2.98,6.63,6.63,6.63h69c3.66,0,6.63-2.98,6.63-6.63V139.7
				C231.83,136.05,228.85,133.07,225.19,133.07z M213.25,170.22h5.31c0.73,0,1.33,0.59,1.33,1.33v7.96c0,0.73-0.59,1.33-1.33,1.33
				h-5.31c-0.73,0-1.33-0.59-1.33-1.33v-7.96C211.92,170.82,212.52,170.22,213.25,170.22z M217.23,167.57h-2.65v-31.84h2.65V167.57z
				 M209.27,126.44v6.63h-2.65v-5.31c0-1.46-1.19-2.65-2.65-2.65v-2.65h1.33C207.48,122.46,209.27,124.24,209.27,126.44z
				 M180.08,125.11v-2.65h21.23v2.65H180.08z M203.96,127.76v5.31h-26.54v-5.31C177.42,127.76,203.96,127.76,203.96,127.76z
				 M172.12,126.44c0-2.2,1.79-3.98,3.98-3.98h1.33v2.65c-1.46,0-2.65,1.19-2.65,2.65v5.31h-2.65v-6.63H172.12z M162.83,170.22h5.31
				c0.73,0,1.33,0.59,1.33,1.33v7.96c0,0.73-0.59,1.33-1.33,1.33h-5.31c-0.73,0-1.33-0.59-1.33-1.33v-7.96
				C161.5,170.82,162.1,170.22,162.83,170.22z M166.81,167.57h-2.65v-31.84h2.65V167.57z M229.17,187.47c0,2.2-1.79,3.98-3.98,3.98
				h-5.31v-5.31h-2.65v5.31h-2.65v-5.31h-2.65v5.31h-42.46v-5.31h-2.65v5.31h-2.65v-5.31h-2.65v5.31h-5.31
				c-2.2,0-3.98-1.79-3.98-3.98V139.7c0-2.2,1.79-3.98,3.98-3.98h5.31v32.09c-1.54,0.55-2.65,2.01-2.65,3.74v7.96
				c0,2.2,1.79,3.98,3.98,3.98h5.31c2.2,0,3.98-1.79,3.98-3.98v-7.96c0-1.73-1.11-3.19-2.65-3.74v-32.09h42.46v32.09
				c-1.54,0.55-2.65,2.01-2.65,3.74v7.96c0,2.2,1.79,3.98,3.98,3.98h5.31c2.2,0,3.98-1.79,3.98-3.98v-7.96
				c0-1.73-1.11-3.19-2.65-3.74v-32.09h5.31c2.2,0,3.98,1.79,3.98,3.98v47.77H229.17z"/>
			<path d="M189.37,145.01h-15.92v10.61h15.92V145.01z M186.71,152.97H176.1v-5.31h10.61V152.97z"/>
			<path d="M186.41,168.55l2.7,9.92l15.16-3.92l-2.7-9.92L186.41,168.55z M190.98,175.25l-1.31-4.8l10.02-2.59l1.31,4.8
				L190.98,175.25z"/>
		</g>
	</g>
</g>
</svg>
