<?xml version="1.0" encoding="utf-8"?>
<!-- Generator: Adobe Illustrator 25.0.0, SVG Export Plug-In . SVG Version: 6.00 Build 0)  -->
<svg version="1.1" id="Layer_1" xmlns="http://www.w3.org/2000/svg" xmlns:xlink="http://www.w3.org/1999/xlink" x="0px" y="0px"
	 viewBox="0 0 1100 400" style="enable-background:new 0 0 1100 400;" xml:space="preserve">
<style type="text/css">
	.st0{fill:none;stroke:#94A2BB;stroke-width:2;stroke-miterlimit:10;}
	.st1{fill:none;stroke:#C6CEDC;stroke-width:2;stroke-miterlimit:10;}
	.st2{fill:none;stroke:#445A81;stroke-width:2;stroke-miterlimit:10;}
	.st3{fill:#C6CEDC;stroke:#94A2BB;stroke-width:2;stroke-miterlimit:10;}
	.st4{fill:#283F69;stroke:#94A2BB;stroke-width:2;stroke-miterlimit:10;}
	.st5{fill:#94A2BB;stroke:#445A81;stroke-width:2;stroke-miterlimit:10;}
	.st6{fill:#C6CEDC;}
	.st7{fill:#94A2BB;}
	.st8{fill:none;stroke:#283F69;stroke-width:2;stroke-miterlimit:10;}
	.st9{fill:#283F69;}
	.st10{fill:#445A81;}
	.st11{display:none;}
	.st12{display:inline;}
</style>
<g>
	<path class="st0" d="M1100,324.17c-15.43,0.39-31.69-0.39-48.05-4.28c-34.08-8.1-54.35-28.14-90.36-33.88
		c-66.22-10.56-50.24,12.59-89.92,25.24c-33.28,10.61-59.01-1.09-94.46-1.75c-54.55-1.03-37.75,9.69-72.48,21.49
		c-63.44,21.57-163.72-18.92-190.06,35.03c-6.85,14.03-6.87,25.15-1.77,33.98"/>
	<path class="st1" d="M728.36,0c-6.1,10.34-18.17,18.08-41.7,28.18c-26.19,11.26-49.38,25.81-82.44,27.17
		c-0.37,0.02-0.72,0.04-1.09,0.05c-4.75,0.15-9.61,0.13-14.53-0.03c-27.75-0.86-57.9-5.76-86.05-5.59
		c-45.5,0.26-64.84-2.92-90.08-25.75C406.5,18.62,397.55,9.46,392.19,0"/>
	<path class="st0" d="M0,262.63c76.09,3.11,98.5-28.15,103.42-48.72c5.51-23.05-21.11-34.89,7.64-64.72
		c21.62-22.43,21.98-31.31,7.68-57.08C100.1,58.52,104.85,39,170.49,48.95c55.89,8.47,89.15-2.97,133.52-16.94
		C364.25,13.04,518.18,56.12,508.89,0"/>
	<path class="st2" d="M766.01,0c-2.29,2.71-5.11,5.91-9.2,9.86c-18.66,18.02-48.32,39.88-24.32,62.49
		c24.85,23.4,71.5,19.84,113.23,24.33c76.07,8.19,70.93,43.36,131.06,60.97c52.89,15.49,94.36-6.18,123.23-37.47"/>
	<path class="st1" d="M1100,218.01c-10.73-3.33-23.02-5.48-36.57-6.08c-57.43-2.55-92.35,18.81-104.9,47.04
		c-9.41,21.18,31.74,72.24,14.75,86.62c-30.23,25.59-50.5-16.36-90.44-18.18c-38.6-1.76-34.52,23.54-57.72,30.12
		c-36.31,10.31-65.22-22.64-121.19-8.43c-20.01,5.08-34.44,17.16-56.57,18.88c-58.34,4.54-112.59-26.43-174.78-22.5
		c-49.46,3.13-108.64,24.36-88.8,54.52"/>
	<path class="st1" d="M0,308.72c19.81-0.33,40.51-2.94,62.36-8.18c29.86-7.15,56.39-20.37,91.46-13.39
		c20.4,4.06,19.9,12.02,43.05,13.86c48.55,3.85,140.74-35.62,171.79,7.06c18.19,24.99-24.98,34.66-53.17,46.83
		c-31.81,13.74-49.81,24.59-54.33,45.1"/>
	<g>
		<path class="st3" d="M123.19,165.33c-0.67,7.35-0.15,13.94,0.35,20.32c1.7,21.69,2.92,37.36-47.23,52.41
			c-18.19,5.46-36.26,7.71-54.47,7.71c-7.25,0-14.52-0.35-21.84-1v-0.8c25.51,2.28,50.45,0.96,75.59-6.58
			c49.37-14.82,48.15-30.3,46.48-51.7c-0.5-6.4-1.03-13.01-0.35-20.4c1.42-15.55,11.15-25.6,20.55-35.32
			c13.01-13.44,25.3-26.14,10.28-51.5c-2.83-4.79-5.9-9.55-8.84-14.15C129.86,42.76,116.6,22.1,126.31,0h1.54
			c-9.77,21.98,3.45,42.57,17.25,64.07c2.95,4.61,6.01,9.37,8.84,14.16c15.21,25.68,2.79,38.51-10.37,52.1
			C134.24,139.98,124.59,149.96,123.19,165.33z"/>
	</g>
	<g>
		<path class="st4" d="M1100,182.89v1.22c-12.76,7.9-29.47,13.97-48.24,17.02c-8.73,1.42-17.41,2.12-25.89,2.12
			c-23.44,0-45.29-5.34-62.3-15.54c-25.27-15.13-17-31.41-8.23-48.63c6.98-13.7,14.18-27.88,5.32-42.66
			c-19.64-32.74-59.87-29.66-102.48-26.39c-22.35,1.71-45.45,3.48-65.99-0.09c-41.55-7.21-42.52-27.96-43.44-48.02
			c-0.35-7.66-0.7-15.17-3.08-21.92h1.39c2.46,6.9,2.8,14.44,3.15,21.9c0.91,19.78,1.86,40.25,42.42,47.29
			c20.21,3.51,43.15,1.75,65.34,0.06c43.22-3.31,84.05-6.44,104.07,26.94c9.01,15.02,1.73,29.3-5.31,43.12
			c-8.65,17.02-16.82,33.08,7.91,47.89c22.78,13.64,54.37,18.45,86.69,13.19C1070.4,197.27,1087.3,191.02,1100,182.89z"/>
	</g>
	<g>
		<path class="st5" d="M586.15,400h-1.88c-39.12-25.48-88.65-35.97-157.49-33.75c-65.16,2.1-82.27-4.67-119.72-19.49
			c-10.05-3.98-21.44-8.49-35.64-13.56c-65.57-23.4-115.27-9.44-178.3,12.83c-29.74,10.51-57.51,15.92-82.51,16.08
			C7,362.14,3.46,362.05,0,361.84v-0.81c3.45,0.22,6.98,0.3,10.59,0.28c24.73-0.16,52.23-5.53,81.74-15.95
			c30.49-10.78,58.09-19.98,87.05-23.58c31.77-3.94,61.28-0.52,92.84,10.75c14.24,5.08,25.65,9.59,35.71,13.58
			c37.17,14.7,54.13,21.42,118.77,19.34C496.53,363.21,546.63,373.94,586.15,400z"/>
	</g>
	<g>
		<path class="st5" d="M1053.39,252.22c-20.61,13.03-12.85,35.47-5.35,57.17c8.15,23.59,16.59,47.98-11,60.87
			c-21.34,9.98-48.11,6.19-76.44,2.18c-22.03-3.11-44.81-6.33-65.12-2.62c-24.87,4.54-44.57,15.12-52.67,28.3
			c-0.38,0.63-0.75,1.26-1.07,1.89h-1.53c0.37-0.71,0.76-1.42,1.2-2.14c8.24-13.42,28.29-24.19,53.59-28.81
			c20.72-3.78,43.72-0.53,65.96,2.61c27.95,3.95,54.35,7.69,75.12-2.02c26.94-12.58,18.6-36.75,10.52-60.12
			c-7.57-21.88-15.39-44.51,5.68-57.83c10-6.32,25.74-10.16,47.73-11.6v0.81C1078.48,242.32,1063.11,246.06,1053.39,252.22z"/>
	</g>
	<path class="st2" d="M394.62,38.38c-17.76-5.25-42.03-5.38-59.23,0.61c-0.02,0-0.04,0.01-0.05,0.01
		c-5.08,1.39-9.69,3.23-14.83,4.58c-6.42,1.68-13.41,2.7-19.73,4.49c-8.47,2.4-12.85,7.37-12.49,12.47
		c0.35,5.03,5.02,10.22,13.06,12.88c11.24,3.72,25,2.69,37.2,1.44c12.56-1.28,24.89-1.06,37.57-0.9
		c12.33,0.15,23.81-1.64,31.01-7.46C418.97,56.89,413.05,43.83,394.62,38.38z"/>
	<path class="st2" d="M680.44,359.74c-7-13.95-42.87-19.58-65.96-16.02c-3.53,0.54-6.34,1.42-8.52,2.52
		c-6.31,1.26-11.34,3.75-13.48,8.03c-7.16,14.37,21.15,24.39,43.43,25.81C658.05,381.48,687.87,374.53,680.44,359.74z"/>
	<path class="st2" d="M809.88,327.97c-0.4-0.11-0.82-0.21-1.24-0.3c-4.79-1.43-10.8-1.6-15.63-0.09c-5.07,1.59-7.7,4.63-7.8,7.74
		c-0.14,4.46,3.85,9.11,10.29,11.82c10.92,4.6,28.31,1.29,28.27-6.82C823.75,335.68,817.58,330.06,809.88,327.97z"/>
	<path class="st2" d="M455.97,284.39c-45.63-0.8-78.59-62.15-109.39-46.22c-9.64,7.31-11.15,29.72-6.31,41.28
		c3.45,8.22,20.55,17.49,32.92,21.83c22.37,7.84,56.71,11.49,82.38,2.2C467.19,299.28,499.35,285.15,455.97,284.39z"/>
	<path class="st0" d="M221.75,74.76c-0.88-3.88-4.78-7.42-11.07-9.4c-2.24-0.71-4.75-1.16-7.24-1.53c-1.84-0.37-3.66-0.72-5.51-0.99
		c-3.15-0.81-6.71-0.9-9.9-0.35c-7.16,0.71-12.54,3.71-14.81,7.51c-4.82,8.07,6.97,14.67,20.78,16.11
		C207.79,87.53,223.76,83.67,221.75,74.76z"/>
	<path class="st0" d="M259.53,80.78c-16.99,0-17.02,14.4,0,14.4C276.52,95.18,276.55,80.78,259.53,80.78z"/>
	<path class="st6" d="M175.34,89.53c-5.66,0-5.67,4.8,0,4.8C181.01,94.33,181.02,89.53,175.34,89.53z"/>
	<path class="st7" d="M438.53,54.33c-5.66,0-5.67,4.8,0,4.8C444.19,59.13,444.2,54.33,438.53,54.33z"/>
	<path class="st8" d="M704.16,32.84c-16.99,0-17.02,14.4,0,14.4C721.15,47.24,721.18,32.84,704.16,32.84z"/>
	<path class="st9" d="M662.38,50.26c-6.61,0-6.62,5.6,0,5.6C668.98,55.86,668.99,50.26,662.38,50.26z"/>
	<path class="st9" d="M714.61,69.78c-3.77,0-3.78,3.2,0,3.2C718.38,72.98,718.39,69.78,714.61,69.78z"/>
	<path class="st8" d="M925.03,146.36c-12.27,0-12.29,10.4,0,10.4C937.29,156.76,937.32,146.36,925.03,146.36z"/>
	<path class="st9" d="M908.61,132.05c-3.77,0-3.78,3.2,0,3.2C912.39,135.25,912.39,132.05,908.61,132.05z"/>
	<path class="st9" d="M865.33,115.36c-3.78,0-3.78,3.2,0,3.2C869.11,118.56,869.11,115.36,865.33,115.36z"/>
	<path class="st9" d="M906.25,149.25c-3.77,0-3.78,3.2,0,3.2C910.02,152.45,910.03,149.25,906.25,149.25z"/>
	<path class="st9" d="M901.44,161.01c-3.77,0-3.78,3.2,0,3.2C905.22,164.21,905.22,161.01,901.44,161.01z"/>
	<path class="st0" d="M933.98,266c-10.38,0-10.4,8.8,0,8.8C944.36,274.8,944.38,266,933.98,266z"/>
	<path class="st7" d="M872.79,295.68c-6.61,0-6.62,5.6,0,5.6C879.4,301.28,879.41,295.68,872.79,295.68z"/>
	<path class="st7" d="M848.17,306.24c-2.83,0-2.84,2.4,0,2.4C851,308.64,851.01,306.24,848.17,306.24z"/>
	<path class="st1" d="M509.29,302.43c-16.04,0-16.07,13.6,0,13.6C525.33,316.03,525.36,302.43,509.29,302.43z"/>
	<path class="st6" d="M524.33,336.79c-6.61,0-6.62,5.6,0,5.6C530.94,342.39,530.95,336.79,524.33,336.79z"/>
	<path class="st6" d="M529.29,325.32c-3.77,0-3.78,3.2,0,3.2C533.07,328.52,533.07,325.32,529.29,325.32z"/>
	<path class="st2" d="M307.76,263.66c-14.16,0-14.18,12,0,12C321.92,275.66,321.94,263.66,307.76,263.66z"/>
	<path class="st10" d="M254.64,223.19c-7.55,0-7.56,6.4,0,6.4C262.19,229.59,262.21,223.19,254.64,223.19z"/>
	<path class="st1" d="M156.25,178.71c-13.21,0-13.23,11.2,0,11.2C169.47,189.91,169.49,178.71,156.25,178.71z"/>
	<path class="st10" d="M174.21,191.54c-3.77,0-3.78,3.2,0,3.2C177.99,194.74,177.99,191.54,174.21,191.54z"/>
	<path class="st6" d="M142.53,173.86c-3.77,0-3.78,3.2,0,3.2C146.31,177.06,146.32,173.86,142.53,173.86z"/>
	<path class="st6" d="M163.35,154.39c-8.49,0-8.51,7.2,0,7.2C171.84,161.59,171.85,154.39,163.35,154.39z"/>
	<path class="st6" d="M154.8,133.4c-3.77,0-3.78,3.2,0,3.2C158.58,136.6,158.58,133.4,154.8,133.4z"/>
	<path class="st7" d="M276.57,49.51c-3.77,0-3.78,3.2,0,3.2C280.34,52.71,280.35,49.51,276.57,49.51z"/>
	<path class="st6" d="M157.64,55.08c-3.77,0-3.78,3.2,0,3.2C161.41,58.28,161.42,55.08,157.64,55.08z"/>
	<path class="st7" d="M1087.29,202.89c-3.77,0-3.78,3.2,0,3.2C1091.07,206.09,1091.07,202.89,1087.29,202.89z"/>
	<path class="st6" d="M139.7,84.79c-3.77,0-3.78,3.2,0,3.2C143.48,87.99,143.48,84.79,139.7,84.79z"/>
	<path class="st2" d="M116.75,225.99c-8.49,0-8.51,7.2,0,7.2C125.24,233.19,125.26,225.99,116.75,225.99z"/>
	<path class="st0" d="M1066.42,162.47c-13.21,0-13.23,11.2,0,11.2C1079.63,173.67,1079.65,162.47,1066.42,162.47z"/>
	<path class="st7" d="M1050.23,185.15c-6.61,0-6.62,5.6,0,5.6C1056.83,190.75,1056.84,185.15,1050.23,185.15z"/>
	<path class="st9" d="M967.23,162.61c-3.78,0-3.78,3.2,0,3.2C971,165.81,971.01,162.61,967.23,162.61z"/>
	<path class="st9" d="M994.55,169.48c-1.89,0-1.89,1.6,0,1.6C996.44,171.08,996.45,169.48,994.55,169.48z"/>
	<path class="st9" d="M1000.63,208.68c-1.89,0-1.89,1.6,0,1.6C1002.52,210.28,1002.52,208.68,1000.63,208.68z"/>
	<path class="st2" d="M0,179.91c16.71,1.45,34.61,1.11,47.46-11.22c22.21-21.29-18.65-45.1-7.19-68.15
		c5.4-10.86,26.09-16.42,32.39-26.39c7.29-11.52,0.72-21.72,3.4-33.66C78.56,29.42,87.96,12.66,101.7,0"/>
	<path class="st0" d="M805.67,0c-6.71,10.52-8.41,21.23-1.89,28.86c19.89,23.24,66.01,15.37,104.65,13.81
		c50.35-2.04,102.07-6.75,116.49,26.66c8.25,19.12-30.82,45.94,20.15,54.99c23.62,4.2,41.45-1.82,54.93-13.45"/>
</g>
<g class="st11">
	<g class="st12">
		<g>
			<path class="st9" d="M826.37,261.39c0.59,2.66,2.12,5.1,4.55,6.66l25.92,16.59c2.32,1.48,5.18,1.85,7.76,1.38l0.07-0.12
				c2.58-0.47,4.92-2.07,6.59-4.43l0.07-0.12c1.36-2.39,1.84-5.18,1.26-7.84c-0.12-0.57-0.29-1.33-0.64-2.05
				c0.91,0.1,1.72,0.12,2.66-0.09c2.16-0.57,4.16-1.91,5.53-3.8l0.07-0.12l2.92-4.82c1.6-2.24,2.99-4.94,3.88-8.61
				c0.62-3.51,0.8-8.13-0.15-14.29l2.37-3.7l0.07-0.12l2.96-4.63l1.26-1.97c0.67-1.04,0.8-2.26,0.54-3.4
				c-0.25-1.14-0.88-2.2-1.92-2.86l-20.14-12.89c-1.04-0.67-2.26-0.79-3.4-0.54c-1.14,0.25-2.2,0.88-2.86,1.92l-1.26,1.97
				l-2.96,4.63l-0.07,0.12l-2.37,3.7c-5.99,1.72-10.11,3.81-13.04,5.85c-3.08,2.27-4.83,4.74-6.24,6.94l-12.07,18.86
				C826.27,255.94,825.91,258.8,826.37,261.39z M868.08,213.04c0.22-0.35,0.63-0.74,1.13-0.74c0.38-0.08,0.99-0.02,1.34,0.2
				l20.14,12.89c0.35,0.22,0.66,0.75,0.74,1.13c0.08,0.38,0.02,0.99-0.2,1.34l-0.52,0.81l-23.14-14.81L868.08,213.04z
				 M866.08,216.16l23.14,14.81l-1.48,2.32l-23.14-14.81L866.08,216.16z M863.12,220.79l23.14,14.81l-1.19,1.85l-23.22-14.7
				L863.12,220.79z M842.21,236.12c1.26-1.97,2.78-4.09,5.45-5.97c2.74-1.99,6.48-4.01,12.09-5.64l24.42,15.63
				c0.87,5.78,0.72,10.09,0.06,13.42c-0.66,3.33-1.96,5.6-3.21,7.57l-3.11,4.86l-0.07,0.12c-1.01,1.32-2.28,2.29-3.8,2.63
				l-0.12-0.07c-1.52,0.33-3.16,0.09-4.55-0.79l-1.28-0.82l-10.76-6.89l-0.12-0.07c-1.39-0.89-2.29-2.28-2.63-3.8
				c-0.33-1.52-0.1-3.16,0.79-4.55c0.96-1.5,2.36-2.41,3.87-2.74c1.52-0.33,3.16-0.09,4.67,0.87l6.71,4.3
				c0.69,0.44,1.45,0.28,1.9-0.42c0.37-0.57,0.28-1.45-0.42-1.9l-6.71-4.3c-2.08-1.33-4.46-1.71-6.73-1.21
				c-2.28,0.5-4.27,1.83-5.61,3.91c-1.26,1.97-1.56,4.22-1.17,6.43l-3.7-2.37c-2.43-1.56-5.22-2.04-7.88-1.45
				c-2.66,0.58-4.99,2.19-6.54,4.62c-0.37,0.58-0.28,1.45,0.42,1.9c0.58,0.37,1.52,0.17,1.9-0.42c1.18-1.85,2.92-3.02,4.82-3.44
				c1.9-0.42,3.96-0.07,5.81,1.11l9.14,5.85l10.76,6.89c1.85,1.19,2.91,2.84,3.33,4.74c0.41,1.9,0.07,3.96-0.92,5.77l-0.07,0.12
				c-1.23,1.66-2.96,2.84-4.85,3.26l-0.08,0.12c-1.82,0.29-3.96,0.07-5.7-1.04l-25.92-16.59c-1.73-1.11-2.83-2.96-3.25-4.86
				l-0.11-0.07c-0.42-1.9-0.08-3.96,1.03-5.7L842.21,236.12z"/>
			<path class="st9" d="M843.76,239.07c0,0,5.91-9.76,15.88-11.04c0.38-0.08,0.6-0.43,0.52-0.81c0.03-0.31-0.31-0.53-0.73-0.64
				c-10.72,1.46-16.82,11.75-16.89,11.86c-0.15,0.23,0.05,0.69,0.28,0.84C843.15,239.5,843.54,239.41,843.76,239.07z"/>
			<path class="st9" d="M837.58,267.58l20.37,13.03c0.35,0.22,0.73,0.14,0.95-0.2c0.22-0.35,0.14-0.73-0.21-0.95l-20.37-13.03
				c-0.35-0.22-0.73-0.14-0.95,0.21C837.15,266.98,837.24,267.36,837.58,267.58z"/>
		</g>
		<g>
			<path class="st9" d="M944.22,172.97l-0.14-0.14c-2.61-2.61-6.32-4.26-10.44-4.26h-0.69l-5.22-16.08
				c0.14-0.14,0.27-0.27,0.41-0.41c0.96-0.96,1.52-2.2,1.52-3.57c0-1.37-0.55-2.75-1.52-3.57v-0.14c-0.96-0.97-2.2-1.51-3.71-1.51
				c-1.37,0-2.75,0.55-3.57,1.51c-0.96,0.96-1.65,2.2-1.65,3.71c0,1.38,0.69,2.61,1.65,3.57c0.14,0.14,0.27,0.27,0.41,0.41
				l-5.22,16.08h-0.82c-3.99,0-7.7,1.65-10.44,4.26c-2.61,2.61-4.26,6.32-4.26,10.31v0.14v7.42v0.14v47.27v5.77
				c0,4.12,1.65,7.69,4.26,10.3c2.75,2.75,6.32,4.4,10.44,4.4h18.41c4.12,0,7.83-1.65,10.44-4.4c2.61-2.61,4.26-6.18,4.26-10.3
				v-5.77v-47.27v-0.14v-7.42v-0.14C948.35,179.15,946.7,175.58,944.22,172.97z M933.51,183.14c0.14-0.69,0.27-1.24,0.82-1.65
				c0.27-0.27,0.69-0.55,1.1-0.69c0.14,0,0.27,0,0.55,0c0.55,0,1.24,0.27,1.65,0.69c0.41,0.41,0.69,0.96,0.69,1.65v0.14
				c0,0.55-0.27,1.1-0.69,1.65c-0.41,0.41-1.1,0.69-1.65,0.69c-0.69,0-1.24-0.27-1.65-0.82c-0.55-0.41-0.69-0.96-0.82-1.51V183.14z
				 M922.79,146.73c0.41-0.41,0.96-0.69,1.65-0.69c0.69,0,1.24,0.27,1.79,0.69v0.14c0.41,0.41,0.69,0.96,0.69,1.65
				c0,0.55-0.27,1.24-0.69,1.65c-0.55,0.41-1.1,0.69-1.79,0.69c-0.69,0-1.24-0.27-1.65-0.69c-0.55-0.41-0.82-1.1-0.82-1.65
				C921.96,147.83,922.24,147.14,922.79,146.73z M923.89,153.6c0.14,0,0.41,0,0.55,0c0.27,0,0.42,0,0.69,0l4.94,14.98h-11.13
				L923.89,153.6z M917.98,171.32h13.06l2.33,7.42c-0.41,0.27-0.69,0.55-1.1,0.82c-0.55,0.69-0.96,1.38-1.24,2.2h-13.06
				c-0.27-0.82-0.69-1.65-1.37-2.2c-0.27-0.27-0.69-0.55-1.1-0.82L917.98,171.32z M915.37,183.14v0.14c0,0.55-0.27,1.1-0.69,1.65
				c-0.42,0.41-0.97,0.69-1.65,0.69s-1.24-0.27-1.65-0.82c-0.41-0.41-0.69-0.96-0.69-1.51v-0.14c0-0.69,0.27-1.24,0.69-1.65
				c0.41-0.41,0.96-0.69,1.65-0.69s1.24,0.27,1.65,0.69C915.1,181.9,915.37,182.45,915.37,183.14z M906.71,174.76
				c2.2-2.06,5.08-3.43,8.38-3.43l-2.2,6.73c-1.37,0-2.61,0.55-3.44,1.51c-0.69,0.55-1.1,1.38-1.37,2.2h-4.67
				C903.69,179.15,904.93,176.68,906.71,174.76z M942.16,252.25c-2.2,2.2-5.22,3.57-8.52,3.57h-18.41c-3.3,0-6.32-1.37-8.52-3.57
				c-1.78-1.78-3.02-4.26-3.44-7.01h42.32C945.19,248,943.95,250.47,942.16,252.25z M945.6,242.5h-42.32v-3.02h5.91
				c0.69,0,1.38-0.55,1.38-1.37v-2.75h4.81v2.75c0,0.82,0.55,1.37,1.37,1.37h15.39c0.82,0,1.37-0.55,1.37-1.37v-2.75h4.81v2.75
				c0,0.82,0.69,1.37,1.37,1.37h0.14h5.77V242.5z M945.6,236.72h-4.54v-2.75c0-0.82-0.55-1.37-1.38-1.37h-7.55
				c-0.69,0-1.37,0.55-1.37,1.37v2.75h-12.64v-2.75c0-0.82-0.69-1.37-1.37-1.37h-7.56c-0.82,0-1.37,0.55-1.37,1.37v2.75h-4.54
				v-44.65h4.54v2.88c0,0.82,0.55,1.38,1.37,1.38h7.56c0.69,0,1.37-0.55,1.37-1.38v-2.88h12.64v2.88c0,0.82,0.69,1.38,1.37,1.38
				h7.55c0.83,0,1.38-0.55,1.38-1.38v-2.88h4.54V236.72z M945.6,189.32h-5.77h-0.14c-0.69,0-1.37,0.69-1.37,1.37v0.14v2.75h-4.81
				v-2.75v-0.14c0-0.69-0.55-1.37-1.37-1.37h-15.39c-0.82,0-1.37,0.69-1.37,1.37v0.14v2.75h-4.81v-2.75v-0.14
				c0-0.69-0.69-1.37-1.38-1.37h-5.91v-4.81h4.81c0.27,0.97,0.69,1.65,1.37,2.34c0.83,0.82,2.2,1.51,3.57,1.51
				c1.38,0,2.61-0.69,3.57-1.51c0.69-0.69,1.1-1.37,1.37-2.34h13.06c0.27,0.97,0.69,1.65,1.24,2.34c0.96,0.82,2.2,1.51,3.71,1.51
				c1.37,0,2.61-0.69,3.57-1.51v-0.14c0.69-0.55,1.1-1.38,1.38-2.2h4.67V189.32z M940.93,181.77c-0.27-0.82-0.69-1.65-1.38-2.2
				c-0.82-0.96-2.06-1.51-3.43-1.51l-2.2-6.73c3.16,0,6.04,1.37,8.25,3.43v0.14c1.78,1.79,3.02,4.26,3.44,6.87H940.93z"/>
			<path class="st9" d="M913.58,248.54h26.8c0.41,0,0.69-0.27,0.69-0.69c0-0.27-0.27-0.69-0.69-0.69h-26.8
				c-0.41,0-0.69,0.42-0.69,0.69C912.89,248.27,913.17,248.54,913.58,248.54z"/>
			<path class="st9" d="M942.3,228.21c0.41,0,0.69-0.27,0.69-0.69v-26.79c0-0.42-0.27-0.69-0.69-0.69c-0.27,0-0.69,0.27-0.69,0.69
				v26.79C941.61,227.93,942.03,228.21,942.3,228.21z"/>
		</g>
		<g>
			<path class="st9" d="M999.59,277.75c0.23-0.31,0.15-0.85-0.16-1.09c-0.31-0.23-0.72-0.17-0.96,0.14l-10.11,13.66
				c-0.23,0.31-0.17,0.72,0.14,0.95c0.31,0.23,0.72,0.17,0.95-0.14L999.59,277.75z"/>
			<path class="st9" d="M989.19,205.26c0.23-0.31,0.17-0.72-0.14-0.95c-0.31-0.23-0.72-0.17-0.96,0.14l-10.27,13.55
				c-0.23,0.31-0.17,0.72,0.14,0.95c0.31,0.23,0.72,0.17,0.95-0.14L989.19,205.26z"/>
			<path class="st9" d="M992.45,295.71l12.36-16.35c0.7-0.93,0.95-2.08,0.8-3.17l-0.02-0.14c-0.16-1.09-0.72-2.12-1.66-2.82
				l-0.13,0.02l18.99-25.35c1.26-1.85,1.8-3.87,1.51-5.91c-0.27-1.9-1.38-3.83-3.09-5.11c-1.71-1.28-3.73-1.83-5.77-1.53
				c-2.04,0.29-3.83,1.38-5.11,3.1l-0.14,0.02l-24.47,32.66c-0.81,1.09-1.96,1.81-3.32,2c-1.23,0.18-2.66-0.17-3.75-0.99
				c-1.09-0.82-1.83-2.1-2-3.32c-0.19-1.36,0.17-2.66,0.99-3.75l4.66-6.22l-0.02-0.14l2.11-2.66l-0.02-0.14l17.71-23.64
				c1.28-1.71,1.83-3.73,1.53-5.77c-0.29-2.04-1.38-3.83-3.09-5.11c-1.73-1.42-3.86-1.8-5.77-1.53c-2.04,0.29-3.85,1.25-5.27,2.98
				l0.02,0.14l-24.46,32.66c-0.82,1.09-2.1,1.83-3.32,2c-1.36,0.19-2.66-0.17-3.75-0.99c-1.22-0.8-1.83-2.1-2.02-3.46
				c-0.18-1.22,0.04-2.64,0.99-3.75l18.99-25.35l0.02,0.14c0.93,0.7,2.21,0.93,3.3,0.77c1.09-0.16,2.12-0.72,2.82-1.65l12.21-16.47
				c0.7-0.93,1.09-2.1,0.93-3.19c-0.29-1.07-0.86-2.1-1.79-2.8l-2.36-1.88c-0.93-0.7-2.08-0.95-3.17-0.79l-0.14,0.02
				c-1.09,0.16-2.12,0.72-2.81,1.65l-12.21,16.47c-0.7,0.93-0.95,2.08-0.79,3.17c0.16,1.09,0.72,2.12,1.65,2.82l0.02,0.14
				l-18.99,25.35c-1.28,1.71-1.67,3.85-1.4,5.75c0.29,2.04,1.27,3.98,2.98,5.26c1.71,1.28,3.87,1.8,5.91,1.51
				c1.9-0.27,3.83-1.38,5.11-3.09l24.47-32.66l0.11-0.15c0.82-1.09,1.98-1.67,3.35-1.87c1.22-0.17,2.64,0.04,3.75,0.99
				c1.09,0.82,1.81,1.96,2.01,3.32c0.18,1.23-0.18,2.67-0.99,3.75l-17.71,23.64l-2.09,2.8l0.02,0.14l-4.68,6.09
				c-1.28,1.71-1.8,3.87-1.51,5.91c0.27,1.91,1.38,3.83,3.09,5.11c1.71,1.28,3.73,1.82,5.78,1.53c2.04-0.29,3.82-1.38,5.1-3.09
				l24.47-32.66l0.14-0.02c0.82-1.09,2.1-1.83,3.32-2c1.22-0.18,2.66,0.17,3.75,0.99c1.09,0.82,1.83,2.1,2.01,3.32
				c0.19,1.36-0.17,2.66-0.99,3.75l-18.97,25.49l-0.16-0.12c-0.93-0.7-2.08-0.95-3.17-0.8c-1.09,0.16-2.12,0.72-2.82,1.65
				l-12.37,16.35c-0.7,0.93-0.93,2.21-0.77,3.3c0.16,1.09,0.72,2.12,1.65,2.82l2.47,1.73c0.95,0.84,2.1,1.09,3.18,0.93l0.14-0.02
				C990.74,297.35,991.75,296.65,992.45,295.71z M977.72,222.04l-1.24-0.93l-1.24-0.93c-0.32-0.23-0.5-0.62-0.7-1.01
				c0.08-0.43,0.15-0.85,0.39-1.17l12.21-16.47c0.37-0.33,0.76-0.52,1.03-0.56l0.14-0.02c0.27-0.04,0.7,0.04,1.15,0.25l2.35,1.88
				c0.31,0.23,0.65,0.6,0.7,1.01c0.06,0.41-0.16,0.86-0.39,1.17l-12.21,16.46c-0.37,0.33-0.62,0.51-1.03,0.57
				C978.45,222.35,978.03,222.27,977.72,222.04z M988.1,294.39l-2.47-1.73c-0.33-0.37-0.5-0.62-0.56-1.03
				c-0.06-0.41,0.01-0.83,0.23-1.28L997.67,274c0.23-0.31,0.62-0.5,1.03-0.56c0.41-0.06,0.84,0.02,1.15,0.25l1.24,0.93l1.24,0.93
				c0.31,0.23,0.51,0.62,0.57,1.03c0.06,0.41-0.02,0.84-0.26,1.15l-12.37,16.35c-0.21,0.45-0.6,0.64-1.01,0.7
				C988.85,294.84,988.43,294.76,988.1,294.39z"/>
		</g>
	</g>
	<g class="st12">
		<path class="st9" d="M417.74,159.15c-3.23-0.45-6.99-0.79-11.07-1.03c1.68-4.63,1.44-9.32-0.66-12.37l9.91-18.97
			c0.35-0.66,0.53-1.4,0.53-2.15c0-1.78-1.05-3.42-2.68-4.18c-1.15-0.54-2.44-0.58-3.63-0.12c-1.19,0.46-2.11,1.36-2.6,2.55
			l-8.14,19.74c-4.12,0.39-8.35,3.91-10.74,9.04c-1.01,2.16-1.49,4.24-1.48,6.15c-7.1,0.16-13.65,0.62-18.85,1.34
			c-9.87,1.36-11.2,3.07-11.2,4.57c0,15.18,16.11,27.52,35.9,27.52s35.9-12.35,35.9-27.52
			C428.94,162.23,427.61,160.51,417.74,159.15z M409.75,123.8c0.24-0.57,0.69-1.01,1.26-1.23c0.57-0.22,1.19-0.2,1.75,0.06
			c0.79,0.37,1.29,1.16,1.29,2.01c0,0.36-0.09,0.72-0.26,1.04l-10.01,19.16l-2.27-1.06L409.75,123.8z M400.39,160.24
			c0.88,0.03,1.76,0.05,2.6,0.09c-1.54,2.49-3.51,3.92-5.68,4.18C398.34,163.5,399.37,162.06,400.39,160.24z M395.56,162.88
			c-0.83,0.8-1.59,1.16-2.01,0.96c0,0,0,0,0,0c-0.52-0.24-0.83-1.43-0.34-3.7c1.53,0,3,0.02,4.44,0.05
			C396.8,161.53,396.09,162.37,395.56,162.88z M401.59,157.89c0.03-0.06,0.06-0.11,0.08-0.17c1.62-3.47,2.68-6.88,2.99-9.48
			c1.1,2.57,0.93,6.23-0.52,9.75C403.31,157.95,402.45,157.92,401.59,157.89z M400.91,146.14l1.45,0.68c-0.01,2-0.85,5.61-2.85,9.89
			c-0.18,0.39-0.36,0.76-0.54,1.11c-1.66-0.04-3.35-0.06-5.07-0.07c0.32-0.91,0.74-1.92,1.26-3.05
			C397.16,150.42,399.38,147.45,400.91,146.14z M390.83,152.67c1.74-3.74,4.65-6.52,7.51-7.39c-1.8,1.92-3.73,4.93-5.35,8.4
			c-0.72,1.54-1.24,2.88-1.61,4.07c-0.6,0-1.21,0-1.81,0.01C389.57,156.21,389.98,154.49,390.83,152.67z M390.78,160.15
			c-0.08,0.44-0.14,0.85-0.16,1.23c-0.25-0.38-0.46-0.79-0.62-1.22C390.25,160.15,390.52,160.15,390.78,160.15z M393.04,188.85
			c-17.29,0-31.55-9.87-33.32-22.49c1.65,0.68,4.33,1.34,8.62,1.93c6.61,0.91,15.38,1.41,24.7,1.41s18.1-0.5,24.7-1.41
			c4.29-0.59,6.96-1.25,8.62-1.93C424.59,178.98,410.33,188.85,393.04,188.85z M393.04,167.31c-18.96,0-31.28-2.05-33.34-3.59
			c1.85-1.38,12-3.17,27.8-3.52c0.03,0.11,0.05,0.22,0.08,0.32c0.75,2.43,2.46,4.32,4.95,5.48c0,0,0,0,0,0c0,0,0,0,0,0c0,0,0,0,0,0
			c1.36,0.63,2.72,0.94,4.04,0.94c3.6,0,6.89-2.31,9.07-6.48c11.74,0.64,19.18,2.1,20.74,3.26
			C424.32,165.26,412,167.31,393.04,167.31z"/>
		<path class="st9" d="M571.26,140.47c-1.02-7.29-7.12-12.88-14.52-13.3c-1.28-0.07-2.56,0.02-3.81,0.26
			c-3.67-6.1-10.27-9.86-17.42-9.86s-13.75,3.76-17.44,9.85c-2.64-0.49-5.28-0.32-7.83,0.54c-5.91,1.99-10.17,7.47-10.6,13.63
			c-0.42,6.01,2.55,11.6,7.75,14.59c1.1,0.63,1.78,1.82,1.78,3.09v28.91c0,0.66,0.54,1.2,1.2,1.2h50.26c0.66,0,1.2-0.54,1.2-1.2
			v-28.91c0-1.28,0.69-2.45,1.85-3.12C569.17,152.95,572.14,146.8,571.26,140.47z M559.44,178.6h-5.98V181h5.98v5.98h-47.87V181
			h32.31v-2.39h-32.31v-2.39h47.87V178.6z M562.48,154.07c-1.9,1.11-3.04,3.05-3.04,5.19v14.55h-4.79v-11.97h-2.39v11.97h-33.51
			v-7.18h-2.39v7.18h-4.79v-14.55c0-2.12-1.14-4.1-2.98-5.16c-4.4-2.54-6.92-7.26-6.56-12.35c0.36-5.22,3.97-9.85,8.98-11.52
			c2.39-0.81,4.87-0.91,7.37-0.3c3.09,0.78,5.8,2.66,7.63,5.31l1.96-1.36c-1.85-2.68-4.48-4.69-7.49-5.79
			c3.3-5.05,8.94-8.13,15.02-8.13c6.58,0,12.63,3.6,15.77,9.39c1.15,2.08,1.84,4.34,2.08,6.7c0.06,0.65,0.1,1.27,0.1,1.85h2.39
			c0-0.66-0.04-1.35-0.11-2.08c-0.22-2.15-0.78-4.21-1.65-6.16c0.83-0.12,1.66-0.16,2.51-0.11c6.15,0.35,11.43,5.17,12.28,11.24
			C569.63,146.16,567.13,151.37,562.48,154.07z"/>
		<rect x="516.36" y="161.85" class="st9" width="2.39" height="2.39"/>
		<rect x="552.26" y="157.06" class="st9" width="2.39" height="2.39"/>
		<rect x="546.28" y="178.6" class="st9" width="4.79" height="2.39"/>
		<path class="st9" d="M435.81,88.27l0.47,0.98c0.54,1.16,1.5,2.03,2.69,2.48c0.54,0.19,1.09,0.29,1.64,0.29
			c0.69,0,1.38-0.14,2.02-0.44c1.16-0.54,2.05-1.51,2.48-2.7c0.44-1.2,0.38-2.5-0.16-3.66l-0.47-0.98l-2.63-10.06
			c-0.28-1.04-0.98-1.89-1.95-2.35c-0.97-0.45-2.07-0.45-3.04,0l-5.65,2.63c-0.97,0.45-1.69,1.3-1.95,2.33
			c-0.28,1.03-0.08,2.12,0.54,2.99L435.81,88.27z M442.86,88.04c-0.22,0.61-0.66,1.09-1.23,1.35c-0.59,0.28-1.23,0.3-1.83,0.08
			c-0.6-0.22-1.08-0.66-1.35-1.23l4.33-2.02C443.05,86.79,443.07,87.44,442.86,88.04z M431.57,77.39c0.05-0.2,0.2-0.57,0.65-0.78
			l5.65-2.63c0.18-0.08,0.36-0.11,0.5-0.11c0.23,0,0.41,0.06,0.51,0.11c0.19,0.1,0.53,0.31,0.65,0.78l2.42,9.21l-4.69,2.18
			l-5.5-7.75C431.46,77.99,431.51,77.59,431.57,77.39z"/>
		<path class="st9" d="M500.09,103.68c0-1.32-1.08-2.39-2.39-2.39h-4.79v-1.2c0-0.66-0.54-1.2-1.2-1.2h-55.05
			c-0.66,0-1.2,0.54-1.2,1.2v1.2h-4.79c-1.32,0-2.39,1.08-2.39,2.39v5.98c0,3.3,2.68,5.98,5.98,5.98h1.2v4.79
			c0,3.3,2.68,5.98,5.98,5.98h45.47c3.3,0,5.98-2.68,5.98-5.98v-4.79h1.2c3.3,0,5.98-2.68,5.98-5.98V103.68z M435.46,107.32v2.39
			v3.54h-1.2c-1.97,0-3.59-1.62-3.59-3.59v-5.98h4.79V107.32z M490.51,114.45v5.98c0,1.97-1.62,3.59-3.59,3.59h-45.47
			c-1.97,0-3.59-1.62-3.59-3.59v-5.98v-4.56c1.18,0.2,2.03,0.53,2.9,0.88c1.52,0.61,3.09,1.23,6.19,1.23c3.1,0,4.67-0.63,6.19-1.23
			c1.37-0.55,2.66-1.06,5.3-1.06c2.64,0,3.93,0.52,5.3,1.06c1.52,0.61,3.08,1.23,6.19,1.23c3.1,0,4.67-0.63,6.19-1.23
			c1.37-0.55,2.66-1.06,5.3-1.06c2.64,0,3.93,0.52,5.3,1.06c1.06,0.43,2.17,0.86,3.8,1.08V114.45z M490.51,102.49v6.95
			c-1.19-0.2-2.03-0.53-2.91-0.88c-1.52-0.61-3.09-1.23-6.19-1.23c-3.1,0-4.67,0.63-6.19,1.23c-1.37,0.55-2.66,1.06-5.3,1.06
			c-2.64,0-3.93-0.52-5.3-1.06c-1.52-0.61-3.09-1.23-6.19-1.23c-3.1,0-4.67,0.63-6.19,1.23c-1.37,0.55-2.66,1.06-5.3,1.06
			c-2.64,0-3.93-0.52-5.3-1.06c-1.06-0.43-2.17-0.86-3.79-1.08v-4.99v-1.2h52.65V102.49z M497.69,109.67c0,1.97-1.62,3.59-3.59,3.59
			h-1.2v-1.24v-2.39v-5.94h4.79V109.67z"/>
		<path class="st9" d="M490.51,141.98v-2.39c0-0.66-0.54-1.2-1.2-1.2h-1.87c0.42-0.71,0.67-1.52,0.67-2.39
			c0-2.32-3.24-6.06-3.9-6.79c-0.44-0.5-1.33-0.5-1.77,0c-0.66,0.73-3.9,4.46-3.9,6.79c0,0.87,0.25,1.69,0.67,2.39h-1.87
			c-0.66,0-1.2,0.54-1.2,1.2v2.39h-4.79v-2.39c0-0.66-0.54-1.2-1.2-1.2h-1.87c0.42-0.71,0.67-1.52,0.67-2.39
			c0-2.32-3.24-6.06-3.9-6.79c-0.44-0.5-1.33-0.5-1.77,0c-0.66,0.73-3.9,4.46-3.9,6.79c0,0.87,0.25,1.69,0.67,2.39h-1.87
			c-0.66,0-1.2,0.54-1.2,1.2v2.39h-4.79v-2.39c0-0.66-0.54-1.2-1.2-1.2h-1.87c0.42-0.71,0.67-1.52,0.67-2.39
			c0-2.32-3.24-6.06-3.9-6.79c-0.44-0.5-1.33-0.5-1.77,0c-0.66,0.73-3.9,4.46-3.9,6.79c0,0.87,0.25,1.69,0.67,2.39h-1.87
			c-0.66,0-1.2,0.54-1.2,1.2v2.39c-0.66,0-1.2,0.54-1.2,1.2v3.59c0,0.66,0.54,1.2,1.2,1.2h52.65c0.66,0,1.2-0.54,1.2-1.2v-3.59
			C491.71,142.52,491.17,141.98,490.51,141.98z M483.33,131.86c1.27,1.59,2.39,3.39,2.39,4.13c0,1.32-1.08,2.39-2.39,2.39
			c-1.32,0-2.39-1.08-2.39-2.39C480.94,135.23,482.06,133.44,483.33,131.86z M478.54,140.78h9.57v1.2h-9.57V140.78z M464.18,131.86
			c1.27,1.59,2.39,3.39,2.39,4.13c0,1.32-1.08,2.39-2.39,2.39s-2.39-1.08-2.39-2.39C461.79,135.23,462.92,133.44,464.18,131.86z
			 M459.4,140.78h9.57v1.2h-9.57V140.78z M445.04,131.86c1.27,1.59,2.39,3.39,2.39,4.13c0,1.32-1.08,2.39-2.39,2.39
			s-2.39-1.08-2.39-2.39C442.64,135.23,443.77,133.44,445.04,131.86z M440.25,140.78h9.57v1.2h-9.57V140.78z M489.32,145.57h-50.26
			v-1.2h50.26V145.57z"/>
		<rect x="445.04" y="115.65" class="st9" width="2.39" height="2.39"/>
		<rect x="452.22" y="119.24" class="st9" width="2.39" height="2.39"/>
		<rect x="458.2" y="113.26" class="st9" width="2.39" height="2.39"/>
		<rect x="467.77" y="118.04" class="st9" width="2.39" height="2.39"/>
		<rect x="479.74" y="112.06" class="st9" width="2.39" height="2.39"/>
		<rect x="476.15" y="119.24" class="st9" width="2.39" height="2.39"/>
		<path class="st9" d="M468.32,89.32c-2.31,0-4.19,1.88-4.19,4.19v0.6h2.39v-0.6c0-0.99,0.81-1.8,1.79-1.8
			c2.31,0,4.19-1.88,4.19-4.19v-1.79h-2.39v1.79C470.11,88.52,469.31,89.32,468.32,89.32z"/>
		<path class="st9" d="M477.89,89.32c-2.31,0-4.19,1.88-4.19,4.19v0.6h2.39v-0.6c0-0.99,0.81-1.8,1.8-1.8
			c2.31,0,4.19-1.88,4.19-4.19v-1.79h-2.39v1.79C479.69,88.52,478.88,89.32,477.89,89.32z"/>
		<path class="st9" d="M483.28,93.51v0.6h2.39v-0.6c0-0.99,0.81-1.8,1.8-1.8c2.31,0,4.19-1.88,4.19-4.19v-1.79h-2.39v1.79
			c0,0.99-0.81,1.8-1.8,1.8C485.16,89.32,483.28,91.2,483.28,93.51z"/>
		<path class="st9" d="M447.74,82.82l8.27,8.63c0.22,0.24,0.53,0.37,0.84,0.37c0.11,0.01,0.23-0.01,0.34-0.04
			c0.2-0.05,0.37-0.15,0.53-0.3l8.63-8.27c1.87-1.79,2.6-4.43,2-6.89l16.24-15.58c0.69-0.67,1.08-1.56,1.1-2.52
			c0.02-0.96-0.33-1.87-1-2.56c-1.38-1.43-3.65-1.47-5.08-0.11l-16.24,15.58c-2.45-0.71-5.11-0.07-6.98,1.71l-8.63,8.29
			c-0.36,0.34-0.46,0.85-0.29,1.29C447.53,82.57,447.62,82.7,447.74,82.82z M458.06,74.57c1.37-1.32,3.39-1.69,5.15-0.97
			c0.44,0.19,0.94,0.1,1.29-0.24l16.78-16.09c0.15-0.15,0.33-0.25,0.52-0.3c0.4-0.11,0.87,0.01,1.18,0.33
			c0.22,0.23,0.34,0.53,0.33,0.85c0,0.32-0.13,0.62-0.36,0.84l-16.78,16.09c-0.34,0.34-0.46,0.84-0.29,1.28
			c0.66,1.79,0.2,3.8-1.17,5.11l-4.32,4.14l-6.63-6.91L458.06,74.57z M452.02,80.37l6.63,6.91l-1.73,1.66l-6.63-6.91L452.02,80.37z"
			/>
	</g>
	<g class="st12">
		<path class="st9" d="M573.45,272.67c-5.34,0.85-9.32,3.48-10.93,7.23c-1.15,2.68-1.02,5.49-0.9,8.21c0.08,1.75,0.15,3.39-0.1,4.97
			c-1.47,9.3-8.2,13.02-14.71,15.59c-3.54-4.88-6.6-9.05-8.04-10.99c0.36-0.37,0.61-0.84,0.72-1.36c0.15-0.72,0.01-1.46-0.4-2.08
			l-0.29-0.44c-0.45-0.68-1.14-1.08-1.89-1.2c-0.03-1.83-0.81-3.89-2.31-5.65c-2.35-2.77-6.37-3.93-9.09-4.09l-2.87-0.17l1.51,2.45
			c0.52,0.85,0.55,2.23,0.58,3.69c0.06,2.79,0.16,6.82,4.71,8.54c-0.26,0.78-0.19,1.66,0.3,2.4l0.29,0.44
			c0.41,0.62,1.03,1.04,1.75,1.19c0.19,0.04,0.38,0.06,0.56,0.06c0.34,0,0.66-0.07,0.98-0.19l6.11,10.32
			c-0.5,0.25-0.94,0.49-1.32,0.74c-2.74,1.79-4.3,3.86-4.64,6.15c-0.19,1.29,0.01,2.68,0.6,4.25c1.57,4.15,5.12,7.74,9.98,10.09
			c3.36,1.62,6.93,2.53,10.48,3.28c0.22,0.33,0.45,0.68,0.66,0.99c3.32,4.9,6.42,7.54,8.77,7.54c0.52,0,1-0.13,1.44-0.38
			c1.72-1.01,1.86-3.52,0.5-7c9.38-0.26,21.69-2.97,30.42-9.77c6.92-5.4,10.65-12.5,11.07-21.1c0.47-9.66-2.5-18.16-8.6-24.59
			C592.1,274.74,582.39,271.25,573.45,272.67z M527.73,288.75c-0.02-0.85-0.04-1.71-0.15-2.55c1.77,0.46,3.62,1.35,4.74,2.67
			c1.79,2.11,1.89,4.31,1.27,5.03l-1.59,1.05C527.87,294.21,527.81,292.02,527.73,288.75z M536.34,299.42
			c1.58,2.14,5.18,7.04,9.21,12.61c1.62,2.23,3.31,4.58,4.97,6.92c1.15,1.61,2.27,3.19,3.36,4.74c-0.79,0.14-1.62,0.22-2.47,0.23
			c-0.35,0-0.7-0.03-1.05-0.06c-0.98-1.59-1.97-3.21-2.96-4.85c-1.42-2.35-2.84-4.7-4.17-6.92l-7.33-12.38L536.34,299.42z
			 M556.85,322.71c-0.86-1.23-1.75-2.49-2.66-3.77c2.42,0.51,3.91,1.59,3.91,2.37C558.1,321.74,557.62,322.27,556.85,322.71z
			 M544.94,320.75c0.41,0.68,0.83,1.36,1.24,2.03c-0.88-0.48-1.44-1.06-1.44-1.52C544.73,321.1,544.81,320.93,544.94,320.75z
			 M563.82,341.58c-0.62-0.14-2.4-1.12-5.07-4.69c1.18,0.17,2.48,0.27,3.89,0.33C563.8,339.72,563.91,341.1,563.82,341.58z
			 M604.39,306.22c-0.38,7.69-3.71,14.04-9.92,18.88c-11.1,8.66-28.42,10.26-36.62,8.61c-4.23-0.85-8.61-1.72-12.48-3.6
			c-4.17-2.02-7.19-5.02-8.48-8.45c-0.41-1.08-0.55-1.98-0.44-2.75c0.21-1.41,1.32-2.78,3.31-4.07c0.33-0.22,0.73-0.43,1.22-0.66
			c0.77,1.28,1.56,2.59,2.36,3.93c-1.03,0.9-1.6,1.98-1.6,3.16c-0.01,1.7,1.13,3.21,3.2,4.27c1.75,0.89,4.04,1.39,6.46,1.4
			c0.02,0,0.05,0,0.07,0c2.39,0,4.66-0.48,6.39-1.34c2.08-1.04,3.23-2.55,3.24-4.25c0.01-3.13-3.93-5.51-9.24-5.65
			c-1.09-1.53-2.18-3.04-3.25-4.52c7.48-3.08,14.28-7.58,15.87-17.62c0.3-1.87,0.21-3.75,0.13-5.57c-0.11-2.49-0.22-4.85,0.66-6.89
			c1.17-2.74,4.4-4.77,8.64-5.44c7.99-1.26,16.68,1.88,22.69,8.21C602.13,289.66,604.82,297.4,604.39,306.22z"/>
		<path class="st9" d="M583.1,292.49c0.46,0,0.93-0.05,1.4-0.16c3.43-0.77,5.59-4.19,4.82-7.62c-0.37-1.66-1.37-3.08-2.81-3.99
			c-1.44-0.91-3.15-1.21-4.81-0.83c-1.66,0.37-3.08,1.37-3.99,2.81c-0.91,1.44-1.21,3.15-0.83,4.81
			C577.55,290.48,580.18,292.49,583.1,292.49z M580.25,284.31c0.48-0.76,1.23-1.29,2.11-1.49c0.25-0.06,0.5-0.08,0.75-0.08
			c0.63,0,1.25,0.18,1.8,0.52c0.76,0.48,1.29,1.23,1.49,2.11c0.41,1.81-0.74,3.62-2.55,4.03c-1.81,0.41-3.62-0.74-4.03-2.55
			C579.61,285.98,579.77,285.08,580.25,284.31z"/>
		<path class="st9" d="M593.34,292.66c-3.43,0.77-5.59,4.19-4.82,7.62c0.37,1.66,1.37,3.08,2.81,3.99c1.03,0.65,2.2,0.99,3.4,0.99
			c0.47,0,0.94-0.05,1.41-0.16c1.66-0.37,3.08-1.37,3.99-2.81c0.91-1.44,1.21-3.15,0.83-4.81
			C600.18,294.05,596.77,291.9,593.34,292.66z M598.03,298.14c0.2,0.88,0.04,1.78-0.44,2.54c-0.48,0.76-1.23,1.29-2.11,1.49
			c-0.88,0.2-1.78,0.04-2.54-0.44s-1.29-1.23-1.49-2.11c-0.41-1.81,0.74-3.62,2.55-4.03c0.25-0.06,0.5-0.08,0.74-0.08
			C596.28,295.5,597.67,296.57,598.03,298.14z"/>
		<path class="st9" d="M595.77,310.13c-1.3-0.83-2.85-1.09-4.36-0.75c-1.51,0.34-2.79,1.24-3.61,2.55s-1.09,2.85-0.75,4.36
			c0.6,2.68,2.99,4.51,5.64,4.51c0.42,0,0.84-0.05,1.27-0.14c3.11-0.7,5.07-3.8,4.37-6.9C597.98,312.24,597.08,310.95,595.77,310.13
			z M593.29,317.72c-1.5,0.33-2.98-0.61-3.32-2.1c-0.16-0.72-0.03-1.47,0.36-2.09c0.4-0.63,1.01-1.06,1.74-1.22
			c0.2-0.05,0.41-0.07,0.61-0.07c0.52,0,1.03,0.15,1.48,0.43c0.63,0.4,1.06,1.01,1.22,1.74
			C595.73,315.89,594.79,317.38,593.29,317.72z"/>
		<path class="st9" d="M579.49,320.82c-2.48,0.56-4.04,3.03-3.48,5.5c0.48,2.14,2.39,3.6,4.49,3.6c0.33,0,0.67-0.04,1.01-0.11
			c2.48-0.56,4.04-3.03,3.48-5.5C584.44,321.83,581.97,320.26,579.49,320.82z M580.85,326.88c-0.87,0.2-1.73-0.35-1.92-1.21
			s0.35-1.73,1.21-1.92c0.12-0.03,0.24-0.04,0.35-0.04c0.73,0,1.4,0.51,1.57,1.25C582.26,325.83,581.72,326.69,580.85,326.88z"/>
		<path class="st9" d="M667.85,276.65h-0.86v-52.47c0-2.21-1.8-4-4-4h-19.08v-5.61c0-0.41-0.18-1.75-2.45-1.75h-2.06
			c-2.27,0-2.45,1.34-2.45,1.75v5.61h-18.3c-2.21,0-4,1.8-4,4v52.47h-0.86c-1.91,0-3.47,1.56-3.47,3.47v0.81
			c0,1.91,1.55,3.47,3.47,3.47h5.71l-5.69,25.51c-0.15,0.69-0.03,1.39,0.35,1.99s0.96,1.01,1.65,1.16l2.41,0.54
			c0.19,0.04,0.39,0.06,0.58,0.06c0.5,0,0.98-0.14,1.41-0.41c0.6-0.38,1.01-0.96,1.16-1.65l6.07-27.2h9.01v22.18
			c0,1.37,1.18,2.48,2.64,2.48h2.47c1.45,0,2.64-1.11,2.64-2.48v-22.18h9.12l6.07,27.19c0.27,1.23,1.37,2.06,2.58,2.06
			c0.19,0,0.38-0.02,0.58-0.06l2.41-0.54c0.69-0.15,1.28-0.57,1.65-1.16s0.5-1.3,0.35-1.99l-5.69-25.51h6.62
			c1.91,0,3.47-1.55,3.47-3.47v-0.81C671.32,278.2,669.77,276.65,667.85,276.65z M639.94,215.82h0.96v4.36h-0.96V215.82z
			 M617.64,224.18c0-0.55,0.45-1,1-1h44.35c0.55,0,1,0.45,1,1v52.47h-46.35V224.18z M618.5,310.58l-1.7-0.38l5.76-25.81h1.79
			L618.5,310.58z M641.17,306.06h-1.75v-21.66h1.75V306.06z M663.92,310.2l-1.7,0.38l-5.85-26.19h1.79L663.92,310.2z M668.32,280.93
			c0,0.26-0.21,0.47-0.47,0.47h-54.08c-0.26,0-0.47-0.21-0.47-0.47v-0.81c0-0.26,0.21-0.47,0.47-0.47h0.86h52.35h0.86
			c0.26,0,0.47,0.21,0.47,0.47V280.93z"/>
		<path class="st9" d="M736.03,299.2l1.01-12.56l-0.01,0c0-0.04,0.01-0.08,0.01-0.12c0-2.79-3.76-4.93-11.16-6.37l1.47-11.7
			c0.52-0.02,1.03-0.19,1.46-0.49c0.61-0.43,1.01-1.06,1.14-1.79l0.09-0.52c0.15-0.87-0.13-1.71-0.68-2.32
			c3.48-3.39,1.97-7.12,0.91-9.71c-0.55-1.36-1.08-2.64-0.94-3.62l0.41-2.85l-2.57,1.3c-2.43,1.23-5.65,3.9-6.71,7.38
			c-0.67,2.22-0.58,4.42,0.12,6.11c-0.63,0.4-1.1,1.05-1.24,1.85l-0.09,0.52c-0.13,0.73,0.04,1.46,0.46,2.07
			c0.31,0.44,0.72,0.76,1.2,0.96c-0.49,2.15-1.49,6.54-2.65,11.76c-1.07-0.1-2.16-0.2-3.29-0.27l-3.45-0.17
			c-0.77-0.03-1.35-0.05-1.97-0.06l-1.3-7.36c0.49-0.18,0.93-0.48,1.25-0.91c0.45-0.58,0.65-1.31,0.56-2.04l-0.07-0.52
			c-0.03-0.24-0.1-0.47-0.19-0.69c0.62-1.02,1.24-1.93,1.9-2.88c0.73-1.06,1.49-2.15,2.24-3.42l0.5-0.85l-0.58-0.8
			c-2.19-2.99-6.39-4.48-10.96-3.9c-4.53,0.57-8.19,3.07-9.57,6.51l-0.37,0.92l0.7,0.7c1.04,1.04,2.04,1.91,3.02,2.75
			c0.88,0.76,1.71,1.48,2.56,2.32c-0.03,0.23-0.04,0.47-0.01,0.71l0.07,0.52c0.09,0.73,0.47,1.39,1.05,1.84
			c0.42,0.33,0.92,0.51,1.43,0.56c0.11,1.41,0.28,3.77,0.51,6.69c-3.25,0.15-5.74,0.3-7.52,0.46l-6.4-23
			c-0.17-0.63-0.58-1.15-1.15-1.48c-0.57-0.32-1.23-0.4-1.86-0.23l-8.43,2.35c-0.63,0.18-1.15,0.59-1.47,1.15
			c-0.32,0.57-0.4,1.23-0.23,1.86l6.19,22.13c-3.07,1.24-4.58,2.73-4.58,4.54c0,0.04,0.01,0.08,0.01,0.12l-0.01,0l4.18,51.86
			c0.14,5.48,16.33,6.95,25.92,6.95s25.78-1.46,25.92-6.94l2.01-24.9c1.32-0.42,2.49-0.93,3.45-1.56c1.67-1.09,2.68-2.44,3.01-4.01
			C741.75,305.99,741.13,302.83,736.03,299.2z M734.04,286.51l0,0.03c-0.1,0.87-3.33,2.4-9.45,3.53c0.32-2.35,0.63-4.68,0.92-6.93
			C732.3,284.48,733.98,286.13,734.04,286.51z M723.34,256.69c0.5-1.66,1.84-3.21,3.28-4.34c0.23,0.81,0.55,1.61,0.88,2.4
			c1.24,3.03,2.05,5.06-1.43,7.39l-1.88-0.33C723.32,261.4,722.53,259.34,723.34,256.69z M723.85,267.96l0.53,0.09l-1.79,14.28
			c-0.33,2.57-0.69,5.29-1.07,8.02l-0.03,0.21c-0.87,0.12-1.77,0.23-2.73,0.34c0.55-2.6,1.12-5.2,1.67-7.69
			C721.91,276.49,723.26,270.56,723.85,267.96z M711.42,281.64l3.39,0.17c0.95,0.06,1.89,0.14,2.82,0.23
			c-0.04,0.17-0.08,0.35-0.11,0.52c-0.59,2.7-1.21,5.53-1.8,8.34l-0.06,0.28c-1.23,0.09-2.52,0.16-3.87,0.21
			c-0.34-2.04-0.69-4.07-1.02-6.02l-0.67-3.77C710.49,281.61,710.91,281.62,711.42,281.64z M706.35,291.48
			c-0.12-1.39-0.24-2.78-0.35-4.13c-0.57-6.85-1.03-12.92-1.23-15.57l0.53-0.07l2.5,14.17c0.31,1.8,0.63,3.68,0.95,5.58
			c-0.6,0.01-1.18,0.02-1.8,0.02C706.74,291.48,706.55,291.48,706.35,291.48z M696.56,261.96c1.22-1.98,3.7-3.39,6.72-3.78
			c3.01-0.38,5.84,0.38,7.52,1.97c-0.5,0.8-1.02,1.54-1.55,2.31c-0.62,0.9-1.27,1.84-1.9,2.87c-0.15-0.01-0.29-0.01-0.44,0.01
			l-5.28,0.67c-0.15,0.02-0.29,0.06-0.43,0.1c-0.87-0.84-1.73-1.59-2.56-2.3C697.93,263.2,697.25,262.61,696.56,261.96z
			 M702.53,281.72c0.15,1.85,0.31,3.82,0.48,5.88c0.1,1.25,0.21,2.54,0.33,3.83c-1.85-0.05-3.59-0.14-5.23-0.26l-2.52-9.04
			C697.29,281.99,699.59,281.85,702.53,281.72z M685.63,257.52l9.28,33.35c-3.28-0.36-6.04-0.83-8.26-1.36l-0.21-0.75l2.65-0.74
			c0.8-0.22,1.26-1.05,1.04-1.85c-0.22-0.8-1.05-1.26-1.85-1.04l-2.66,0.74l-1.99-7.12l2.66-0.74c0.8-0.22,1.26-1.05,1.04-1.85
			c-0.22-0.8-1.05-1.27-1.85-1.04l-2.67,0.74l-2.01-7.18l2.67-0.74c0.8-0.22,1.26-1.05,1.04-1.85c-0.22-0.8-1.05-1.27-1.85-1.04
			l-2.68,0.75l-1.74-6.22L685.63,257.52z M682.24,284.89l1.02,3.66c-2.19-0.76-3.36-1.5-3.42-2.01l0-0.02
			C679.87,286.34,680.37,285.69,682.24,284.89z M729.87,338.38c-0.52,1.42-8.86,4.07-22.93,4.07s-22.4-2.65-22.92-4.02l-3.86-47.97
			c6.06,3.09,19.01,4.02,26.78,4.02c7.78,0,20.72-0.93,26.78-4.02l-1.67,20.79c-4.33,0.91-10.64,0.95-18.18-0.69
			c-15.03-3.26-21.44-13.53-21.51-13.63c-0.43-0.71-1.35-0.94-2.06-0.51c-0.71,0.43-0.94,1.35-0.51,2.06
			c0.28,0.47,7.09,11.46,23.44,15.01c4.24,0.92,8.39,1.37,12.14,1.37c2.32,0,4.48-0.18,6.42-0.53L729.87,338.38z M738.39,307.43
			c-0.16,0.76-0.73,1.47-1.71,2.1c-0.44,0.28-0.96,0.55-1.55,0.8l0.61-7.55C737.68,304.47,738.65,306.14,738.39,307.43z"/>
	</g>
	<g class="st12">
		<g>
			<path class="st9" d="M190.82,251.54c0.03-0.3,0.06-0.6,0.06-0.89c0-5.85-5.03-10.61-11.22-10.61c-4.14,0-7.75,2.14-9.69,5.3
				c-1.14-0.49-2.38-0.75-3.64-0.75c-4.35,0-7.96,3.01-8.66,6.95c-3.52,0.62-6.19,3.55-6.19,7.07c0,3.97,3.4,7.2,7.58,7.2h30.31
				c4.18,0,7.58-3.23,7.58-7.2C196.95,255.1,194.31,252.18,190.82,251.54z M189.37,262.77h-30.31c-2.51,0-4.55-1.87-4.55-4.17
				c0-1.88,1.37-3.45,3.24-3.97c0.19,0.87,0.52,1.72,0.99,2.49l2.58-1.59c-0.49-0.79-0.75-1.7-0.75-2.61c0-2.92,2.58-5.3,5.76-5.3
				c0.86,0,1.69,0.17,2.46,0.51c-0.21,0.81-0.33,1.65-0.33,2.52h3.03c0-4.18,3.67-7.58,8.18-7.58s8.18,3.4,8.18,7.58
				c0,0.31-0.02,0.62-0.06,0.93c-1.05,0.21-2.05,0.62-2.93,1.24l1.74,2.48c0.8-0.56,1.76-0.86,2.77-0.86c2.51,0,4.55,1.87,4.55,4.17
				S191.88,262.77,189.37,262.77z"/>
			<path class="st9" d="M234.73,187.11c0.07-0.54,0.1-1.09,0.1-1.64c0-7.52-6.12-13.64-13.64-13.64c-5.17,0-9.68,2.9-12,7.15
				c-1.45-0.71-3.04-1.09-4.68-1.09c-5.85,0-10.61,4.76-10.61,10.61c0,1.86,0.49,3.7,1.42,5.31l2.62-1.52
				c-0.66-1.15-1.01-2.46-1.01-3.79c0-4.18,3.4-7.58,7.58-7.58c1.25,0,2.45,0.32,3.54,0.9c-0.32,1.16-0.51,2.38-0.51,3.65h3.03
				c0-5.85,4.76-10.61,10.61-10.61s10.61,4.76,10.61,10.61c0,0.56-0.06,1.12-0.15,1.67c-1.37,0.25-2.66,0.81-3.79,1.66l1.82,2.42
				c1.06-0.79,2.31-1.21,3.64-1.21c3.34,0,6.06,2.72,6.06,6.06c0,3.34-2.72,6.06-6.06,6.06h-33.34v3.03h33.34
				c5.01,0,9.09-4.08,9.09-9.09C242.41,191.55,239.08,187.79,234.73,187.11z"/>
			<path class="st9" d="M210.59,211.24h-11.15l-9.09-19.7h-7.15l1.52,19.7h-20.2l-7.58-13.64h-8.47v13.64v1.52v1.52h0.08
				c0.77,8.48,7.91,15.16,16.59,15.16h19.58l-0.69,8.98l3.02,0.23l0.71-9.21h8.35l-6,13l2.75,1.27l6.59-14.27h27.83v-1.52
				C227.26,218.72,219.78,211.24,210.59,211.24z M186.46,194.57h1.94l7.69,16.67h-8.35L186.46,194.57z M151.48,200.63h3.65
				l5.89,10.61h-9.55V200.63z M151.56,214.27h57.51v12.12h-43.95C158.11,226.39,152.32,221.08,151.56,214.27z M212.1,226.39v-12.03
				c6.31,0.7,11.34,5.72,12.04,12.03H212.1z"/>
			<rect x="160.57" y="218.82" class="st9" width="6.06" height="3.03"/>
			<rect x="172.7" y="218.82" class="st9" width="6.06" height="3.03"/>
			<rect x="184.82" y="218.82" class="st9" width="6.06" height="3.03"/>
			<rect x="196.95" y="218.82" class="st9" width="6.06" height="3.03"/>
		</g>
		<g>
			<path class="st9" d="M95.52,312.75c2.93,0,5.31-2.38,5.31-5.31s-2.38-5.31-5.31-5.31c-2.93,0-5.31,2.38-5.31,5.31
				S92.59,312.75,95.52,312.75z M95.52,304.79c1.46,0,2.65,1.19,2.65,2.65s-1.19,2.65-2.65,2.65s-2.65-1.19-2.65-2.65
				S94.06,304.79,95.52,304.79z"/>
			<path class="st9" d="M130.02,302.14c-2.93,0-5.31,2.38-5.31,5.31s2.38,5.31,5.31,5.31c2.93,0,5.31-2.38,5.31-5.31
				S132.95,302.14,130.02,302.14z M130.02,310.1c-1.46,0-2.65-1.19-2.65-2.65s1.19-2.65,2.65-2.65c1.46,0,2.65,1.19,2.65,2.65
				S131.48,310.1,130.02,310.1z"/>
			<path class="st9" d="M95.52,261.01h5.31v2.65h2.65v-2.65h13.27v2.65h2.65v-2.65h13.27v2.65h2.65v-2.65h5.31
				c3.66,0,6.63-2.98,6.63-6.63v-10.61c0-3.66-2.98-6.63-6.63-6.63H95.52c-3.66,0-6.63,2.98-6.63,6.63v10.61
				C88.89,258.03,91.86,261.01,95.52,261.01z M124.71,258.35h-13.27v-18.58h13.27V258.35z M127.37,239.78h2.65v18.58h-2.65V239.78z
				 M108.79,258.35h-2.65v-18.58h2.65V258.35z M144.61,243.76v10.61c0,2.2-1.79,3.98-3.98,3.98h-7.96v-18.58h7.96
				C142.83,239.78,144.61,241.56,144.61,243.76z M91.54,243.76c0-2.2,1.79-3.98,3.98-3.98h7.96v18.58h-7.96
				c-2.2,0-3.98-1.79-3.98-3.98V243.76z"/>
			<path class="st9" d="M152.58,276.93c-0.96,0-1.86,0.28-2.64,0.73c0-0.71,0-1.4,0-2.06c0-5.12-4.16-9.28-9.28-9.28H98.11
				c-2.93,0-5.47,1.88-6.34,4.68l-3.9,12.67l-6.35,0.71c-3.37,0.37-5.9,3.21-5.9,6.59v16.48c0,2.2,1.79,3.98,3.98,3.98h1.33v-2.65
				H79.6c-0.73,0-1.33-0.59-1.33-1.33v-1.33h5.39c-0.05,0.44-0.08,0.88-0.08,1.33c0,6.59,5.36,11.94,11.94,11.94
				c5.19,0,9.6-3.33,11.25-7.96h8.66v-2.65h-8.04c0.05-0.44,0.08-0.88,0.08-1.33s-0.03-0.89-0.08-1.33h10.77
				c-0.05,0.44-0.08,0.88-0.08,1.33c0,6.59,5.36,11.94,11.94,11.94c6.58,0,11.94-5.36,11.94-11.94v-29.19
				c0-2.19-1.79-3.98-3.98-3.98H99.23c-1.24,0-2.3,0.84-2.58,2.04L92,296.03c-3.6,1.11-6.47,3.89-7.73,7.43h-6v-12.5
				c0-2.03,1.52-3.73,3.54-3.96l8.09-0.9l4.41-14.34c0.52-1.68,2.04-2.81,3.8-2.81h42.55c3.65,0,6.63,2.97,6.63,6.63
				c0,1.95,0,4.16,0,6.48c0,0.05-0.02,0.1-0.02,0.16v15.92c0,0.03,0.01,0.06,0.01,0.09c0,1.89,0,3.65,0,5.22h-2.66v2.65h2.66
				c0,0.48,0,0.93,0,1.34c0,0.73-0.6,1.32-1.33,1.32h-1.33v2.65h1.33c2.19,0,3.98-1.78,3.98-3.97c0-1.24,0-2.86,0-4.73
				c0.78,0.45,1.68,0.73,2.65,0.73c2.93,0,5.31-2.38,5.31-5.31v-15.92C157.88,279.31,155.5,276.93,152.58,276.93z M130.02,316.73
				c-5.12,0-9.29-4.17-9.29-9.29s4.17-9.29,9.29-9.29c5.12,0,9.29,4.17,9.29,9.29S135.14,316.73,130.02,316.73z M139.31,278.25v6.63
				h-19.9v-7.96h18.58C138.71,276.93,139.31,277.52,139.31,278.25z M114.1,284.89v-7.96h2.65v7.96H114.1z M111.44,276.93v7.96H97.35
				l1.87-7.96H111.44z M96.73,287.54h17.37v13.27h2.65v-13.27h22.56v12.41c-2.19-2.71-5.54-4.45-9.29-4.45
				c-5.19,0-9.6,3.33-11.25,7.96h-12.01c-1.64-4.63-6.06-7.96-11.25-7.96c-0.23,0-0.45,0.02-0.67,0.03L96.73,287.54z M95.52,298.16
				c5.12,0,9.29,4.17,9.29,9.29s-4.17,9.29-9.29,9.29s-9.29-4.17-9.29-9.29S90.4,298.16,95.52,298.16z M155.23,298.16
				c0,1.46-1.19,2.65-2.65,2.65c-1.43,0-2.59-1.14-2.64-2.56c0-5.02,0.01-10.9,0.01-16.17c0.08-1.39,1.23-2.49,2.64-2.49
				c1.46,0,2.65,1.19,2.65,2.65V298.16z"/>
		</g>
		<g>
			<path class="st9" d="M282.64,253.68h-13.27v-6.63c0-3.66-2.98-6.63-6.63-6.63h-29.19c-3.66,0-6.63,2.98-6.63,6.63v6.63h-13.27
				c-3.66,0-6.63,2.98-6.63,6.63v47.77c0,3.66,2.98,6.63,6.63,6.63h69c3.66,0,6.63-2.98,6.63-6.63v-47.77
				C289.27,256.66,286.3,253.68,282.64,253.68z M270.7,290.83H276c0.73,0,1.33,0.59,1.33,1.33v7.96c0,0.73-0.59,1.33-1.33,1.33
				h-5.31c-0.73,0-1.33-0.59-1.33-1.33v-7.96C269.37,291.43,269.96,290.83,270.7,290.83z M274.68,288.18h-2.65v-31.84h2.65V288.18z
				 M266.72,247.05v6.63h-2.65v-5.31c0-1.46-1.19-2.65-2.65-2.65v-2.65h1.33C264.93,243.07,266.72,244.85,266.72,247.05z
				 M237.52,245.72v-2.65h21.23v2.65H237.52z M261.41,248.38v5.31h-26.54v-5.31H261.41z M229.56,247.05c0-2.2,1.79-3.98,3.98-3.98
				h1.33v2.65c-1.46,0-2.65,1.19-2.65,2.65v5.31h-2.65V247.05z M220.28,290.83h5.31c0.73,0,1.33,0.59,1.33,1.33v7.96
				c0,0.73-0.59,1.33-1.33,1.33h-5.31c-0.73,0-1.33-0.59-1.33-1.33v-7.96C218.95,291.43,219.54,290.83,220.28,290.83z
				 M224.26,288.18h-2.65v-31.84h2.65V288.18z M286.62,308.08c0,2.2-1.79,3.98-3.98,3.98h-5.31v-5.31h-2.65v5.31h-2.65v-5.31h-2.65
				v5.31h-42.46v-5.31h-2.65v5.31h-2.65v-5.31h-2.65v5.31h-5.31c-2.2,0-3.98-1.79-3.98-3.98v-47.77c0-2.2,1.79-3.98,3.98-3.98h5.31
				v32.09c-1.54,0.55-2.65,2.01-2.65,3.74v7.96c0,2.2,1.79,3.98,3.98,3.98h5.31c2.2,0,3.98-1.79,3.98-3.98v-7.96
				c0-1.73-1.11-3.19-2.65-3.74v-32.09h42.46v32.09c-1.54,0.55-2.65,2.01-2.65,3.74v7.96c0,2.2,1.79,3.98,3.98,3.98H276
				c2.2,0,3.98-1.79,3.98-3.98v-7.96c0-1.73-1.11-3.19-2.65-3.74v-32.09h5.31c2.2,0,3.98,1.79,3.98,3.98V308.08z"/>
			<path class="st9" d="M246.81,265.62h-15.92v10.61h15.92V265.62z M244.16,273.59h-10.61v-5.31h10.61V273.59z"/>
			<path class="st9" d="M243.85,289.16l2.7,9.92l15.16-3.92l-2.7-9.92L243.85,289.16z M248.43,295.86l-1.31-4.8l10.02-2.59l1.31,4.8
				L248.43,295.86z"/>
		</g>
	</g>
</g>
</svg>
