<?xml version="1.0" encoding="utf-8"?>
<!-- Generator: Adobe Illustrator 25.0.0, SVG Export Plug-In . SVG Version: 6.00 Build 0)  -->
<svg version="1.1" id="Layer_1" xmlns="http://www.w3.org/2000/svg" xmlns:xlink="http://www.w3.org/1999/xlink" x="0px" y="0px"
	 viewBox="0 0 250 250" style="enable-background:new 0 0 250 250;" xml:space="preserve">
<style type="text/css">
	.st0{display:none;}
	.st1{display:inline;}
	.st2{fill:#231F20;}
	.st3{fill:none;stroke:#000000;stroke-width:3;stroke-miterlimit:10;}
	.st4{fill:none;stroke:#000000;stroke-width:2.9998;stroke-miterlimit:9.9994;}
	.st5{fill:none;stroke:#000000;stroke-width:3.0001;stroke-miterlimit:10.0002;}
	.st6{fill:none;stroke:#000000;stroke-width:3;stroke-linecap:round;stroke-miterlimit:10;}
	.st7{fill:#9C8657;}
</style>
<g id="Layer_1_1_" class="st0">
	<g class="st1">
		<g>
			<path class="st2" d="M26.09,165.97c0.59,2.66,2.12,5.1,4.55,6.66l25.92,16.59c2.32,1.48,5.18,1.85,7.76,1.38l0.07-0.12
				c2.58-0.47,4.92-2.07,6.59-4.43l0.07-0.12c1.36-2.39,1.84-5.18,1.26-7.84c-0.12-0.57-0.29-1.33-0.64-2.05
				c0.91,0.1,1.72,0.12,2.66-0.09c2.16-0.57,4.16-1.91,5.53-3.8l0.07-0.12l2.92-4.82c1.6-2.24,2.99-4.94,3.88-8.61
				c0.62-3.51,0.8-8.13-0.15-14.29l2.37-3.7l0.07-0.12l2.96-4.63l1.26-1.97c0.67-1.04,0.8-2.26,0.54-3.4
				c-0.25-1.14-0.88-2.2-1.92-2.86l-20.14-12.89c-1.04-0.67-2.26-0.79-3.4-0.54s-2.2,0.88-2.86,1.92l-1.26,1.97l-2.96,4.63
				l-0.07,0.12l-2.37,3.7c-5.99,1.72-10.11,3.81-13.04,5.85c-3.08,2.27-4.83,4.74-6.24,6.94L27.47,158.2
				C25.99,160.52,25.62,163.38,26.09,165.97z M67.8,117.62c0.22-0.35,0.63-0.74,1.13-0.74c0.38-0.08,0.99-0.02,1.34,0.2l20.14,12.89
				c0.35,0.22,0.66,0.75,0.74,1.13c0.08,0.38,0.02,0.99-0.2,1.34l-0.52,0.81l-23.14-14.81L67.8,117.62z M65.8,120.74l23.14,14.81
				l-1.48,2.32l-23.14-14.81L65.8,120.74z M62.84,125.37l23.14,14.81l-1.19,1.85l-23.22-14.7L62.84,125.37z M41.93,140.71
				c1.26-1.97,2.78-4.09,5.45-5.97c2.74-1.99,6.48-4.01,12.09-5.64l24.42,15.63c0.87,5.78,0.72,10.09,0.06,13.42
				s-1.96,5.6-3.21,7.57l-3.11,4.86l-0.07,0.12c-1.01,1.32-2.28,2.29-3.8,2.63l-0.12-0.07c-1.52,0.33-3.16,0.09-4.55-0.79
				l-1.28-0.82l-10.76-6.89l-0.12-0.07c-1.39-0.89-2.29-2.28-2.63-3.8c-0.33-1.52-0.1-3.16,0.79-4.55c0.96-1.5,2.36-2.41,3.87-2.74
				c1.52-0.33,3.16-0.09,4.67,0.87l6.71,4.3c0.69,0.44,1.45,0.28,1.9-0.42c0.37-0.57,0.28-1.45-0.42-1.9l-6.71-4.3
				c-2.08-1.33-4.46-1.71-6.73-1.21c-2.28,0.5-4.27,1.83-5.61,3.91c-1.26,1.97-1.56,4.22-1.17,6.43l-3.7-2.37
				c-2.43-1.56-5.22-2.04-7.88-1.45c-2.66,0.58-4.99,2.19-6.54,4.62c-0.37,0.58-0.28,1.45,0.42,1.9c0.58,0.37,1.52,0.17,1.9-0.42
				c1.18-1.85,2.92-3.02,4.82-3.44c1.9-0.42,3.96-0.07,5.81,1.11l9.14,5.85l10.76,6.89c1.85,1.19,2.91,2.84,3.33,4.74
				c0.41,1.9,0.07,3.96-0.92,5.77l-0.07,0.12c-1.23,1.66-2.96,2.84-4.85,3.26l-0.08,0.12c-1.82,0.29-3.96,0.07-5.7-1.04
				l-25.92-16.59c-1.73-1.11-2.83-2.96-3.25-4.86l-0.11-0.07c-0.42-1.9-0.08-3.96,1.03-5.7L41.93,140.71z"/>
			<path class="st2" d="M43.48,143.65c0,0,5.91-9.76,15.88-11.04c0.38-0.08,0.6-0.43,0.52-0.81c0.03-0.31-0.31-0.53-0.73-0.64
				c-10.72,1.46-16.82,11.75-16.89,11.86c-0.15,0.23,0.05,0.69,0.28,0.84C42.87,144.08,43.25,144,43.48,143.65z"/>
			<path class="st2" d="M37.3,172.16l20.37,13.03c0.35,0.22,0.73,0.14,0.95-0.2c0.22-0.35,0.14-0.73-0.21-0.95L38.04,171
				c-0.35-0.22-0.73-0.14-0.95,0.21C36.87,171.56,36.95,171.94,37.3,172.16z"/>
		</g>
		<g>
			<path class="st2" d="M143.94,77.55l-0.14-0.14c-2.61-2.61-6.32-4.26-10.44-4.26h-0.69l-5.22-16.08c0.14-0.14,0.27-0.27,0.41-0.41
				c0.96-0.96,1.52-2.2,1.52-3.57s-0.55-2.75-1.52-3.57v-0.14c-0.96-0.97-2.2-1.51-3.71-1.51c-1.37,0-2.75,0.55-3.57,1.51
				c-0.96,0.96-1.65,2.2-1.65,3.71c0,1.38,0.69,2.61,1.65,3.57c0.14,0.14,0.27,0.27,0.41,0.41l-5.22,16.08h-0.82
				c-3.99,0-7.7,1.65-10.44,4.26c-2.61,2.61-4.26,6.32-4.26,10.31v0.14v7.42v0.14v47.27v5.77c0,4.12,1.65,7.69,4.26,10.3
				c2.75,2.75,6.32,4.4,10.44,4.4h18.41c4.12,0,7.83-1.65,10.44-4.4c2.61-2.61,4.26-6.18,4.26-10.3v-5.77V95.42v-0.14v-7.42v-0.14
				C148.06,83.74,146.42,80.17,143.94,77.55z M133.22,87.72c0.14-0.69,0.27-1.24,0.82-1.65c0.27-0.27,0.69-0.55,1.1-0.69
				c0.14,0,0.27,0,0.55,0c0.55,0,1.24,0.27,1.65,0.69c0.41,0.41,0.69,0.96,0.69,1.65v0.14c0,0.55-0.27,1.1-0.69,1.65
				c-0.41,0.41-1.1,0.69-1.65,0.69c-0.69,0-1.24-0.27-1.65-0.82c-0.55-0.41-0.69-0.96-0.82-1.51L133.22,87.72L133.22,87.72z
				 M122.51,51.31c0.41-0.41,0.96-0.69,1.65-0.69s1.24,0.27,1.79,0.69v0.14c0.41,0.41,0.69,0.96,0.69,1.65
				c0,0.55-0.27,1.24-0.69,1.65c-0.55,0.41-1.1,0.69-1.79,0.69s-1.24-0.27-1.65-0.69c-0.55-0.41-0.82-1.1-0.82-1.65
				C121.68,52.41,121.96,51.72,122.51,51.31z M123.6,58.18c0.14,0,0.41,0,0.55,0c0.27,0,0.42,0,0.69,0l4.94,14.98h-11.13
				L123.6,58.18z M117.7,75.91h13.06l2.33,7.42c-0.41,0.27-0.69,0.55-1.1,0.82c-0.55,0.69-0.96,1.38-1.24,2.2H117.7
				c-0.27-0.82-0.69-1.65-1.37-2.2c-0.27-0.27-0.69-0.55-1.1-0.82L117.7,75.91z M115.09,87.72v0.14c0,0.55-0.27,1.1-0.69,1.65
				c-0.42,0.41-0.97,0.69-1.65,0.69s-1.24-0.27-1.65-0.82c-0.41-0.41-0.69-0.96-0.69-1.51v-0.14c0-0.69,0.27-1.24,0.69-1.65
				c0.41-0.41,0.96-0.69,1.65-0.69s1.24,0.27,1.65,0.69C114.81,86.49,115.09,87.03,115.09,87.72z M106.43,79.34
				c2.2-2.06,5.08-3.43,8.38-3.43l-2.2,6.73c-1.37,0-2.61,0.55-3.44,1.51c-0.69,0.55-1.1,1.38-1.37,2.2h-4.67
				C103.41,83.74,104.65,81.26,106.43,79.34z M141.88,156.83c-2.2,2.2-5.22,3.57-8.52,3.57h-18.41c-3.3,0-6.32-1.37-8.52-3.57
				c-1.78-1.78-3.02-4.26-3.44-7.01h42.32C144.91,152.58,143.67,155.05,141.88,156.83z M145.32,147.08H103v-3.02h5.91
				c0.69,0,1.38-0.55,1.38-1.37v-2.75h4.81v2.75c0,0.82,0.55,1.37,1.37,1.37h15.39c0.82,0,1.37-0.55,1.37-1.37v-2.75h4.81v2.75
				c0,0.82,0.69,1.37,1.37,1.37h0.14h5.77L145.32,147.08L145.32,147.08z M145.32,141.31h-4.54v-2.75c0-0.82-0.55-1.37-1.38-1.37
				h-7.55c-0.69,0-1.37,0.55-1.37,1.37v2.75h-12.64v-2.75c0-0.82-0.69-1.37-1.37-1.37h-7.56c-0.82,0-1.37,0.55-1.37,1.37v2.75H103
				V96.65h4.54v2.88c0,0.82,0.55,1.38,1.37,1.38h7.56c0.69,0,1.37-0.55,1.37-1.38v-2.88h12.64v2.88c0,0.82,0.69,1.38,1.37,1.38h7.55
				c0.83,0,1.38-0.55,1.38-1.38v-2.88h4.54V141.31z M145.32,93.9h-5.77h-0.14c-0.69,0-1.37,0.69-1.37,1.37v0.14v2.75h-4.81v-2.75
				v-0.14c0-0.69-0.55-1.37-1.37-1.37h-15.39c-0.82,0-1.37,0.69-1.37,1.37v0.14v2.75h-4.81v-2.75v-0.14c0-0.69-0.69-1.37-1.38-1.37
				H103v-4.81h4.81c0.27,0.97,0.69,1.65,1.37,2.34c0.83,0.82,2.2,1.51,3.57,1.51c1.38,0,2.61-0.69,3.57-1.51
				c0.69-0.69,1.1-1.37,1.37-2.34h13.06c0.27,0.97,0.69,1.65,1.24,2.34c0.96,0.82,2.2,1.51,3.71,1.51c1.37,0,2.61-0.69,3.57-1.51
				v-0.14c0.69-0.55,1.1-1.38,1.38-2.2h4.67L145.32,93.9L145.32,93.9z M140.65,86.35c-0.27-0.82-0.69-1.65-1.38-2.2
				c-0.82-0.96-2.06-1.51-3.43-1.51l-2.2-6.73c3.16,0,6.04,1.37,8.25,3.43v0.14c1.78,1.79,3.02,4.26,3.44,6.87H140.65z"/>
			<path class="st2" d="M113.3,153.13h26.8c0.41,0,0.69-0.27,0.69-0.69c0-0.27-0.27-0.69-0.69-0.69h-26.8
				c-0.41,0-0.69,0.42-0.69,0.69C112.61,152.85,112.89,153.13,113.3,153.13z"/>
			<path class="st2" d="M142.02,132.79c0.41,0,0.69-0.27,0.69-0.69v-26.79c0-0.42-0.27-0.69-0.69-0.69c-0.27,0-0.69,0.27-0.69,0.69
				v26.79C141.33,132.52,141.74,132.79,142.02,132.79z"/>
		</g>
		<g>
			<path class="st2" d="M199.31,182.34c0.23-0.31,0.15-0.85-0.16-1.09c-0.31-0.23-0.72-0.17-0.96,0.14l-10.11,13.66
				c-0.23,0.31-0.17,0.72,0.14,0.95s0.72,0.17,0.95-0.14L199.31,182.34z"/>
			<path class="st2" d="M188.91,109.84c0.23-0.31,0.17-0.72-0.14-0.95c-0.31-0.23-0.72-0.17-0.96,0.14l-10.27,13.55
				c-0.23,0.31-0.17,0.72,0.14,0.95c0.31,0.23,0.72,0.17,0.95-0.14L188.91,109.84z"/>
			<path class="st2" d="M192.17,200.29l12.36-16.35c0.7-0.93,0.95-2.08,0.8-3.17l-0.02-0.14c-0.16-1.09-0.72-2.12-1.66-2.82
				l-0.13,0.02l18.99-25.35c1.26-1.85,1.8-3.87,1.51-5.91c-0.27-1.9-1.38-3.83-3.09-5.11c-1.71-1.28-3.73-1.83-5.77-1.53
				c-2.04,0.29-3.83,1.38-5.11,3.1l-0.14,0.02l-24.47,32.66c-0.81,1.09-1.96,1.81-3.32,2c-1.23,0.18-2.66-0.17-3.75-0.99
				s-1.83-2.1-2-3.32c-0.19-1.36,0.17-2.66,0.99-3.75l4.66-6.22L182,163.3l2.11-2.66l-0.02-0.14l17.71-23.64
				c1.28-1.71,1.83-3.73,1.53-5.77c-0.29-2.04-1.38-3.83-3.09-5.11c-1.73-1.42-3.86-1.8-5.77-1.53c-2.04,0.29-3.85,1.25-5.27,2.98
				l0.02,0.14l-24.46,32.66c-0.82,1.09-2.1,1.83-3.32,2c-1.36,0.19-2.66-0.17-3.75-0.99c-1.22-0.8-1.83-2.1-2.02-3.46
				c-0.18-1.22,0.04-2.64,0.99-3.75l18.99-25.35l0.02,0.14c0.93,0.7,2.21,0.93,3.3,0.77c1.09-0.16,2.12-0.72,2.82-1.65L194,111.47
				c0.7-0.93,1.09-2.1,0.93-3.19c-0.29-1.07-0.86-2.1-1.79-2.8l-2.36-1.88c-0.93-0.7-2.08-0.95-3.17-0.79l-0.14,0.02
				c-1.09,0.16-2.12,0.72-2.81,1.65l-12.21,16.47c-0.7,0.93-0.95,2.08-0.79,3.17s0.72,2.12,1.65,2.82l0.02,0.14l-18.99,25.35
				c-1.28,1.71-1.67,3.85-1.4,5.75c0.29,2.04,1.27,3.98,2.98,5.26c1.71,1.28,3.87,1.81,5.91,1.51c1.9-0.27,3.83-1.38,5.11-3.09
				l24.47-32.66l0.11-0.15c0.82-1.09,1.98-1.67,3.35-1.87c1.22-0.17,2.64,0.04,3.75,0.99c1.09,0.82,1.81,1.96,2.01,3.32
				c0.18,1.23-0.18,2.67-0.99,3.75l-17.71,23.64l-2.09,2.8l0.02,0.14l-4.68,6.09c-1.28,1.71-1.8,3.87-1.51,5.91
				c0.27,1.91,1.38,3.83,3.09,5.11c1.71,1.28,3.73,1.82,5.78,1.53c2.04-0.29,3.82-1.38,5.1-3.09l24.47-32.66l0.14-0.02
				c0.82-1.09,2.1-1.83,3.32-2c1.22-0.18,2.66,0.17,3.75,0.99s1.83,2.1,2.01,3.32c0.19,1.36-0.17,2.66-0.99,3.75l-18.97,25.49
				l-0.16-0.12c-0.93-0.7-2.08-0.95-3.17-0.8c-1.09,0.16-2.12,0.72-2.82,1.65l-12.37,16.35c-0.7,0.93-0.93,2.21-0.77,3.3
				c0.16,1.09,0.72,2.12,1.65,2.82l2.47,1.73c0.95,0.84,2.1,1.09,3.18,0.93l0.14-0.02C190.46,201.93,191.47,201.23,192.17,200.29z
				 M177.43,126.62l-1.24-0.93l-1.24-0.93c-0.32-0.23-0.5-0.62-0.7-1.01c0.08-0.43,0.15-0.85,0.39-1.17l12.21-16.47
				c0.37-0.33,0.76-0.52,1.03-0.56l0.14-0.02c0.27-0.04,0.7,0.04,1.15,0.25l2.35,1.88c0.31,0.23,0.65,0.6,0.7,1.01
				c0.06,0.41-0.16,0.86-0.39,1.17l-12.21,16.46c-0.37,0.33-0.62,0.51-1.03,0.57C178.17,126.93,177.75,126.85,177.43,126.62z
				 M187.82,198.98l-2.47-1.73c-0.33-0.37-0.5-0.62-0.56-1.03s0.01-0.83,0.23-1.28l12.37-16.35c0.23-0.31,0.62-0.5,1.03-0.56
				s0.84,0.02,1.15,0.25l1.24,0.93l1.24,0.93c0.31,0.23,0.51,0.62,0.57,1.03c0.06,0.41-0.02,0.84-0.26,1.15l-12.37,16.35
				c-0.21,0.45-0.6,0.64-1.01,0.7C188.57,199.42,188.15,199.35,187.82,198.98z"/>
		</g>
	</g>
</g>
<g id="Layer_4" class="st0">
	<g class="st1">
		<path d="M78.47,161.25c-3.23-0.45-6.99-0.79-11.07-1.03c1.68-4.63,1.44-9.32-0.66-12.37l9.91-18.97c0.35-0.66,0.53-1.4,0.53-2.15
			c0-1.78-1.05-3.42-2.68-4.18c-1.15-0.54-2.44-0.58-3.63-0.12c-1.19,0.46-2.11,1.36-2.6,2.55l-8.14,19.74
			c-4.12,0.39-8.35,3.91-10.74,9.04c-1.01,2.16-1.49,4.24-1.48,6.15c-7.1,0.16-13.65,0.62-18.85,1.34
			c-9.87,1.36-11.2,3.07-11.2,4.57c0,15.18,16.11,27.52,35.9,27.52s35.9-12.35,35.9-27.52C89.67,164.33,88.34,162.61,78.47,161.25z
			 M61.63,148.24l1.45,0.68c-0.01,2-0.85,5.61-2.85,9.89c-0.18,0.39-0.36,0.76-0.54,1.11c-1.66-0.04-3.35-0.06-5.07-0.07
			c0.32-0.91,0.74-1.92,1.26-3.05C57.88,152.52,60.1,149.55,61.63,148.24z M56.29,164.98c-0.83,0.8-1.59,1.16-2.01,0.96l0,0
			c-0.52-0.24-0.83-1.43-0.34-3.7c1.53,0,3,0.02,4.44,0.05C57.53,163.63,56.81,164.47,56.29,164.98z M50.72,162.25
			c0.26,0,0.52,0,0.78-0.01c-0.08,0.44-0.14,0.85-0.16,1.23C51.09,163.09,50.88,162.69,50.72,162.25z M61.11,162.34
			c0.88,0.03,1.76,0.05,2.6,0.09c-1.54,2.49-3.51,3.92-5.68,4.18C59.06,165.6,60.1,164.16,61.11,162.34z M62.32,159.99
			c0.03-0.06,0.06-0.11,0.08-0.17c1.62-3.47,2.68-6.88,2.99-9.48c1.1,2.57,0.93,6.23-0.52,9.75
			C64.03,160.05,63.18,160.02,62.32,159.99z M70.47,125.9c0.24-0.57,0.69-1.01,1.26-1.23s1.19-0.2,1.75,0.06
			c0.79,0.37,1.29,1.16,1.29,2.01c0,0.36-0.09,0.72-0.26,1.04L64.5,146.94l-2.27-1.06L70.47,125.9z M51.56,154.77
			c1.74-3.74,4.65-6.52,7.51-7.39c-1.8,1.92-3.73,4.93-5.35,8.4c-0.72,1.54-1.24,2.88-1.61,4.07c-0.6,0-1.21,0-1.81,0.01
			C50.29,158.31,50.71,156.59,51.56,154.77z M48.23,162.3c0.03,0.11,0.05,0.22,0.08,0.32c0.75,2.43,2.46,4.32,4.95,5.48l0,0l0,0l0,0
			c1.36,0.63,2.72,0.94,4.04,0.94c3.6,0,6.89-2.31,9.07-6.48c11.74,0.64,19.18,2.1,20.74,3.26c-2.05,1.54-14.38,3.59-33.34,3.59
			s-31.28-2.05-33.34-3.59C22.27,164.44,32.43,162.65,48.23,162.3z M53.76,190.95c-17.29,0-31.55-9.87-33.32-22.49
			c1.65,0.68,4.33,1.34,8.62,1.93c6.61,0.91,15.38,1.41,24.7,1.41s18.1-0.5,24.7-1.41c4.29-0.59,6.96-1.25,8.62-1.93
			C85.32,181.08,71.05,190.95,53.76,190.95z"/>
		<g>
			<path d="M231.98,142.57c-1.02-7.29-7.12-12.88-14.52-13.3c-1.28-0.07-2.56,0.02-3.81,0.26c-3.67-6.1-10.27-9.86-17.42-9.86
				s-13.75,3.76-17.44,9.85c-2.64-0.49-5.28-0.32-7.83,0.54c-5.91,1.99-10.17,7.47-10.6,13.63c-0.42,6.01,2.55,11.6,7.75,14.59
				c1.1,0.63,1.78,1.82,1.78,3.09v28.91c0,0.66,0.54,1.2,1.2,1.2h50.26c0.66,0,1.2-0.54,1.2-1.2v-28.91c0-1.28,0.69-2.45,1.85-3.12
				C229.9,155.05,232.87,148.9,231.98,142.57z M220.17,180.7h-5.98v2.39h5.98v5.98H172.3v-5.98h32.31v-2.39H172.3v-2.39h47.87V180.7
				z M223.21,156.17c-1.9,1.11-3.04,3.05-3.04,5.19v14.55h-4.79v-11.97h-2.39v11.97h-33.51v-7.18h-2.39v7.18h-4.79v-14.55
				c0-2.12-1.14-4.1-2.98-5.16c-4.4-2.54-6.92-7.26-6.56-12.35c0.36-5.22,3.97-9.85,8.98-11.52c2.39-0.81,4.87-0.91,7.37-0.3
				c3.09,0.78,5.8,2.66,7.63,5.31l1.96-1.36c-1.85-2.68-4.48-4.69-7.49-5.79c3.3-5.05,8.94-8.13,15.02-8.13
				c6.58,0,12.63,3.6,15.77,9.39c1.15,2.08,1.84,4.34,2.08,6.7c0.06,0.65,0.1,1.27,0.1,1.85h2.39c0-0.66-0.04-1.35-0.11-2.08
				c-0.22-2.15-0.78-4.21-1.65-6.16c0.83-0.12,1.66-0.16,2.51-0.11c6.15,0.35,11.43,5.17,12.28,11.24
				C230.35,148.26,227.85,153.47,223.21,156.17z"/>
			<rect x="177.09" y="163.95" width="2.39" height="2.39"/>
			<rect x="212.99" y="159.16" width="2.39" height="2.39"/>
			<rect x="207.01" y="180.7" width="4.79" height="2.39"/>
		</g>
		<g>
			<path d="M105.68,87.3l-0.47-0.98l-2.63-10.06c-0.28-1.04-0.98-1.89-1.95-2.35c-0.97-0.45-2.07-0.45-3.04,0l-5.65,2.63
				c-0.97,0.45-1.69,1.3-1.95,2.33c-0.28,1.03-0.08,2.12,0.54,2.99l6.01,8.5L97,91.35c0.54,1.16,1.5,2.03,2.69,2.48
				c0.54,0.19,1.09,0.29,1.64,0.29c0.69,0,1.38-0.14,2.02-0.44c1.16-0.54,2.05-1.51,2.48-2.7C106.27,89.77,106.21,88.46,105.68,87.3
				z M97.98,88.25l-5.5-7.75c-0.29-0.41-0.24-0.8-0.18-1.01c0.05-0.2,0.2-0.57,0.65-0.78l5.65-2.63c0.18-0.08,0.36-0.11,0.5-0.11
				c0.23,0,0.41,0.06,0.51,0.11c0.19,0.1,0.53,0.31,0.65,0.78l2.42,9.21L97.98,88.25z M103.58,90.14c-0.22,0.61-0.66,1.09-1.23,1.35
				c-0.59,0.28-1.23,0.3-1.83,0.08s-1.08-0.66-1.35-1.23l4.33-2.02C103.77,88.89,103.8,89.54,103.58,90.14z"/>
			<path d="M158.42,103.39h-4.79v-1.2c0-0.66-0.54-1.2-1.2-1.2H97.39c-0.66,0-1.2,0.54-1.2,1.2v1.2H91.4
				c-1.32,0-2.39,1.08-2.39,2.39v5.98c0,3.3,2.68,5.98,5.98,5.98h1.2v4.79c0,3.3,2.68,5.98,5.98,5.98h45.47
				c3.3,0,5.98-2.68,5.98-5.98v-4.79h1.2c3.3,0,5.98-2.68,5.98-5.98v-5.98C160.81,104.47,159.73,103.39,158.42,103.39z
				 M96.19,109.42v2.39v3.54h-1.2c-1.97,0-3.59-1.62-3.59-3.59v-5.98h4.79C96.19,105.78,96.19,109.42,96.19,109.42z M151.24,116.55
				v5.98c0,1.97-1.62,3.59-3.59,3.59h-45.47c-1.97,0-3.59-1.62-3.59-3.59v-5.98v-4.56c1.18,0.2,2.03,0.53,2.9,0.88
				c1.52,0.61,3.09,1.23,6.19,1.23c3.1,0,4.67-0.63,6.19-1.23c1.37-0.55,2.66-1.06,5.3-1.06s3.93,0.52,5.3,1.06
				c1.52,0.61,3.08,1.23,6.19,1.23c3.1,0,4.67-0.63,6.19-1.23c1.37-0.55,2.66-1.06,5.3-1.06s3.93,0.52,5.3,1.06
				c1.06,0.43,2.17,0.86,3.8,1.08v2.6H151.24z M151.24,104.59v6.95c-1.19-0.2-2.03-0.53-2.91-0.88c-1.52-0.61-3.09-1.23-6.19-1.23
				s-4.67,0.63-6.19,1.23c-1.37,0.55-2.66,1.06-5.3,1.06s-3.93-0.52-5.3-1.06c-1.52-0.61-3.09-1.23-6.19-1.23
				c-3.1,0-4.67,0.63-6.19,1.23c-1.37,0.55-2.66,1.06-5.3,1.06s-3.93-0.52-5.3-1.06c-1.06-0.43-2.17-0.86-3.79-1.08v-4.99v-1.2
				h52.65v1.2H151.24z M158.42,111.77c0,1.97-1.62,3.59-3.59,3.59h-1.2v-1.24v-2.39v-5.94h4.79V111.77z"/>
			<path d="M151.24,144.08v-2.39c0-0.66-0.54-1.2-1.2-1.2h-1.87c0.42-0.71,0.67-1.52,0.67-2.39c0-2.32-3.24-6.06-3.9-6.79
				c-0.44-0.5-1.33-0.5-1.77,0c-0.66,0.73-3.9,4.46-3.9,6.79c0,0.87,0.25,1.69,0.67,2.39h-1.87c-0.66,0-1.2,0.54-1.2,1.2v2.39h-4.79
				v-2.39c0-0.66-0.54-1.2-1.2-1.2h-1.87c0.42-0.71,0.67-1.52,0.67-2.39c0-2.32-3.24-6.06-3.9-6.79c-0.44-0.5-1.33-0.5-1.77,0
				c-0.66,0.73-3.9,4.46-3.9,6.79c0,0.87,0.25,1.69,0.67,2.39h-1.87c-0.66,0-1.2,0.54-1.2,1.2v2.39h-4.79v-2.39
				c0-0.66-0.54-1.2-1.2-1.2h-1.87c0.42-0.71,0.67-1.52,0.67-2.39c0-2.32-3.24-6.06-3.9-6.79c-0.44-0.5-1.33-0.5-1.77,0
				c-0.66,0.73-3.9,4.46-3.9,6.79c0,0.87,0.25,1.69,0.67,2.39h-1.87c-0.66,0-1.2,0.54-1.2,1.2v2.39c-0.66,0-1.2,0.54-1.2,1.2v3.59
				c0,0.66,0.54,1.2,1.2,1.2h52.65c0.66,0,1.2-0.54,1.2-1.2v-3.59C152.43,144.62,151.9,144.08,151.24,144.08z M144.06,133.96
				c1.27,1.59,2.39,3.39,2.39,4.13c0,1.32-1.08,2.39-2.39,2.39c-1.32,0-2.39-1.08-2.39-2.39
				C141.66,137.33,142.79,135.54,144.06,133.96z M139.27,142.88h9.57v1.2h-9.57L139.27,142.88L139.27,142.88z M124.91,133.96
				c1.27,1.59,2.39,3.39,2.39,4.13c0,1.32-1.08,2.39-2.39,2.39c-1.32,0-2.39-1.08-2.39-2.39
				C122.52,137.33,123.64,135.54,124.91,133.96z M120.12,142.88h9.57v1.2h-9.57V142.88z M105.76,133.96
				c1.27,1.59,2.39,3.39,2.39,4.13c0,1.32-1.08,2.39-2.39,2.39c-1.32,0-2.39-1.08-2.39-2.39
				C103.37,137.33,104.49,135.54,105.76,133.96z M100.98,142.88h9.57v1.2h-9.57V142.88z M150.04,147.67H99.78v-1.2h50.26V147.67z"/>
			<rect x="105.76" y="117.75" width="2.39" height="2.39"/>
			<rect x="112.94" y="121.34" width="2.39" height="2.39"/>
			<rect x="118.93" y="115.36" width="2.39" height="2.39"/>
			<rect x="128.5" y="120.14" width="2.39" height="2.39"/>
			<rect x="140.47" y="114.16" width="2.39" height="2.39"/>
			<rect x="136.88" y="121.34" width="2.39" height="2.39"/>
			<path d="M127.25,95.61c0-0.99,0.81-1.8,1.8-1.8c2.31,0,4.19-1.88,4.19-4.19v-1.8h-2.39v1.8c0,0.99-0.81,1.8-1.8,1.8
				c-2.31,0-4.19,1.88-4.19,4.19v0.6h2.39V95.61z"/>
			<path d="M136.82,95.61c0-0.99,0.81-1.8,1.8-1.8c2.31,0,4.19-1.88,4.19-4.19v-1.8h-2.39v1.8c0,0.99-0.81,1.8-1.8,1.8
				c-2.31,0-4.19,1.88-4.19,4.19v0.6h2.39V95.61z"/>
			<path d="M146.4,95.61c0-0.99,0.81-1.8,1.8-1.8c2.31,0,4.19-1.88,4.19-4.19v-1.8H150v1.8c0,0.99-0.81,1.8-1.8,1.8
				c-2.31,0-4.19,1.88-4.19,4.19v0.6h2.39V95.61z"/>
			<path d="M145.42,57.76c-1.38-1.43-3.65-1.47-5.08-0.11L124.1,73.24c-2.45-0.71-5.11-0.07-6.98,1.71l-8.63,8.29
				c-0.36,0.34-0.46,0.85-0.29,1.29c0.05,0.15,0.14,0.29,0.26,0.4l8.27,8.63c0.22,0.24,0.53,0.37,0.84,0.37
				c0.11,0.01,0.23-0.01,0.34-0.04c0.2-0.05,0.37-0.15,0.53-0.3l8.63-8.27c1.87-1.79,2.6-4.43,2-6.89l16.24-15.58
				c0.69-0.67,1.08-1.56,1.1-2.52C146.44,59.36,146.09,58.45,145.42,57.76z M117.64,91.03l-6.63-6.91l1.73-1.66l6.63,6.91
				L117.64,91.03z M144.02,60.27c0,0.32-0.13,0.62-0.36,0.84L126.88,77.2c-0.34,0.34-0.46,0.84-0.29,1.28
				c0.66,1.79,0.2,3.8-1.17,5.11l-4.32,4.14l-6.63-6.91l4.32-4.14c1.37-1.32,3.39-1.69,5.15-0.97c0.44,0.19,0.94,0.1,1.29-0.24
				L142,59.38c0.15-0.15,0.33-0.25,0.52-0.3c0.4-0.11,0.87,0.01,1.18,0.33C143.91,59.64,144.03,59.94,144.02,60.27z"/>
		</g>
	</g>
</g>
<g id="Layer_3" class="st0">
	<g class="st1">
		<g>
			<path class="st3" d="M38.56,156.35c6.75-2.56,15.07-6.45,16.76-17.19c0.67-4.26-0.8-8.85,0.89-12.82c1.6-3.73,5.78-5.7,9.78-6.33
				c8.74-1.39,17.92,2.24,24.01,8.66c6.09,6.42,8.62,14.64,8.19,23.48c-1.3,26.58-35.83,31.39-48.33,28.88
				c-4.38-0.88-8.82-1.77-12.84-3.72s-7.65-5.09-9.23-9.27c-0.42-1.12-0.69-2.32-0.52-3.5c0.32-2.2,2.11-3.9,3.97-5.11
				c0.69-0.45,1.55-0.86,2.53-1.27"/>
			<ellipse class="st4" cx="75.41" cy="131.98" rx="4.87" ry="4.87"/>
			
				<ellipse transform="matrix(0.5348 -0.845 0.845 0.5348 -81.8139 140.8963)" class="st5" cx="87.05" cy="144.75" rx="4.87" ry="4.87"/>
			<circle class="st3" cx="85" cy="160.88" r="4.28"/>
			<circle class="st3" cx="72.82" cy="171.18" r="3.11"/>
			<path class="st3" d="M37.96,164.21c-1.48,0.74-2.4,1.77-2.41,2.91c-0.01,2.28,3.65,4.14,8.17,4.16s8.19-1.82,8.2-4.1
				c0.01-2.28-3.65-4.14-8.17-4.16"/>
			<path class="st3" d="M41.97,171.45c-1.16-1.88-2.35-3.83-3.54-5.79c-1.43-2.35-2.84-4.7-4.18-6.93l-8.06-13.61l2.83-1.86
				c0,0,4.62,6.24,10.06,13.77c1.62,2.24,3.31,4.59,4.97,6.92c1.54,2.15,3.05,4.29,4.46,6.32"/>
			<path class="st3" d="M55.97,181.72c4.39,8.68-0.38,10.46-7.2,0.38c-0.33-0.48-0.67-1-1.04-1.55"/>
			<path class="st3" d="M30.16,140.92l-0.29-0.44c-0.39-0.58-1.17-0.75-1.76-0.36l-4.44,2.93c-0.58,0.39-0.75,1.17-0.36,1.76
				l0.29,0.44c0.39,0.58,1.17,0.75,1.76,0.36l4.44-2.93C30.39,142.29,30.55,141.5,30.16,140.92z"/>
			<path class="st6" d="M27.04,140.77c1.25-1.44,0.9-4.47-1.25-7c-1.85-2.18-5.24-3.4-8.04-3.57c2.21,3.59-1.91,10.88,6.73,12.18"/>
			<path class="st6" d="M27.04,140.77c1.25-1.44,0.9-4.47-1.25-7c-1.85-2.18-5.24-3.4-8.04-3.57c2.21,3.59-1.91,10.88,6.73,12.18"/>
		</g>
		<g>
			<path class="st3" d="M108.46,124.01V70.05c0-1.38,1.12-2.5,2.5-2.5h44.35c1.38,0,2.5,1.12,2.5,2.5v53.97h-49.35V124.01z"/>
			<path class="st3" d="M104.13,125.98v0.81c0,1.09,0.88,1.97,1.97,1.97h54.08c1.09,0,1.97-0.88,1.97-1.97v-0.81
				c0-1.09-0.88-1.97-1.97-1.97H106.1C105.01,124.01,104.13,124.89,104.13,125.98z"/>
			<path class="st3" d="M130.25,128.98v23.46c0,0.54,0.51,0.98,1.14,0.98h2.47c0.63,0,1.14-0.44,1.14-0.98v-23.41"/>
			<path class="st3" d="M134.73,66.33v-5.9c0-0.14-0.43-0.25-0.95-0.25h-2.06c-0.53,0-0.95,0.11-0.95,0.25v5.89"/>
			<path class="st3" d="M113.69,128.68l-6.12,27.42c-0.14,0.61,0.25,1.22,0.86,1.36l2.41,0.54c0.61,0.14,1.22-0.25,1.36-0.86
				l6.26-28.06"/>
			<path class="st3" d="M151.7,128.84c1.52,6.81,6.08,27.25,6.08,27.25c0.14,0.61-0.25,1.22-0.86,1.36l-2.41,0.54
				c-0.61,0.14-1.22-0.25-1.36-0.86c0,0-4.78-21.43-6.38-28.57"/>
		</g>
		<g>
			<g>
				<path class="st3" d="M215.12,137.91c0.07-0.5,0.14-1,0.2-1.5c0.37-2.72,0.73-5.45,1.07-8.02l1.97-15.7l-3.34-0.58
					c0,0-1.75,7.56-3.74,16.64c-0.59,2.7-1.21,5.53-1.8,8.33c-0.09,0.41-0.18,0.83-0.26,1.24"/>
				<path class="st3" d="M213.06,110.42l0.09-0.52c0.12-0.69,0.78-1.15,1.47-1.03l5.24,0.92c0.69,0.12,1.15,0.78,1.03,1.47
					l-0.09,0.52c-0.12,0.69-0.78,1.15-1.47,1.03l-5.24-0.92C213.4,111.77,212.93,111.11,213.06,110.42z"/>
				<path class="st6" d="M215.86,109.04c-1.72-0.82-2.6-3.74-1.64-6.92c0.83-2.73,3.45-5.21,5.95-6.47
					c-0.6,4.18,6.09,9.22-1.32,13.85"/>
				<path class="st6" d="M215.86,109.04c-1.72-0.82-2.6-3.74-1.64-6.92c0.83-2.73,3.45-5.21,5.95-6.47
					c-0.6,4.18,6.09,9.22-1.32,13.85"/>
				<path class="st6" d="M215.86,109.04c-1.72-0.82-2.6-3.74-1.64-6.92c0.83-2.73,3.45-5.21,5.95-6.47
					c-0.6,4.18,6.09,9.22-1.32,13.85"/>
			</g>
			<path class="st3" d="M200.12,125.93c1.61,0,2.33,0.03,3.87,0.09l3.24,0.17c1.56,0.1,3.06,0.23,4.49,0.39"/>
			<path class="st3" d="M185.76,126.69c2.51-0.3,7.14-0.53,10.03-0.65"/>
			<path class="st3" d="M216.8,127.28c6.73,1.18,11.07,3.03,11.07,5.11c0,3.57-12.81,6.46-28.6,6.46s-28.6-2.89-28.6-6.46
				c0-1.32,1.75-2.55,4.75-3.57"/>
			<path class="st6" d="M226.99,145.95c3.68,2.49,5.69,5.21,5.19,7.66c-1.06,5.14-12.86,7.21-26.3,4.29
				c-15.91-3.45-22.47-14.32-22.47-14.32"/>
			<path class="st3" d="M227.86,132.39l-4.18,51.91c0,3.05-10.93,5.52-24.42,5.52c-13.49,0-24.42-2.47-24.42-5.52l-4.18-51.91"/>
			<path class="st3" d="M202.84,138.84c-0.42-2.5-0.84-4.98-1.24-7.35l-2.75-15.58l-3.36,0.43c0,0,0.56,7.74,1.33,17
				c0.15,1.79,0.31,3.65,0.47,5.51"/>
			<path class="st3" d="M193.1,115.31l-0.07-0.52c-0.09-0.69,0.4-1.33,1.1-1.42l5.28-0.67c0.69-0.09,1.33,0.4,1.42,1.1l0.07,0.52
				c0.09,0.69-0.4,1.33-1.1,1.42l-5.28,0.67C193.83,116.5,193.19,116.01,193.1,115.31z"/>
			<path class="st6" d="M200.64,112.5c1.42-2.42,2.91-4.2,4.34-6.63c-3.99-5.44-15.36-4.14-17.93,2.28c1.99,2,3.88,3.35,5.86,5.34"
				/>
			<path class="st6" d="M177.71,136.47l-8.72-31.16c-0.14-0.5,0.15-1.03,0.66-1.17l8.43-2.35c0.5-0.14,1.03,0.15,1.17,0.66l10,35.94
				"/>
			<line class="st6" x1="171.84" y1="113.36" x2="175.41" y2="112.36"/>
			<line class="st6" x1="174.64" y1="123.43" x2="178.21" y2="122.43"/>
			<line class="st6" x1="177.43" y1="133.44" x2="181" y2="132.45"/>
		</g>
	</g>
</g>
<g id="Layer_2_1_">
	<g>
		<g>
			<path class="st7" d="M133.38,130.93c0.03-0.3,0.06-0.6,0.06-0.89c0-5.85-5.03-10.61-11.22-10.61c-4.14,0-7.75,2.14-9.69,5.3
				c-1.14-0.49-2.38-0.75-3.64-0.75c-4.35,0-7.96,3.01-8.66,6.95c-3.52,0.62-6.19,3.55-6.19,7.07c0,3.97,3.4,7.2,7.58,7.2h30.31
				c4.18,0,7.58-3.23,7.58-7.2C139.5,134.49,136.86,131.57,133.38,130.93z M131.92,142.16h-30.31c-2.51,0-4.55-1.87-4.55-4.17
				c0-1.88,1.37-3.45,3.24-3.97c0.19,0.87,0.52,1.72,0.99,2.49l2.58-1.59c-0.49-0.79-0.75-1.7-0.75-2.61c0-2.92,2.58-5.3,5.76-5.3
				c0.86,0,1.69,0.17,2.46,0.51c-0.21,0.81-0.33,1.65-0.33,2.52h3.03c0-4.18,3.67-7.58,8.18-7.58s8.18,3.4,8.18,7.58
				c0,0.31-0.02,0.62-0.06,0.93c-1.05,0.21-2.05,0.62-2.93,1.24l1.74,2.48c0.8-0.56,1.76-0.86,2.77-0.86c2.51,0,4.55,1.87,4.55,4.17
				S134.43,142.16,131.92,142.16z"/>
			<path class="st7" d="M177.29,66.5c0.07-0.54,0.1-1.09,0.1-1.64c0-7.52-6.12-13.64-13.64-13.64c-5.17,0-9.68,2.9-12,7.15
				c-1.45-0.71-3.04-1.09-4.68-1.09c-5.85,0-10.61,4.76-10.61,10.61c0,1.86,0.49,3.7,1.42,5.31l2.62-1.52
				c-0.66-1.15-1.01-2.46-1.01-3.79c0-4.18,3.4-7.58,7.58-7.58c1.25,0,2.45,0.32,3.54,0.9c-0.32,1.16-0.51,2.38-0.51,3.65h3.03
				c0-5.85,4.76-10.61,10.61-10.61s10.61,4.76,10.61,10.61c0,0.56-0.06,1.12-0.15,1.67c-1.37,0.25-2.66,0.81-3.79,1.66l1.82,2.42
				c1.06-0.79,2.31-1.21,3.64-1.21c3.34,0,6.06,2.72,6.06,6.06s-2.72,6.06-6.06,6.06h-33.34v3.03h33.34c5.01,0,9.09-4.08,9.09-9.09
				C184.97,70.94,181.63,67.18,177.29,66.5z"/>
			<path class="st7" d="M153.14,90.63h-11.15l-9.09-19.7h-7.15l1.52,19.7h-20.2l-7.58-13.64H91v13.64v1.52v1.52h0.08
				c0.77,8.48,7.91,15.16,16.59,15.16h19.58l-0.69,8.98l3.02,0.23l0.71-9.21h8.35l-6,13l2.75,1.27l6.59-14.27h27.83v-1.52
				C169.81,98.11,162.33,90.63,153.14,90.63z M129.01,73.96h1.94l7.69,16.67h-8.35L129.01,73.96z M94.03,80.02h3.65l5.89,10.61
				h-9.55V80.02H94.03z M94.12,93.66h57.51v12.12h-43.95C100.67,105.78,94.88,100.47,94.12,93.66z M154.66,105.78V93.75
				c6.31,0.7,11.34,5.72,12.04,12.03H154.66z"/>
			<rect x="103.13" y="98.21" class="st7" width="6.06" height="3.03"/>
			<rect x="115.25" y="98.21" class="st7" width="6.06" height="3.03"/>
			<rect x="127.38" y="98.21" class="st7" width="6.06" height="3.03"/>
			<rect x="139.5" y="98.21" class="st7" width="6.06" height="3.03"/>
		</g>
		<g>
			<path class="st7" d="M38.08,192.14c2.93,0,5.31-2.38,5.31-5.31s-2.38-5.31-5.31-5.31s-5.31,2.38-5.31,5.31
				S35.15,192.14,38.08,192.14z M38.08,184.18c1.46,0,2.65,1.19,2.65,2.65s-1.19,2.65-2.65,2.65s-2.65-1.19-2.65-2.65
				S36.61,184.18,38.08,184.18z"/>
			<path class="st7" d="M72.57,181.53c-2.93,0-5.31,2.38-5.31,5.31s2.38,5.31,5.31,5.31s5.31-2.38,5.31-5.31
				S75.5,181.53,72.57,181.53z M72.57,189.49c-1.46,0-2.65-1.19-2.65-2.65s1.19-2.65,2.65-2.65s2.65,1.19,2.65,2.65
				S74.04,189.49,72.57,189.49z"/>
			<path class="st7" d="M38.08,140.39h5.31v2.65h2.65v-2.65h13.27v2.65h2.65v-2.65h13.27v2.65h2.65v-2.65h5.31
				c3.66,0,6.63-2.98,6.63-6.63v-10.61c0-3.66-2.98-6.63-6.63-6.63H38.08c-3.66,0-6.63,2.98-6.63,6.63v10.61
				C31.44,137.42,34.42,140.39,38.08,140.39z M67.27,137.74H54v-18.58h13.27C67.27,119.16,67.27,137.74,67.27,137.74z M69.92,119.17
				h2.65v18.58h-2.65V119.17z M51.34,137.74h-2.65v-18.58h2.65V137.74z M87.17,123.15v10.61c0,2.2-1.79,3.98-3.98,3.98h-7.96v-18.58
				h7.96C85.38,119.17,87.17,120.95,87.17,123.15z M34.1,123.15c0-2.2,1.79-3.98,3.98-3.98h7.96v18.58h-7.96
				c-2.2,0-3.98-1.79-3.98-3.98V123.15z"/>
			<path class="st7" d="M95.13,156.32c-0.96,0-1.86,0.28-2.64,0.73c0-0.71,0-1.4,0-2.06c0-5.12-4.16-9.28-9.28-9.28H40.66
				c-2.93,0-5.47,1.88-6.34,4.68l-3.9,12.67l-6.35,0.71c-3.37,0.37-5.9,3.21-5.9,6.59v16.48c0,2.2,1.79,3.98,3.98,3.98h1.33v-2.65
				h-1.33c-0.73,0-1.33-0.59-1.33-1.33v-1.33h5.39c-0.05,0.44-0.08,0.88-0.08,1.33c0,6.59,5.36,11.94,11.94,11.94
				c5.19,0,9.6-3.33,11.25-7.96h8.66v-2.65h-8.04c0.05-0.44,0.08-0.88,0.08-1.33s-0.03-0.89-0.08-1.33h10.77
				c-0.05,0.44-0.08,0.88-0.08,1.33c0,6.59,5.36,11.94,11.94,11.94s11.94-5.36,11.94-11.94v-29.19c0-2.19-1.79-3.98-3.98-3.98H41.78
				c-1.24,0-2.3,0.84-2.58,2.04l-4.64,19.72c-3.6,1.11-6.47,3.89-7.73,7.43h-6v-12.5c0-2.03,1.52-3.73,3.54-3.96l8.09-0.9
				l4.41-14.34c0.52-1.68,2.04-2.81,3.8-2.81h42.55c3.65,0,6.63,2.97,6.63,6.63c0,1.95,0,4.16,0,6.48c0,0.05-0.02,0.1-0.02,0.16
				v15.92c0,0.03,0.01,0.06,0.01,0.09c0,1.89,0,3.65,0,5.22h-2.66v2.65h2.66c0,0.48,0,0.93,0,1.34c0,0.73-0.6,1.32-1.33,1.32h-1.33
				v2.65h1.33c2.19,0,3.98-1.78,3.98-3.97c0-1.24,0-2.86,0-4.73c0.78,0.45,1.68,0.73,2.65,0.73c2.93,0,5.31-2.38,5.31-5.31v-15.92
				C100.44,158.7,98.06,156.32,95.13,156.32z M72.57,196.12c-5.12,0-9.29-4.17-9.29-9.29s4.17-9.29,9.29-9.29s9.29,4.17,9.29,9.29
				S77.69,196.12,72.57,196.12z M81.86,157.64v6.63h-19.9v-7.96h18.58C81.27,156.32,81.86,156.91,81.86,157.64z M56.65,164.28v-7.96
				h2.65v7.96H56.65z M54,156.32v7.96H39.91l1.87-7.96H54z M39.28,166.93h17.37v13.27h2.65v-13.27h22.56v12.41
				c-2.19-2.71-5.54-4.45-9.29-4.45c-5.19,0-9.6,3.33-11.25,7.96h-12c-1.64-4.63-6.06-7.96-11.25-7.96c-0.23,0-0.45,0.02-0.67,0.03
				L39.28,166.93z M38.08,177.55c5.12,0,9.29,4.17,9.29,9.29s-4.17,9.29-9.29,9.29s-9.29-4.17-9.29-9.29S32.96,177.55,38.08,177.55z
				 M97.78,177.55c0,1.46-1.19,2.65-2.65,2.65c-1.43,0-2.59-1.14-2.64-2.56c0-5.02,0.01-10.9,0.01-16.17
				c0.08-1.39,1.23-2.49,2.64-2.49c1.46,0,2.65,1.19,2.65,2.65v15.92H97.78z"/>
		</g>
		<g>
			<path class="st7" d="M225.19,133.07h-13.27v-6.63c0-3.66-2.98-6.63-6.63-6.63H176.1c-3.66,0-6.63,2.98-6.63,6.63v6.63H156.2
				c-3.66,0-6.63,2.98-6.63,6.63v47.77c0,3.66,2.98,6.63,6.63,6.63h69c3.66,0,6.63-2.98,6.63-6.63V139.7
				C231.83,136.05,228.85,133.07,225.19,133.07z M213.25,170.22h5.31c0.73,0,1.33,0.59,1.33,1.33v7.96c0,0.73-0.59,1.33-1.33,1.33
				h-5.31c-0.73,0-1.33-0.59-1.33-1.33v-7.96C211.92,170.82,212.52,170.22,213.25,170.22z M217.23,167.57h-2.65v-31.84h2.65V167.57z
				 M209.27,126.44v6.63h-2.65v-5.31c0-1.46-1.19-2.65-2.65-2.65v-2.65h1.33C207.48,122.46,209.27,124.24,209.27,126.44z
				 M180.08,125.11v-2.65h21.23v2.65H180.08z M203.96,127.76v5.31h-26.54v-5.31C177.42,127.76,203.96,127.76,203.96,127.76z
				 M172.12,126.44c0-2.2,1.79-3.98,3.98-3.98h1.33v2.65c-1.46,0-2.65,1.19-2.65,2.65v5.31h-2.65v-6.63H172.12z M162.83,170.22h5.31
				c0.73,0,1.33,0.59,1.33,1.33v7.96c0,0.73-0.59,1.33-1.33,1.33h-5.31c-0.73,0-1.33-0.59-1.33-1.33v-7.96
				C161.5,170.82,162.1,170.22,162.83,170.22z M166.81,167.57h-2.65v-31.84h2.65V167.57z M229.17,187.47c0,2.2-1.79,3.98-3.98,3.98
				h-5.31v-5.31h-2.65v5.31h-2.65v-5.31h-2.65v5.31h-42.46v-5.31h-2.65v5.31h-2.65v-5.31h-2.65v5.31h-5.31
				c-2.2,0-3.98-1.79-3.98-3.98V139.7c0-2.2,1.79-3.98,3.98-3.98h5.31v32.09c-1.54,0.55-2.65,2.01-2.65,3.74v7.96
				c0,2.2,1.79,3.98,3.98,3.98h5.31c2.2,0,3.98-1.79,3.98-3.98v-7.96c0-1.73-1.11-3.19-2.65-3.74v-32.09h42.46v32.09
				c-1.54,0.55-2.65,2.01-2.65,3.74v7.96c0,2.2,1.79,3.98,3.98,3.98h5.31c2.2,0,3.98-1.79,3.98-3.98v-7.96
				c0-1.73-1.11-3.19-2.65-3.74v-32.09h5.31c2.2,0,3.98,1.79,3.98,3.98v47.77H229.17z"/>
			<path class="st7" d="M189.37,145.01h-15.92v10.61h15.92V145.01z M186.71,152.97H176.1v-5.31h10.61V152.97z"/>
			<path class="st7" d="M186.41,168.55l2.7,9.92l15.16-3.92l-2.7-9.92L186.41,168.55z M190.98,175.25l-1.31-4.8l10.02-2.59l1.31,4.8
				L190.98,175.25z"/>
		</g>
	</g>
</g>
</svg>
