<?xml version="1.0" encoding="utf-8"?>
<!-- Generator: Adobe Illustrator 25.0.0, SVG Export Plug-In . SVG Version: 6.00 Build 0)  -->
<svg version="1.1" id="Layer_1" xmlns="http://www.w3.org/2000/svg" xmlns:xlink="http://www.w3.org/1999/xlink" x="0px" y="0px"
	 viewBox="0 0 240.44 220.08" style="enable-background:new 0 0 240.44 220.08;" xml:space="preserve">
<style type="text/css">
	.st0{fill:#9E0000;}
</style>
<g>
	<path class="st0" d="M32.11,86.28c-8.51-0.63-13.63-5.51-17.67-12.36c-2.15-3.64-5.25-6.78-8.21-9.86
		c-5.87-6.12-7.73-12.87-4.97-21.13c1.78-5.31,2.98-10.89,3.76-16.44c1.09-7.77,5.22-12.65,12.29-15.67
		c5.58-2.39,11.11-5,16.39-7.98c6.27-3.53,12.27-3.87,18.69-0.47c5.97,3.16,12.06,6.13,18.26,8.78c5.88,2.52,9.08,7.2,11.33,12.66
		c3.95,1.35,6.88-0.08,9.35-2.68c6.61-6.97,14.48-9.5,24.02-7.9c2.65,0.44,5.84-0.57,8.41-1.73c7.51-3.39,14.71-3.4,22.27,0.02
		c2.91,1.32,6.58,1.91,9.75,1.52c8.24-1.01,15.02,1.22,21.27,6.61c2.75,2.37,6.38,4.23,9.91,5.08c7.77,1.88,13.36,5.97,17.41,12.89
		c1.72,2.94,4.54,5.62,7.48,7.41c7.02,4.26,11.4,9.9,12.91,18.12c0.57,3.12,2.37,6.38,4.51,8.77c5.66,6.31,8.23,13.22,7.07,21.75
		c-0.4,2.93,0.11,6.37,1.33,9.07c3.6,7.96,3.83,15.55-0.03,23.52c-1.28,2.65-1.75,6.15-1.33,9.08c1.17,8.26-1.28,14.99-6.56,21.27
		c-2.35,2.8-4.32,6.41-5.08,9.95c-1.57,7.4-5.27,13.01-11.76,16.56c-4.15,2.26-7.16,5.17-9.38,9.37
		c-3.61,6.83-9.71,10.31-17.16,12.13c-3.33,0.81-6.77,2.51-9.35,4.74c-6.04,5.22-12.63,7.38-20.62,6.69
		c-3.62-0.31-7.65,0.45-11.04,1.84c-7.15,2.93-13.88,2.92-21.02-0.02c-3.38-1.39-7.42-2.12-11.05-1.82
		c-7.98,0.66-14.57-1.47-20.58-6.75c-2.57-2.25-6.05-3.97-9.39-4.73c-8.06-1.84-13.76-6.21-18.02-13.2
		c-1.79-2.93-4.5-5.71-7.44-7.45c-7.13-4.19-11.31-10-12.98-18.09c-0.65-3.13-2.32-6.39-4.42-8.8c-5.71-6.55-8.39-13.59-6.9-22.43
		c0.51-3.03-0.78-6.62-2.03-9.63c-2.64-6.37-3.8-12.9-0.5-19.01C34.41,99.59,34.14,93.46,32.11,86.28z M48.55,79.85
		c0.01,6.15-5.35,4.26-7.41,6.79c-0.11,0.88-0.42,1.79-0.31,2.65c0.86,6.88,0.01,13.25-3.01,19.75c-1.5,3.24-1.15,8.3,0.29,11.72
		c2.37,5.64,3.66,11.05,2.79,17.08c-0.8,5.52,0.93,10.26,5.03,14.11c3.59,3.37,5.66,7.41,6.28,12.41
		c0.74,5.97,3.81,10.56,9.49,13.12c4.75,2.14,7.95,5.74,10.26,10.4c2.56,5.17,6.69,8.36,12.63,9.1c5.08,0.64,9.44,2.83,13.03,6.63
		c4.2,4.43,9.49,6.22,15.46,4.81c4.72-1.11,9.03-0.34,13.08,1.97c5.86,3.34,11.58,3.27,17.41,0.03c4.08-2.27,8.34-3.14,13.07-2.01
		c5.69,1.35,10.91-0.12,14.95-4.34c3.96-4.13,8.64-6.45,14.2-7.22c5.36-0.74,9.08-3.72,11.63-8.38c1.49-2.72,3.09-5.39,4.48-7.8
		c-7.94-5.67-15.6-11.15-23.26-16.62c0.2-0.45,0.4-0.9,0.6-1.35c-3.74,0-7.47,0-11.47,0c-1.47,7.15-2.58,14.07-4.36,20.81
		c-2.84,10.71-11.5,18.14-22.19,19.19c-12.88,1.26-24.57-0.72-31.58-13.36c-1.19-2.14-2.04-4.55-2.61-6.94
		c-1.1-4.62-1.84-9.32-2.81-13.97c-0.44-2.12-1.05-4.21-1.61-6.39c-3.65,0.21-6.57,0.51-9.49,0.53
		c-20.82,0.13-35.3-16.55-30.24-35.49c4.08-15.29,14.33-24.92,29.9-28.23c5.49-1.17,11.22-1.24,16.85-1.8
		c0.39-0.22,0.82-0.4,1.18-0.67c15.84-12.16,30.59-12.33,47.19-0.76c1.82,1.27,4.35,1.52,6.55,2.24c-0.55-2.71-1.77-4.29-2.83-5.97
		c-4.66-7.31-5.87-15.11-2.92-23.35c0.91-2.54,2.36-4.89,3.43-7.38c4.53-10.55,2.14-22.82-6.86-29.49
		c-7.76-5.74-16.38-10.32-24.69-15.46c-6.67,4.59-13.5,4.78-20.67,4.29c-3.12-0.21-6.74,0.98-9.51,2.6
		c-5.69,3.33-10.95,7.38-16.39,11.13c-1.45,1.87,0.72,5.94-5.15,6.98c-0.87-1.43-2.29-3.07-2.89-4.96
		c-0.75-2.34-1.02-4.89-1.13-7.36c-0.29-6.24-3.54-9.76-9.31-11.9c-5.05-1.87-9.99-4.25-14.58-7.05C45.75,6.71,41.09,6.84,35.85,10
		c-4.61,2.77-9.56,5.09-14.59,7.02c-5.41,2.08-8.45,5.34-9.25,11.28c-0.78,5.78-2.26,11.51-3.94,17.11
		c-1.62,5.38-0.47,9.63,3.32,13.65c3.39,3.61,6.96,7.26,9.39,11.51c3.81,6.64,8.98,9.16,16.33,7.87c1.78-0.31,3.65-0.8,5.38-0.54
		C44.68,78.23,46.77,79.24,48.55,79.85z M106.08,105.35c-17.26-0.98-29.9,6.34-35.22,20.15c-5.45,14.13,2.66,27.59,17.68,29.19
		c3.13,0.33,6.33,0.29,9.48,0.05c24.4-1.85,48.78-1.91,73.18-0.01c2.7,0.21,5.43,0.28,8.13,0.13c17.1-0.96,25.94-15.91,18.63-31.43
		c-6.06-12.87-19.27-19.78-34.02-17.77c-4.04,14.69-13.62,21.73-29.31,21.56C118.9,127.04,109.41,119.89,106.08,105.35z
		 M160.26,161.93c-7.39,0-13.93,0-20.74,0c0,11.27,0,21.95,0,32.61c7.79,0.14,13.88-3.69,16.08-11.05
		C157.65,176.67,158.66,169.54,160.26,161.93z M131.14,161.85c-7.15,0-13.57,0-20.58,0c1.41,7.17,2.37,13.84,4.08,20.31
		c2.16,8.13,8.26,12.53,16.49,12.39C131.14,183.87,131.14,173.2,131.14,161.85z M176.13,71.93c3.67-0.54,5.76-0.97,7.87-1.12
		c5.03-0.37,9.29,3.49,9.45,8.43c0.16,5.11-3.99,9.04-9.69,8.82c-2.48-0.1-5.09-1.15-5.32,2.75c5.54,4.03,12.24,3.35,16.75-1.64
		c4.54-5.02,4.78-13.49,0.54-18.66c-4.17-5.09-12.38-6.89-17-3.52C177.77,67.69,177.47,69.31,176.13,71.93z"/>
	<path class="st0" d="M66.56,41.59c-11.67,4.17-17.09,14.05-20.25,25.29c-9.7,3.58-11.92,1.91-18.27-4.78
		c-7.43-7.83-9.05-15.37-5.68-25.49c1.8-5.43,4.16-8.41,9.07-11.32c9.07-5.38,16.79-5.84,26.1-0.2
		C65.1,29.67,67.06,30.88,66.56,41.59z"/>
	<path class="st0" d="M84.23,63.39c7.57-0.04,13.87,6.23,13.82,13.74c-0.06,7.41-6.65,13.84-14,13.66
		c-7.27-0.18-13.3-6.24-13.44-13.5C70.47,69.74,76.65,63.43,84.23,63.39z"/>
</g>
</svg>
