<?xml version="1.0" encoding="utf-8"?>
<!-- Generator: Adobe Illustrator 25.0.0, SVG Export Plug-In . SVG Version: 6.00 Build 0)  -->
<svg version="1.1" id="Layer_1" xmlns="http://www.w3.org/2000/svg" xmlns:xlink="http://www.w3.org/1999/xlink" x="0px" y="0px"
	 viewBox="0 0 457 273" style="enable-background:new 0 0 457 273;" xml:space="preserve">
<style type="text/css">
	.st0{fill:#00AD1C;}
</style>
<g>
	<path class="st0" d="M271.41,70.38c-1.96-9.15,3.07-14.16,10.77-17.67c37.2-16.95,74.37-33.94,111.53-50.97
		c4.83-2.21,9.44-2.36,14.41-0.23c13.9,5.95,27.89,11.72,41.9,17.42c5.05,2.05,7.33,5.82,6.92,10.89
		c-0.55,6.77-0.79,13.8-2.95,20.11c-1.54,4.48-5.43,8.75-9.33,11.73c-18.37,14.01-37.1,27.54-55.71,41.24
		c-3.88,2.86-7.84,5.62-11.63,8.6c-5.02,3.95-10.55,4.79-16.45,2.82c-27.11-9.06-54.19-18.22-81.28-27.33
		C271.38,84.23,270.4,77.81,271.41,70.38z"/>
	<path class="st0" d="M185.83,69.59c0.01,13.27-1.26,14.95-12.34,18.7c-23.93,8.09-47.93,15.99-71.71,24.48
		c-9.7,3.47-17.57,2.55-25.93-3.9C54.54,92.43,32.68,76.69,10.98,60.74c-5.26-3.87-8.46-8.64-8.94-15.31
		c-0.37-5.11-1.53-10.17-1.98-15.28c-0.48-5.4,1.96-9.18,7.1-11.29C21.16,13.13,35.15,7.4,49.06,1.47c5.16-2.2,9.85-1.8,14.85,0.5
		c36.23,16.67,72.52,33.23,108.79,49.82c0.3,0.14,0.58,0.32,0.89,0.44C182.21,55.61,187.97,60.83,185.83,69.59z"/>
	<path class="st0" d="M342.58,204.88c-6.49,0-13-0.21-19.48,0.06c-6.25,0.26-10.3-2.43-13.29-7.77
		c-11.84-21.15-23.85-42.21-35.77-63.32c-3.51-6.21-6.92-12.48-10.43-18.7c-3.94-6.99-2.34-13.35,1.99-19.5
		c2.36-3.35,5.39-2.66,8.49-1.58c17.12,5.93,34.24,11.89,51.36,17.83c9.73,3.38,19.42,6.9,29.21,10.09
		c6.61,2.15,11.69,5.81,15.46,11.77c6.57,10.38,13.48,20.55,20.47,30.64c2.89,4.17,2.83,7.93-0.01,11.9
		c-5.7,7.97-11.07,16.2-17.26,23.78c-2.01,2.46-6.02,4.22-9.29,4.53c-7.1,0.67-14.3,0.21-21.46,0.21
		C342.58,204.84,342.58,204.86,342.58,204.88z"/>
	<path class="st0" d="M114.01,204.83c-7,0-14.04,0.47-20.97-0.2c-3.29-0.32-7.34-2.02-9.35-4.47c-6.1-7.44-11.33-15.58-16.98-23.39
		c-3.09-4.28-3.29-8.17-0.07-12.72c7-9.9,13.76-19.98,20.21-30.24c3.97-6.32,9.56-9.87,16.38-12.21
		c25.63-8.79,51.2-17.77,76.87-26.46c3.07-1.04,7.94-2.19,9.65-0.68c3.83,3.39,7.17,8.2,5.76,14.03c-0.88,3.66-2.32,7.31-4.17,10.59
		c-14.73,26.2-29.68,52.28-44.39,78.48c-2.95,5.26-6.99,7.57-12.96,7.37c-6.65-0.23-13.32-0.05-19.99-0.05
		C114.01,204.86,114.01,204.84,114.01,204.83z"/>
	<path class="st0" d="M228.23,109.3c-5.66,0-11.34,0.19-16.98-0.12c-1.7-0.09-3.83-1.15-4.92-2.45
		C194.83,93.04,191.56,77,193.42,59.65c0.13-1.2,1.25-2.53,2.27-3.32c1.14-0.88,2.8-1.07,4.07-1.83c4.59-2.73,8.09-2.68,12.55,1.44
		c8.09,7.48,25.77,6.73,33.73-0.99c3.13-3.03,5.49-2.95,9.05-1.39c8.5,3.74,7.9,3.65,8.73,13.12c1.35,15.25-3.99,28-12.96,39.65
		c-1.17,1.53-3.67,2.7-5.64,2.83C239.58,109.54,233.9,109.3,228.23,109.3z"/>
	<path class="st0" d="M228.62,156.8c-13.81,0-27.62,0.04-41.44-0.02c-6.15-0.03-6.76-1.22-3.73-6.58c4.82-8.52,9.7-17,14.36-25.61
		c3.09-5.71,7.45-8.3,14.12-8.09c11.47,0.36,22.96,0.24,34.44,0.04c5.43-0.09,9.33,2.05,11.93,6.61
		c5.52,9.65,10.89,19.38,16.43,29.02c1.61,2.81,0.45,4.03-2.2,4.46c-1.63,0.26-3.32,0.18-4.98,0.18
		C254.58,156.81,241.6,156.8,228.62,156.8z"/>
	<path class="st0" d="M228.81,165.14c14.64,0,29.27-0.05,43.9,0.03c6.37,0.03,7.02,1.05,5.07,7.1
		c-4.45,13.83-4.45,13.83-18.88,13.83c-22.12,0-44.24,0.02-66.36,0c-7.76,0-8.89-0.86-11.41-8.34c-0.63-1.88-1.23-3.78-1.86-5.67
		c-1.99-6.02-1.45-6.89,5.13-6.93C199.2,165.08,214.01,165.14,228.81,165.14z"/>
	<path class="st0" d="M228.65,194.44c11.15,0,22.29-0.11,33.44,0.04c8.03,0.1,8.58,1.02,5.81,8.26
		c-4.79,12.49-2.53,12.31-17.57,12.24c-16.47-0.08-32.94-0.16-49.4,0.05c-5.36,0.07-8.42-1.98-9.84-7.06
		c-0.8-2.86-1.94-5.64-3.1-8.38c-1.25-2.95-0.32-4.53,2.79-4.69c4.97-0.25,9.95-0.42,14.93-0.46c7.65-0.07,15.3-0.02,22.96-0.02
		C228.65,194.42,228.65,194.43,228.65,194.44z"/>
	<path class="st0" d="M228.58,3.13c5.28,4.91,10.93,9.36,15.56,14.69c5.84,6.71,7.6,14.74,3.57,23.12
		c-3.76,7.82-9.83,13.1-18.9,13.25c-9.59,0.16-15.83-5.47-19.66-13.61c-4.05-8.61-1.79-16.71,4.26-23.45
		C217.93,12.11,223.35,7.9,228.58,3.13z"/>
	<path class="st0" d="M228.65,223.8c8.65,0,17.3-0.15,25.94,0.06c5.07,0.12,5.55,1.08,3.74,5.77c-5.86,15.22-3.96,12.82-18.58,12.97
		c-9.98,0.1-19.96-0.1-29.94,0.07c-4.29,0.07-6.96-1.55-8.23-5.62c-0.49-1.58-1.23-3.07-1.85-4.61c-3.19-7.95-2.84-8.56,5.97-8.73
		c7.65-0.14,15.3-0.03,22.95-0.03C228.65,223.72,228.65,223.76,228.65,223.8z"/>
	<path class="st0" d="M228.75,250.86c3.98,0,7.97-0.13,11.95,0.03c4.45,0.19,5.38,1.89,2.86,5.63c-3.14,4.67-6.47,9.22-10,13.6
		c-2.98,3.69-6.77,3.85-9.73,0.31c-3.81-4.57-7.33-9.41-10.71-14.31c-2.03-2.94-1.22-5.13,2.68-5.24
		C220.12,250.77,224.44,250.86,228.75,250.86z"/>
</g>
</svg>
